SplineFontDB: 3.2
FontName: ReproTypewr
FullName: Reproducing Typewriter
FamilyName: Reproducing Typewriter
Weight: Regular
Copyright: Copyright (c) 2024, Darren Embry
UComments: "2024-10-17: Created with FontForge (http://fontforge.org)"
Version: 001.000
ItalicAngle: 0
UnderlinePosition: -300
UnderlineWidth: 96
Ascent: 1344
Descent: 336
InvalidEm: 0
LayerCount: 2
Layer: 0 0 "Back" 1
Layer: 1 0 "Fore" 0
XUID: [1021 323 -1642646731 12193472]
StyleMap: 0x0000
FSType: 0
OS2Version: 0
OS2_WeightWidthSlopeOnly: 0
OS2_UseTypoMetrics: 1
CreationTime: 1729142792
ModificationTime: 1730439563
PfmFamily: 17
TTFWeight: 400
TTFWidth: 5
LineGap: 0
VLineGap: 0
Panose: 0 0 0 9 0 0 0 0 0 0
OS2TypoAscent: 1344
OS2TypoAOffset: 0
OS2TypoDescent: -336
OS2TypoDOffset: 0
OS2TypoLinegap: 0
OS2WinAscent: 1344
OS2WinAOffset: 0
OS2WinDescent: 336
OS2WinDOffset: 0
HheadAscent: 1344
HheadAOffset: 0
HheadDescent: -336
HheadDOffset: 0
OS2CapHeight: 1056
OS2XHeight: 756
OS2Vendor: 'PfEd'
MarkAttachClasses: 1
DEI: 91125
Encoding: UnicodeBmp
UnicodeInterp: none
NameList: AGL For New Fonts
DisplaySize: -48
AntiAlias: 1
FitToEm: 0
WinInfo: 8176 16 11
BeginPrivate: 0
EndPrivate
Grid
0 528 m 25
 1008 528 l 1049
-1008 378 m 29
 2016 378 l 1053
-1008 756 m 25
 2016 756 l 1049
-1008 1056 m 25
 2016 1056 l 1049
504 3072 m 25
 504 -2048 l 25
 504 3072 l 25
EndSplineSet
BeginChars: 65584 483

StartChar: cedilla
Encoding: 184 184 0
Width: 1008
VWidth: 4000
Flags: HW
HStem: -300 96<354.708 550.172>
LayerCount: 2
Fore
SplineSet
624.677734375 -244.681640625 m 4
 664.783203125 -195.552734375 669.302734375 -85.462890625 534.315429688 -53.1005859375 c 5
 564.15625 6.580078125 l 6
 579.995117188 38.259765625 556.870117188 76 521.1953125 76 c 4
 502.3984375 76 486.111328125 65.1728515625 478.234375 49.419921875 c 6
 418.234375 -70.580078125 l 6
 402.395507812 -102.259765625 425.520507812 -140 461.1953125 -140 c 4
 488.064453125 -140.126953125 539.970703125 -149.095703125 551.522460938 -165.844726562 c 4
 554.432617188 -170.065429688 553.70703125 -179.836914062 550.278320312 -184.037109375 c 4
 548.134765625 -186.663085938 537.786132812 -193.975585938 514.044921875 -198.3359375 c 4
 485.516601562 -203.575195312 444.34375 -204 401.1953125 -204 c 4
 374.703125 -204 353.1953125 -225.5078125 353.1953125 -252 c 4
 353.1953125 -278.4921875 374.703125 -300 401.1953125 -300 c 4
 492.877929688 -300 579.51953125 -300 624.677734375 -244.681640625 c 4
EndSplineSet
EndChar

StartChar: NameMe.65536
Encoding: 65536 -1 1
Width: 1008
VWidth: 4000
Flags: HW
HStem: 1120 176<433.491 574.509>
VStem: 416 176<1137.49 1278.51>
LayerCount: 2
Fore
SplineSet
416 1208 m 0
 416 1159.42871094 455.428710938 1120 504 1120 c 0
 552.571289062 1120 592 1159.42871094 592 1208 c 0
 592 1256.57128906 552.571289062 1296 504 1296 c 0
 455.428710938 1296 416 1256.57128906 416 1208 c 0
EndSplineSet
EndChar

StartChar: NameMe.65537
Encoding: 65537 -1 2
Width: 1008
VWidth: 4000
Flags: HW
LayerCount: 2
Fore
SplineSet
182.5078125 72.134765625 m 6
 163.970703125 40.35546875 187.006835938 0 224 0 c 4
 241.696289062 0 257.168945312 9.5966796875 265.4921875 23.865234375 c 6
 825.4921875 983.865234375 l 6
 844.029296875 1015.64453125 820.993164062 1056 784 1056 c 4
 766.303710938 1056 750.831054688 1046.40332031 742.5078125 1032.13476562 c 6
 182.5078125 72.134765625 l 6
EndSplineSet
EndChar

StartChar: NameMe.65538
Encoding: 65538 -1 3
Width: 1008
VWidth: 4000
Flags: HW
LayerCount: 2
Fore
SplineSet
101.979492188 -248.794921875 m 2
 84.38671875 -280.559570312 107.46484375 -320 144 -320 c 0
 162.077148438 -320 177.833984375 -309.985351562 186.020507812 -295.205078125 c 2
 906.020507812 1004.79492188 l 2
 923.61328125 1036.55957031 900.53515625 1076 864 1076 c 0
 845.922851562 1076 830.166015625 1065.98535156 821.979492188 1051.20507812 c 2
 101.979492188 -248.794921875 l 2
EndSplineSet
EndChar

StartChar: tilde.generic
Encoding: 65539 -1 4
Width: 1008
VWidth: 4000
Flags: HW
HStem: 1120 96<522.455 758.448> 1200 96<249.552 485.545>
LayerCount: 2
Fore
SplineSet
785.592773438 1276.78027344 m 0x40
 784.642578125 1275.56738281 737.174804688 1216 644 1216 c 0x80
 595.4296875 1216 565.661132812 1230.83984375 525.419921875 1250.9609375 c 0
 485.661132812 1270.83984375 435.4296875 1296 364 1296 c 0x40
 221.034179688 1296 149.194335938 1201.58300781 145.577148438 1196.75976562 c 0
 121.966796875 1165.27929688 144.596679688 1120 184 1120 c 0x80
 199.69921875 1120 213.647460938 1127.55273438 222.407226562 1139.21972656 c 0
 223.357421875 1140.43261719 270.825195312 1200 364 1200 c 0x40
 412.5703125 1200 442.338867188 1185.16015625 482.580078125 1165.0390625 c 0
 522.338867188 1145.16015625 572.5703125 1120 644 1120 c 0x80
 786.965820312 1120 858.805664062 1214.41699219 862.422851562 1219.24023438 c 0
 886.033203125 1250.72070312 863.403320312 1296 824 1296 c 0
 808.30078125 1296 794.352539062 1288.44726562 785.592773438 1276.78027344 c 0x40
EndSplineSet
EndChar

StartChar: NameMe.65540
Encoding: 65540 -1 5
Width: 1008
VWidth: 4000
Flags: HW
HStem: 200 96<97.4956 143.983 863.983 910.471> 460 96<97.4956 143.983 863.983 910.471>
VStem: 95.9834 93.0449<-318.488 -288.606> 335.983 93.0449<-318.488 -288.606>
LayerCount: 2
Fore
SplineSet
143.983398438 296 m 6
 117.491210938 296 95.9833984375 274.4921875 95.9833984375 248 c 4
 95.9833984375 221.5078125 117.491210938 200 143.983398438 200 c 6
 863.983398438 200 l 6
 890.475585938 200 911.983398438 221.5078125 911.983398438 248 c 4
 911.983398438 274.4921875 890.475585938 296 863.983398438 296 c 6
 143.983398438 296 l 6
143.978515625 248.001953125 m 5
 863.978515625 248.001953125 l 1029
143.983398438 556 m 6
 117.491210938 556 95.9833984375 534.4921875 95.9833984375 508 c 4
 95.9833984375 481.5078125 117.491210938 460 143.983398438 460 c 6
 863.983398438 460 l 6
 890.475585938 460 911.983398438 481.5078125 911.983398438 508 c 4
 911.983398438 534.4921875 890.475585938 556 863.983398438 556 c 6
 143.983398438 556 l 6
143.978515625 508 m 5
 863.978515625 508 l 1029
95.9833984375 -272 m 4
 95.9833984375 -298.4921875 117.491210938 -320 143.983398438 -320 c 4
 164.638671875 -320 182.264648438 -306.924804688 189.028320312 -288.606445312 c 6
 669.028320312 1011.39355469 l 6
 680.525390625 1042.53027344 657.426757812 1076 623.983398438 1076 c 4
 603.328125 1076 585.702148438 1062.92480469 578.938476562 1044.60644531 c 6
 98.9384765625 -255.393554688 l 6
 98.9384765625 -260.569335938 95.9833984375 -266.1640625 95.9833984375 -272 c 4
143.978515625 -272.000976562 m 5
 623.978515625 1027.99902344 l 1029
335.983398438 -272 m 4
 335.983398438 -298.4921875 357.491210938 -320 383.983398438 -320 c 4
 404.638671875 -320 422.264648438 -306.924804688 429.028320312 -288.606445312 c 6
 909.028320312 1011.39355469 l 6
 920.525390625 1042.53027344 897.426757812 1076 863.983398438 1076 c 4
 843.328125 1076 825.702148438 1062.92480469 818.938476562 1044.60644531 c 6
 338.938476562 -255.393554688 l 6
 338.938476562 -260.569335938 335.983398438 -266.1640625 335.983398438 -272 c 4
383.978515625 -272.000976562 m 5
 863.978515625 1027.99902344 l 1029
EndSplineSet
EndChar

StartChar: diaeresis.generic
Encoding: 65541 -1 6
Width: 1008
VWidth: 4000
Flags: HW
HStem: 1120 176<193.491 334.509 673.491 814.509>
VStem: 176 176<1137.49 1278.51> 656 176<1137.49 1278.51>
LayerCount: 2
Fore
SplineSet
656 1208 m 0
 656 1159.42871094 695.428710938 1120 744 1120 c 0
 792.571289062 1120 832 1159.42871094 832 1208 c 0
 832 1256.57128906 792.571289062 1296 744 1296 c 0
 695.428710938 1296 656 1256.57128906 656 1208 c 0
176 1208 m 0
 176 1159.42871094 215.428710938 1120 264 1120 c 0
 312.571289062 1120 352 1159.42871094 352 1208 c 0
 352 1256.57128906 312.571289062 1296 264 1296 c 0
 215.428710938 1296 176 1256.57128906 176 1208 c 0
EndSplineSet
EndChar

StartChar: multiply.huge
Encoding: 65542 -1 7
Width: 1008
VWidth: 4000
Flags: HW
LayerCount: 2
Fore
SplineSet
177.934570312 801.934570312 m 6
 147.794921875 832.073242188 96 810.49609375 96 768 c 4
 96 754.75390625 101.376953125 742.75390625 110.065429688 734.065429688 c 6
 830.065429688 14.0654296875 l 6
 860.205078125 -16.0732421875 912 5.50390625 912 48 c 4
 912 61.24609375 906.623046875 73.24609375 897.934570312 81.9345703125 c 6
 177.934570312 801.934570312 l 6
110.065429688 81.9345703125 m 6
 79.9267578125 51.794921875 101.50390625 0 144 0 c 4
 157.24609375 0 169.24609375 5.376953125 177.934570312 14.0654296875 c 6
 897.918945312 734.065429688 l 6
 928.057617188 764.205078125 906.48046875 816 863.984375 816 c 4
 850.73828125 816 838.73828125 810.623046875 830.049804688 801.934570312 c 6
 110.065429688 81.9345703125 l 6
EndSplineSet
EndChar

StartChar: NameMe.65543
Encoding: 65543 -1 8
Width: 1008
VWidth: 4000
Flags: HW
VStem: 546.02 96<121.566 666.547>
LayerCount: 2
Fore
SplineSet
371.568359375 -265.590820312 m 6
 354.766601562 -297.326171875 377.87109375 -336 414.01953125 -336 c 4
 432.419921875 -336 448.416015625 -325.624023438 456.470703125 -310.409179688 c 4
 459.870117188 -303.98828125 642.01953125 41.72265625 642.01953125 392 c 4
 642.01953125 550.669921875 605.103515625 706.048828125 564.608398438 830.34765625 c 4
 513.986328125 985.729492188 457.333984375 1092.77832031 456.470703125 1094.40917969 c 4
 448.416015625 1109.62402344 432.419921875 1120 414.01953125 1120 c 4
 377.87109375 1120 354.766601562 1081.32617188 371.568359375 1049.59082031 c 6
 371.568359375 1049.59082031 546.01953125 718.211914062 546.01953125 392 c 4
 546.01953125 65.7880859375 371.568359375 -265.590820312 371.568359375 -265.590820312 c 6
EndSplineSet
EndChar

StartChar: one.coding
Encoding: 65544 -1 9
Width: 1008
VWidth: 4000
Flags: HW
HStem: 0 96<197.512 244 804 850.488> 741.63 92.7402<197.068 317.11>
LayerCount: 2
Fore
SplineSet
244 96 m 2
 217.5078125 96 196 74.4921875 196 48 c 0
 196 21.5078125 217.5078125 0 244 0 c 2
 524 0 l 1
 804 0 l 2
 830.4921875 0 852 21.5078125 852 48 c 0
 852 74.4921875 830.4921875 96 804 96 c 2
 572 96 l 1
 572 1008 l 2
 572 1034.4921875 550.4921875 1056 524 1056 c 0
 506.2265625 1056 490.697265625 1046.31933594 482.400390625 1031.94824219 c 0
 439.290039062 957.278320312 351.663085938 866.547851562 231.5625 834.370117188 c 0
 211.091796875 828.885742188 196 810.19140625 196 788 c 0
 196 756.420898438 226.065429688 733.4921875 256.4375 741.629882812 c 0
 346.672851562 765.805664062 420.137695312 814.478515625 476 869.217773438 c 1
 476 96 l 1
 244 96 l 2
EndSplineSet
EndChar

StartChar: ringabove.generic
Encoding: 65545 -1 10
Width: 1008
VWidth: 4000
Flags: HW
HStem: 1080 96<472.015 535.985> 1240 96<472.015 535.985>
VStem: 376 96<1176.02 1239.98> 536 96<1176.02 1239.98>
LayerCount: 2
Fore
SplineSet
472 1208 m 4
 472 1225.70996094 486.290039062 1240 504 1240 c 4
 521.709960938 1240 536 1225.70996094 536 1208 c 4
 536 1190.29003906 521.709960938 1176 504 1176 c 4
 486.290039062 1176 472 1190.29003906 472 1208 c 4
376 1208 m 4
 376 1137.33496094 433.334960938 1080 504 1080 c 4
 574.665039062 1080 632 1137.33496094 632 1208 c 4
 632 1278.66503906 574.665039062 1336 504 1336 c 4
 433.334960938 1336 376 1278.66503906 376 1208 c 4
EndSplineSet
EndChar

StartChar: grave.huge
Encoding: 65546 -1 11
Width: 1008
VWidth: 4000
Flags: HW
VStem: 256 496
LayerCount: 2
Fore
SplineSet
337.934570312 1041.93457031 m 2
 307.794921875 1072.07324219 256 1050.49609375 256 1008 c 0
 256 994.75390625 261.376953125 982.75390625 270.065429688 974.065429688 c 2
 670.065429688 574.065429688 l 2
 700.205078125 543.926757812 752 565.50390625 752 608 c 0
 752 621.24609375 746.623046875 633.24609375 737.934570312 641.934570312 c 2
 337.934570312 1041.93457031 l 2
EndSplineSet
EndChar

StartChar: multiply.dflt
Encoding: 65547 -1 12
Width: 1008
VWidth: 4000
Flags: HW
HStem: 133.719 548.562
VStem: 229.719 548.562
LayerCount: 2
Fore
SplineSet
311.653320312 668.215820312 m 6
 281.513671875 698.354492188 229.71875 676.77734375 229.71875 634.28125 c 4
 229.71875 621.03515625 235.095703125 609.03515625 243.784179688 600.346679688 c 6
 696.346679688 147.784179688 l 6
 726.486328125 117.645507812 778.28125 139.22265625 778.28125 181.71875 c 4
 778.28125 194.96484375 772.904296875 206.96484375 764.215820312 215.653320312 c 6
 311.653320312 668.215820312 l 6
243.784179688 215.653320312 m 6
 213.645507812 185.513671875 235.22265625 133.71875 277.71875 133.71875 c 4
 290.96484375 133.71875 302.96484375 139.095703125 311.653320312 147.784179688 c 6
 764.215820312 600.346679688 l 6
 794.354492188 630.486328125 772.77734375 682.28125 730.28125 682.28125 c 4
 717.03515625 682.28125 705.03515625 676.904296875 696.346679688 668.215820312 c 6
 243.784179688 215.653320312 l 6
EndSplineSet
EndChar

StartChar: circumflex.generic
Encoding: 65548 -1 13
Width: 1008
VWidth: 4000
Flags: HW
LayerCount: 2
Fore
SplineSet
356.7421875 1207.54199219 m 6
 318.116210938 1180.90332031 337.225585938 1120 383.946289062 1120 c 4
 394.04296875 1120 403.416992188 1123.12402344 411.150390625 1128.45800781 c 6
 500.833007812 1190.30761719 l 5
 597.973632812 1127.63574219 l 6
 629.713867188 1107.15917969 671.946289062 1130.078125 671.946289062 1168 c 4
 671.946289062 1184.92480469 663.166992188 1199.81640625 649.918945312 1208.36425781 c 6
 525.918945312 1288.36425781 l 6
 509.720703125 1298.81347656 488.706054688 1298.55175781 472.7421875 1287.54199219 c 6
 356.7421875 1207.54199219 l 6
EndSplineSet
EndChar

StartChar: NameMe.65549
Encoding: 65549 -1 14
Width: 1008
VWidth: 4000
Flags: HW
HStem: -194.891 96<377.088 667.88> 82.0469 96<386.175 524.438> 102 96<645.996 767.635> 673.312 96<473.189 612.255> 910.328 96<401.258 689.895>
VStem: 63.0605 96<167.996 593.791> 262.643 96<202.922 513.567> 848.939 96<315.425 726.258>
LayerCount: 2
Fore
SplineSet
63.060546875 365.232421875 m 0xbf
 63.060546875 52.6455078125 267.912109375 -194.890625 510.236328125 -194.890625 c 0
 740.557617188 -194.890625 831.502929688 -53.4033203125 849.423828125 -6.98046875 c 0
 861.481445312 24.2529296875 838.369140625 58.28125 804.626953125 58.28125 c 0
 784.21875 58.28125 766.767578125 45.5166015625 759.829101562 27.54296875 c 1
 760.1640625 28.4052734375 744.879882812 -9.1259765625 700.169921875 -43.115234375 c 0
 662.880859375 -71.462890625 604.180664062 -98.890625 510.236328125 -98.890625 c 0
 320.193359375 -98.890625 159.060546875 110.3515625 159.060546875 365.232421875 c 0
 159.060546875 676.895507812 328.966796875 910.328125 532.689453125 910.328125 c 0
 650.966796875 910.328125 736.395507812 865.185546875 789.219726562 774.977539062 c 0
 828.984375 707.07421875 848.939453125 614.333984375 848.939453125 509.25 c 0
 848.939453125 502.513671875 848.192382812 382.139648438 795.401367188 275.890625 c 0
 785.627929688 256.21875 753.633789062 198 717.298828125 198 c 0
 709.943359375 198 686.548828125 198 677.728515625 210.869140625 c 0
 673.033203125 217.71875 663.859375 239.416992188 674.501953125 297.407226562 c 2
 764.086914062 688.103515625 l 2
 770.963867188 718.099609375 748.138671875 746.859375 717.298828125 746.859375 c 0
 694.502929688 746.859375 675.399414062 730.935546875 670.509765625 709.615234375 c 0
 580.477539062 316.963867188 580.477539062 316.963867188 580.294921875 315.991210938 c 0
 565.865234375 238.416992188 575.59375 190.09375 598.486328125 156.69140625 c 0
 616.0546875 131.057617188 650.6640625 102 717.298828125 102 c 0
 872.153320312 102 944.939453125 359.767578125 944.939453125 509.25 c 0
 944.939453125 625.916015625 923.747070312 735.228515625 872.122070312 823.385742188 c 0
 827.095703125 900.276367188 731.197265625 1006.328125 532.689453125 1006.328125 c 0
 277.907226562 1006.328125 63.060546875 738.76953125 63.060546875 365.232421875 c 0xbf
545.158203125 673.3125 m 0
 594.018554688 673.3125 636.625976562 620.734375 636.625976562 575.23046875 c 0
 636.625976562 574.671875 633.298828125 547.500976562 633.298828125 547.21875 c 0
 633.298828125 520.7265625 654.806640625 499.21875 681.298828125 499.21875 c 0
 703.852539062 499.21875 722.794921875 514.807617188 727.927734375 535.790039062 c 0
 755.1796875 647.192382812 660.982421875 769.3125 545.158203125 769.3125 c 0
 388.875976562 769.3125 262.642578125 550.4140625 262.642578125 327.125 c 0
 262.642578125 177.280273438 341.512695312 82.046875 440.376953125 82.046875 c 0
 477.372070312 82.046875 614.049804688 88.0703125 673.6015625 293.819335938 c 0
 682.446289062 324.379882812 659.470703125 355.171875 627.486328125 355.171875 c 0
 605.626953125 355.171875 587.161132812 340.528320312 581.370117188 320.524414062 c 0
 568.752929688 276.930664062 544.240234375 219.201171875 499.220703125 193.060546875 c 0
 482.987304688 183.634765625 464.291015625 178.046875 440.376953125 178.046875 c 0xdf
 390.806640625 178.046875 358.642578125 246.508789062 358.642578125 327.125 c 0
 358.642578125 510.90234375 459.6171875 673.3125 545.158203125 673.3125 c 0
EndSplineSet
EndChar

StartChar: NameMe.65550
Encoding: 65550 -1 15
Width: 1008
VWidth: 4000
Flags: HW
HStem: -219.669 95.6689<559.776 680.488> 138.984 96<415.999 560.381> 266.5 85.3125<607.512 693.095> 730.672 96<439.93 590.983> 980 96<367.614 662.82>
VStem: 86 96<129.177 720.109> 305.297 96<245.561 411.956> 325.297 96<612.184 714.464> 605.297 96<268.012 314.5 643.781 717.015> 826 96<262.522 775.718>
LayerCount: 2
Fore
SplineSet
634 -124 m 0xfcc0
 626.899414062 -124 599.140625 -128.65234375 557.850585938 -128.65234375 c 0
 383.997070312 -128.65234375 302.114257812 -42.7412109375 257.864257812 35.890625 c 0
 208.583007812 123.461914062 182 249.125976562 182 408 c 0
 182 644.006835938 225.060546875 866.252929688 369.88671875 946.327148438 c 0
 409.345703125 968.143554688 456.58203125 980 514 980 c 0
 650.353515625 980 724.03125 912.145507812 766.8125 829.45703125 c 0
 806.538085938 752.674804688 826 647.87890625 826 530.015625 c 0
 826 413.069335938 816.2734375 337.153320312 802.596679688 293.0703125 c 0
 791.5 257.302734375 779.40625 245.844726562 773.248046875 242.076171875 c 0
 744.943359375 224.755859375 702 267.440429688 702 303.8125 c 0
 702 330.3046875 680.4921875 351.8125 654 351.8125 c 0
 627.5078125 351.8125 606 330.3046875 606 303.8125 c 0
 606 254.004882812 630.291992188 211.317382812 661.743164062 182.404296875 c 0
 686.860351562 159.3125 719.1796875 142.0625 756.25 142.0625 c 0
 809.477539062 142.0625 864.700195312 169.197265625 894.305664062 264.625 c 0
 912.88671875 324.516601562 922 407.998046875 922 530.015625 c 0
 922 608.674804688 918.831054688 915.196289062 700.903320312 1032.30761719 c 0
 647.663085938 1060.91894531 585.040039062 1076 514 1076 c 0
 390.53125 1076 248.536132812 1030.16601562 163.509765625 851.762695312 c 0
 109.647460938 738.748046875 86 589.911132812 86 408 c 0
 86 272.381835938 100.084960938 -60.6416015625 351.44140625 -181.419921875 c 0
 424.497070312 -216.522460938 518.631835938 -233.908203125 639.658203125 -219.668945312 c 0
 663.487304688 -216.866210938 682 -196.578125 682 -172 c 0
 682 -145.5078125 660.4921875 -124 634 -124 c 0xfcc0
653.296875 266.5 m 0
 679.7890625 266.5 701.296875 288.0078125 701.296875 314.5 c 2
 700.609375 643.883789062 l 2
 700.553710938 670.328125 679.067382812 691.78125 652.609375 691.78125 c 0
 626.1171875 691.78125 604.609375 670.2734375 604.609375 643.78125 c 2
 605.296875 314.397460938 l 2
 605.296875 287.953125 626.838867188 266.5 653.296875 266.5 c 0
513.296875 826.671875 m 0
 397.903320312 826.671875 325.296875 758.146484375 325.296875 658.671875 c 0
 325.296875 632.1796875 346.8046875 610.671875 373.296875 610.671875 c 0
 399.7890625 610.671875 421.296875 632.1796875 421.296875 658.671875 c 0xfdc0
 421.296875 694.275390625 438.212890625 708.219726562 448.232421875 714.77734375 c 0
 462.391601562 724.045898438 484.755859375 730.671875 513.296875 730.671875 c 0
 547.28125 730.671875 604.609375 719.423828125 604.609375 643.53125 c 0
 604.609375 592.0234375 560.751953125 559.614257812 476.028320312 534.20703125 c 0
 426.426757812 519.340820312 305.296875 477.013671875 305.296875 338.671875 c 0
 305.296875 222.888671875 372.930664062 138.984375 473.296875 138.984375 c 0
 579.559570312 138.984375 701.296875 231.62890625 701.296875 358.671875 c 0
 701.296875 385.1640625 679.7890625 406.671875 653.296875 406.671875 c 0
 626.8046875 406.671875 605.296875 385.1640625 605.296875 358.671875 c 0
 605.296875 286.36328125 527.5625 234.984375 473.296875 234.984375 c 0
 404.685546875 234.984375 401.296875 321.567382812 401.296875 338.671875 c 0xfec0
 401.296875 376.094726562 413.711914062 415.291992188 503.596679688 442.23046875 c 0
 589.873046875 468.104492188 700.609375 520.0078125 700.609375 643.53125 c 0
 700.609375 750.6640625 626.6953125 826.671875 513.296875 826.671875 c 0
EndSplineSet
EndChar

StartChar: NameMe.65551
Encoding: 65551 -1 16
Width: 1008
VWidth: 4000
Flags: HW
HStem: 320 96<77.5122 124 884 930.488> 640 96<77.5122 124 884 930.488>
VStem: 176 94.9922<1.51225 94.6238> 536 94.9922<1.51225 94.6238>
LayerCount: 2
Fore
SplineSet
176 48 m 4
 176 21.5078125 197.5078125 0 224 0 c 4
 247.125 0 266.453125 16.388671875 270.9921875 38.17578125 c 6
 470.9921875 998.17578125 l 6
 477.194335938 1027.94824219 454.43359375 1056 424 1056 c 4
 400.875 1056 381.546875 1039.61132812 377.0078125 1017.82421875 c 6
 177.0078125 57.82421875 l 6
 177.0078125 54.65234375 176 51.3662109375 176 48 c 4
536 48 m 4
 536 21.5078125 557.5078125 0 584 0 c 4
 607.125 0 626.453125 16.388671875 630.9921875 38.17578125 c 6
 830.9921875 998.17578125 l 6
 837.194335938 1027.94824219 814.43359375 1056 784 1056 c 4
 760.875 1056 741.546875 1039.61132812 737.0078125 1017.82421875 c 6
 537.0078125 57.82421875 l 6
 537.0078125 54.65234375 536 51.3662109375 536 48 c 4
124 736 m 6
 97.5078125 736 76 714.4921875 76 688 c 4
 76 661.5078125 97.5078125 640 124 640 c 6
 884 640 l 6
 910.4921875 640 932 661.5078125 932 688 c 4
 932 714.4921875 910.4921875 736 884 736 c 6
 124 736 l 6
124 416 m 6
 97.5078125 416 76 394.4921875 76 368 c 4
 76 341.5078125 97.5078125 320 124 320 c 6
 884 320 l 6
 910.4921875 320 932 341.5078125 932 368 c 4
 932 394.4921875 910.4921875 416 884 416 c 6
 124 416 l 6
EndSplineSet
EndChar

StartChar: NameMe.65552
Encoding: 65552 -1 18
Width: 1008
VWidth: 4000
Flags: HW
LayerCount: 2
Fore
SplineSet
224 1056 m 4
 187.0078125 1056 163.969726562 1015.64453125 182.5078125 983.865234375 c 6
 742.5078125 23.865234375 l 6
 750.831054688 9.5966796875 766.303710938 0 784 0 c 4
 820.9921875 0 844.030273438 40.35546875 825.4921875 72.134765625 c 6
 265.4921875 1032.13476562 l 6
 257.168945312 1046.40332031 241.696289062 1056 224 1056 c 4
EndSplineSet
EndChar

StartChar: degree
Encoding: 176 176 19
Width: 1008
VWidth: 4000
Flags: HW
HStem: 539.703 96<403.858 604.444> 960 96<403.858 604.444>
VStem: 246 96<697.561 898.153> 666.297 96<697.561 898.153>
LayerCount: 2
Fore
SplineSet
342 797.859375 m 0
 342 887.438476562 414.569335938 960 504.15625 960 c 0
 593.725585938 960 666.296875 887.440429688 666.296875 797.859375 c 0
 666.296875 708.275390625 593.720703125 635.703125 504.15625 635.703125 c 0
 414.573242188 635.703125 342 708.276367188 342 797.859375 c 0
246 797.859375 m 0
 246 655.317382812 361.614257812 539.703125 504.15625 539.703125 c 0
 646.685546875 539.703125 762.296875 655.318359375 762.296875 797.859375 c 0
 762.296875 940.403320312 646.680664062 1056 504.15625 1056 c 0
 361.618164062 1056 246 940.405273438 246 797.859375 c 0
EndSplineSet
EndChar

StartChar: cent
Encoding: 162 162 20
Width: 1008
VWidth: 4000
Flags: HW
HStem: -20 96<411.07 651.214> 680 96.002<392.503 609.212> 755.861 21G<636.039 669.481>
VStem: 158.805 96<232.942 539.897> 693.195 156<502.296 622.98> 750.488 95.7266<173.749 318.619>
LayerCount: 2
Fore
SplineSet
753.1953125 568 m 1029x90
530.0390625 -20 m 0
 681.959960938 -16.4248046875 832.381835938 84.32421875 846.21484375 268.421875 c 0
 847.990234375 299.887695312 823.330078125 320.0625 798.3515625 320.0625 c 0
 773.083984375 320.0625 752.350585938 300.497070312 750.48828125 275.703125 c 0xd4
 739.90234375 134.831054688 621.282226562 78.1474609375 530.0390625 76 c 0
 487.04754176 76 445.955153588 87.4303106776 409.243975227 107.837293596 c 1
 700.671118154 634.025190548 l 1
 706.071232617 630.836752099 711.437472962 627.374042923 716.562250924 623.647874411 c 1
 702.141990485 609.487328965 693.1953125 589.774896055 693.1953125 568 c 0
 693.1953125 524.953125 728.1484375 490 771.1953125 490 c 0
 814.221679688 490 849.1953125 524.931640625 849.1953125 568 c 0
 849.1953125 632.354199797 807.048460777 682.910812318 747.213484904 718.0600194 c 1
 906.020507812 1004.79492188 l 2
 923.61328125 1036.55957031 900.53515625 1076 864 1076 c 0
 845.922851562 1076 830.166015625 1065.98535156 821.979492188 1051.20507812 c 2
 658.404302301 755.860985275 l 1xb8
 613.674669791 769.152815692 566.253603619 776.001953125 522.31640625 776.001953125 c 0xd8
 314.625 775.356445312 158.8046875 607.317382812 158.8046875 385.84375 c 0
 158.8046875 267.337148591 206.773157056 156.96963327 284.821438198 81.3363695326 c 1
 101.979492188 -248.794921875 l 2
 84.38671875 -280.559570312 107.46484375 -320 144 -320 c 0
 162.077148438 -320 177.833984375 -309.985351562 186.020507812 -295.205078125 c 2
 362.515761709 23.4669080769 l 1
 412.349957524 -4.20903256072 469.066818397 -20 530.0390625 -20 c 0
333.650040751 169.499124143 m 1
 285.149441868 225.130672394 254.8046875 301.261965485 254.8046875 385.84375 c 0
 254.8046875 551.416992188 365.462890625 679.513671875 521.346679688 680 c 0
 549.529061849 680 580.549905595 676.246269216 610.400897501 669.188171052 c 1
 333.650040751 169.499124143 l 1
EndSplineSet
EndChar

StartChar: exclamdown
Encoding: 161 161 21
Width: 1008
VWidth: 4000
Flags: HW
HStem: 580 196<428.389 579.611>
VStem: 416 176<-298.488 181.909 595.447 760.553>
LayerCount: 2
Fore
SplineSet
602 678 m 4
 602 732.091796875 558.091796875 776 504 776 c 4
 449.908203125 776 406 732.091796875 406 678 c 4
 406 623.908203125 449.908203125 580 504 580 c 4
 558.091796875 580 602 623.908203125 602 678 c 4
504 476 m 4
 478.467773438 476 457.564453125 456.021484375 456.083984375 430.857421875 c 4
 416 -250.567382812 416 -250.567382812 416 -252 c 4
 416 -278.4921875 437.5078125 -300 464 -300 c 6
 544 -300 l 6
 570.4921875 -300 592 -278.4921875 592 -252 c 4
 592 -250.567382812 592 -250.567382812 551.916015625 430.857421875 c 4
 550.435546875 456.021484375 529.532226562 476 504 476 c 4
EndSplineSet
EndChar

StartChar: questiondown
Encoding: 191 191 22
Width: 1008
VWidth: 4000
Flags: HW
HStem: -319.984 96<342.648 585.897> -50.6406 156<603.423 671.896> 582 196<429.193 580.407>
VStem: 175.753 96<-160.72 20.8855> 406.8 196<604.389 755.617> 466.8 96<287.803 479.503>
LayerCount: 2
Fore
SplineSet
602.799804688 680 m 0xf8
 602.799804688 734.110351562 558.87890625 778 504.799804688 778 c 0
 450.720703125 778 406.799804688 734.110351562 406.799804688 680 c 0
 406.799804688 625.908203125 450.708007812 582 504.799804688 582 c 0
 558.891601562 582 602.799804688 625.908203125 602.799804688 680 c 0xf8
462.799804688 -223.984375 m 0
 364.991210938 -223.984375 271.752929688 -154.19140625 271.752929688 -93.796875 c 0
 271.752929688 -27.9365234375 294.217773438 17.7861328125 348.2421875 59.052734375 c 0
 436.84765625 126.731445312 562.799804688 236.134765625 562.799804688 433.015625 c 0
 562.799804688 459.5078125 541.291992188 481.015625 514.799804688 481.015625 c 0
 488.307617188 481.015625 466.799804688 459.5078125 466.799804688 433.015625 c 0xf4
 466.799804688 293.698242188 388.454101562 210.551757812 290.044921875 135.384765625 c 0
 191.782226562 60.3271484375 175.752929688 -27.9599609375 175.752929688 -93.796875 c 0
 175.752929688 -215.626953125 318.1171875 -319.984375 462.799804688 -319.984375 c 0
 656.310546875 -319.984375 846.00390625 -132.203125 737.784179688 64.3857421875 c 0
 724.591796875 88.7763671875 698.780273438 105.359375 669.127929688 105.359375 c 0
 626.079101562 105.359375 591.127929688 70.408203125 591.127929688 27.359375 c 0
 591.127929688 -15.689453125 626.079101562 -50.640625 669.127929688 -50.640625 c 0
 670.497070312 -50.640625 671.857421875 -50.60546875 673.208984375 -50.53515625 c 1
 673.216796875 -51.1142578125 673.220703125 -51.6923828125 673.220703125 -52.2685546875 c 0
 673.220703125 -147.319335938 562.270507812 -223.984375 462.799804688 -223.984375 c 0
EndSplineSet
EndChar

StartChar: Agrave
Encoding: 192 192 23
Width: 1008
VWidth: 4000
Flags: HW
HStem: 0 96<77.5122 124 324 333.849 334.151 390.488 637.512 684 884 930.488> 1122.45 171.098
VStem: 336 336<1201.2 1214.8>
LayerCount: 2
Fore
SplineSet
884 0 m 2
 910.4921875 0 932 21.5078125 932 48 c 0
 932 74.4921875 910.4921875 96 884 96 c 2
 840.739257812 96 l 1
 590.336914062 1020.56152344 l 2
 584.809570312 1040.96972656 566.146484375 1056 544 1056 c 2
 464 1056 l 2
 441.853515625 1056 423.190429688 1040.96972656 417.663085938 1020.56152344 c 2
 167.260742188 96 l 1
 124 96 l 2
 97.5078125 96 76 74.4921875 76 48 c 0
 76 21.5078125 97.5078125 0 124 0 c 2
 204 0 l 1
 324 0 l 2
 327.428710938 0 330.774414062 0.3603515625 334 1.044921875 c 0
 337.225585938 0.3603515625 340.571289062 0 344 0 c 0
 370.4921875 0 392 21.5078125 392 48 c 0
 392 74.4921875 370.4921875 96 344 96 c 0
 340.571289062 96 337.225585938 95.6396484375 334 94.955078125 c 0
 330.774414062 95.6396484375 327.428710938 96 324 96 c 2
 266.739257812 96 l 1
 325.239257812 312 l 1
 682.760742188 312 l 1
 741.260742188 96 l 1
 684 96 l 2
 657.5078125 96 636 74.4921875 636 48 c 0
 636 21.5078125 657.5078125 0 684 0 c 2
 804 0 l 1
 884 0 l 2
656.760742188 408 m 1
 351.239257812 408 l 1
 500.739257812 960 l 1
 507.260742188 960 l 1
 656.760742188 408 l 1
EndSplineSet
Refer: 79 -1 S 1 0 0 1 0 0 2
EndChar

StartChar: Aacute
Encoding: 193 193 24
Width: 1008
VWidth: 4000
Flags: HW
HStem: 0 96<77.5122 124 324 333.849 334.151 390.488 637.512 684 884 930.488>
VStem: 336 336<1201.2 1214.8>
LayerCount: 2
Fore
SplineSet
884 0 m 2
 910.4921875 0 932 21.5078125 932 48 c 0
 932 74.4921875 910.4921875 96 884 96 c 2
 840.739257812 96 l 1
 590.336914062 1020.56152344 l 2
 584.809570312 1040.96972656 566.146484375 1056 544 1056 c 2
 464 1056 l 2
 441.853515625 1056 423.190429688 1040.96972656 417.663085938 1020.56152344 c 2
 167.260742188 96 l 1
 124 96 l 2
 97.5078125 96 76 74.4921875 76 48 c 0
 76 21.5078125 97.5078125 0 124 0 c 2
 204 0 l 1
 324 0 l 2
 327.428710938 0 330.774414062 0.3603515625 334 1.044921875 c 0
 337.225585938 0.3603515625 340.571289062 0 344 0 c 0
 370.4921875 0 392 21.5078125 392 48 c 0
 392 74.4921875 370.4921875 96 344 96 c 0
 340.571289062 96 337.225585938 95.6396484375 334 94.955078125 c 0
 330.774414062 95.6396484375 327.428710938 96 324 96 c 2
 266.739257812 96 l 1
 325.239257812 312 l 1
 682.760742188 312 l 1
 741.260742188 96 l 1
 684 96 l 2
 657.5078125 96 636 74.4921875 636 48 c 0
 636 21.5078125 657.5078125 0 684 0 c 2
 804 0 l 1
 884 0 l 2
656.760742188 408 m 1
 351.239257812 408 l 1
 500.739257812 960 l 1
 507.260742188 960 l 1
 656.760742188 408 l 1
EndSplineSet
Refer: 80 -1 S 1 0 0 1 0 0 2
EndChar

StartChar: Acircumflex
Encoding: 194 194 25
Width: 1008
VWidth: 4000
Flags: HW
HStem: 0 96<77.5122 124 324 333.849 334.151 390.488 637.512 684 884 930.488>
LayerCount: 2
Fore
SplineSet
884 0 m 2
 910.4921875 0 932 21.5078125 932 48 c 0
 932 74.4921875 910.4921875 96 884 96 c 2
 840.739257812 96 l 1
 590.336914062 1020.56152344 l 2
 584.809570312 1040.96972656 566.146484375 1056 544 1056 c 2
 464 1056 l 2
 441.853515625 1056 423.190429688 1040.96972656 417.663085938 1020.56152344 c 2
 167.260742188 96 l 1
 124 96 l 2
 97.5078125 96 76 74.4921875 76 48 c 0
 76 21.5078125 97.5078125 0 124 0 c 2
 204 0 l 1
 324 0 l 2
 327.428710938 0 330.774414062 0.3603515625 334 1.044921875 c 0
 337.225585938 0.3603515625 340.571289062 0 344 0 c 0
 370.4921875 0 392 21.5078125 392 48 c 0
 392 74.4921875 370.4921875 96 344 96 c 0
 340.571289062 96 337.225585938 95.6396484375 334 94.955078125 c 0
 330.774414062 95.6396484375 327.428710938 96 324 96 c 2
 266.739257812 96 l 1
 325.239257812 312 l 1
 682.760742188 312 l 1
 741.260742188 96 l 1
 684 96 l 2
 657.5078125 96 636 74.4921875 636 48 c 0
 636 21.5078125 657.5078125 0 684 0 c 2
 804 0 l 1
 884 0 l 2
656.760742188 408 m 1
 351.239257812 408 l 1
 500.739257812 960 l 1
 507.260742188 960 l 1
 656.760742188 408 l 1
EndSplineSet
Refer: 13 -1 S 1 0 0 1 0 0 2
EndChar

StartChar: Atilde
Encoding: 195 195 26
Width: 1008
VWidth: 4000
Flags: HW
HStem: 0 96<77.5122 124 324 333.849 334.151 390.488 637.512 684 884 930.488> 1120 96<522.455 758.448> 1200 96<249.552 485.545>
LayerCount: 2
Fore
SplineSet
884 0 m 2
 910.4921875 0 932 21.5078125 932 48 c 0
 932 74.4921875 910.4921875 96 884 96 c 2
 840.739257812 96 l 1
 590.336914062 1020.56152344 l 2
 584.809570312 1040.96972656 566.146484375 1056 544 1056 c 2
 464 1056 l 2
 441.853515625 1056 423.190429688 1040.96972656 417.663085938 1020.56152344 c 2
 167.260742188 96 l 1
 124 96 l 2
 97.5078125 96 76 74.4921875 76 48 c 0
 76 21.5078125 97.5078125 0 124 0 c 2
 204 0 l 1
 324 0 l 2
 327.428710938 0 330.774414062 0.3603515625 334 1.044921875 c 0
 337.225585938 0.3603515625 340.571289062 0 344 0 c 0
 370.4921875 0 392 21.5078125 392 48 c 0
 392 74.4921875 370.4921875 96 344 96 c 0
 340.571289062 96 337.225585938 95.6396484375 334 94.955078125 c 0
 330.774414062 95.6396484375 327.428710938 96 324 96 c 2
 266.739257812 96 l 1
 325.239257812 312 l 1
 682.760742188 312 l 1
 741.260742188 96 l 1
 684 96 l 2
 657.5078125 96 636 74.4921875 636 48 c 0
 636 21.5078125 657.5078125 0 684 0 c 2
 804 0 l 1
 884 0 l 2
656.760742188 408 m 1
 351.239257812 408 l 1
 500.739257812 960 l 1
 507.260742188 960 l 1
 656.760742188 408 l 1
EndSplineSet
Refer: 4 -1 S 1 0 0 1 0 0 2
EndChar

StartChar: Adieresis
Encoding: 196 196 27
Width: 1008
VWidth: 4000
Flags: HW
HStem: 0 96<77.5122 124 324 333.849 334.151 390.488 637.512 684 884 930.488> 1120 176<193.491 334.509 673.491 814.509>
VStem: 176 176<1137.49 1278.51> 656 176<1137.49 1278.51>
LayerCount: 2
Fore
SplineSet
884 0 m 2
 910.4921875 0 932 21.5078125 932 48 c 0
 932 74.4921875 910.4921875 96 884 96 c 2
 840.739257812 96 l 1
 590.336914062 1020.56152344 l 2
 584.809570312 1040.96972656 566.146484375 1056 544 1056 c 2
 464 1056 l 2
 441.853515625 1056 423.190429688 1040.96972656 417.663085938 1020.56152344 c 2
 167.260742188 96 l 1
 124 96 l 2
 97.5078125 96 76 74.4921875 76 48 c 0
 76 21.5078125 97.5078125 0 124 0 c 2
 204 0 l 1
 324 0 l 2
 327.428710938 0 330.774414062 0.3603515625 334 1.044921875 c 0
 337.225585938 0.3603515625 340.571289062 0 344 0 c 0
 370.4921875 0 392 21.5078125 392 48 c 0
 392 74.4921875 370.4921875 96 344 96 c 0
 340.571289062 96 337.225585938 95.6396484375 334 94.955078125 c 0
 330.774414062 95.6396484375 327.428710938 96 324 96 c 2
 266.739257812 96 l 1
 325.239257812 312 l 1
 682.760742188 312 l 1
 741.260742188 96 l 1
 684 96 l 2
 657.5078125 96 636 74.4921875 636 48 c 0
 636 21.5078125 657.5078125 0 684 0 c 2
 804 0 l 1
 884 0 l 2
656.760742188 408 m 1
 351.239257812 408 l 1
 500.739257812 960 l 1
 507.260742188 960 l 1
 656.760742188 408 l 1
EndSplineSet
Refer: 6 -1 S 1 0 0 1 0 0 2
EndChar

StartChar: Aring
Encoding: 197 197 28
Width: 1008
VWidth: 4000
Flags: HW
HStem: 0 96<77.5122 124 324 333.849 334.151 390.488 637.512 684 884 930.488> 1080 96<472.015 535.985> 1240 96<472.015 535.985>
VStem: 376 96<1176.02 1239.98> 536 96<1176.02 1239.98>
LayerCount: 2
Fore
SplineSet
884 0 m 2
 910.4921875 0 932 21.5078125 932 48 c 0
 932 74.4921875 910.4921875 96 884 96 c 2
 840.739257812 96 l 1
 590.336914062 1020.56152344 l 2
 584.809570312 1040.96972656 566.146484375 1056 544 1056 c 2
 464 1056 l 2
 441.853515625 1056 423.190429688 1040.96972656 417.663085938 1020.56152344 c 2
 167.260742188 96 l 1
 124 96 l 2
 97.5078125 96 76 74.4921875 76 48 c 0
 76 21.5078125 97.5078125 0 124 0 c 2
 204 0 l 1
 324 0 l 2
 327.428710938 0 330.774414062 0.3603515625 334 1.044921875 c 0
 337.225585938 0.3603515625 340.571289062 0 344 0 c 0
 370.4921875 0 392 21.5078125 392 48 c 0
 392 74.4921875 370.4921875 96 344 96 c 0
 340.571289062 96 337.225585938 95.6396484375 334 94.955078125 c 0
 330.774414062 95.6396484375 327.428710938 96 324 96 c 2
 266.739257812 96 l 1
 325.239257812 312 l 1
 682.760742188 312 l 1
 741.260742188 96 l 1
 684 96 l 2
 657.5078125 96 636 74.4921875 636 48 c 0
 636 21.5078125 657.5078125 0 684 0 c 2
 804 0 l 1
 884 0 l 2
656.760742188 408 m 1
 351.239257812 408 l 1
 500.739257812 960 l 1
 507.260742188 960 l 1
 656.760742188 408 l 1
EndSplineSet
Refer: 112 -1 N 1 0 0 1 0 64 2
EndChar

StartChar: Ccedilla
Encoding: 199 199 29
Width: 1008
VWidth: 4000
Flags: HW
HStem: -300 96<354.708 550.172> -20 96<421.541 641.868> 980 96<390.365 622.487>
VStem: 145.983 96<313.492 772.834> 765.983 96<1008 1054.49>
LayerCount: 2
Fore
SplineSet
861.983398438 1008 m 6
 861.983398438 1034.4921875 840.475585938 1056 813.983398438 1056 c 4
 787.491210938 1056 765.983398438 1034.4921875 765.983398438 1008 c 6
 765.983398438 938.98828125 l 5
 745.329101562 965.8359375 721.704101562 989.965820312 694.838867188 1010.25976562 c 4
 641.470703125 1050.57519531 574.061523438 1076 493.983398438 1076 c 4
 282.74609375 1076 145.983398438 843.873046875 145.983398438 528 c 4
 145.983398438 222.09375 312.311523438 -20 533.983398438 -20 c 4
 712.641601562 -20 804.943359375 130.602539062 858.80859375 270.809570312 c 4
 870.803710938 302.033203125 847.692382812 336 813.983398438 336 c 4
 793.547851562 336 776.078125 323.202148438 769.158203125 305.190429688 c 4
 717.0859375 169.647460938 647.168945312 76 533.983398438 76 c 4
 367.041015625 76 241.983398438 280.879882812 241.983398438 528 c 4
 241.983398438 625.420898438 256.735351562 715.338867188 283.268554688 788.180664062 c 4
 310.42578125 862.735351562 372.45703125 980 493.983398438 980 c 4
 545.569335938 980 640.694335938 967.875 714.15234375 844.57421875 c 4
 737.819335938 804.850585938 755.475585938 759.548828125 767.676757812 715.329101562 c 4
 773.240234375 694.9765625 791.875976562 680 813.983398438 680 c 4
 824.953125 680 834.874023438 683.625976562 842.811523438 689.62890625 c 4
 851.513671875 696.178710938 857.918945312 705.618164062 860.598632812 716.516601562 c 4
 861.639648438 720.69140625 862.125976562 725.048828125 861.983398438 729.4921875 c 6
 861.983398438 1008 l 6
EndSplineSet
Refer: 0 184 S 1 0 0 1 0 0 2
EndChar

StartChar: Egrave
Encoding: 200 200 30
Width: 1008
VWidth: 4000
Flags: HW
HStem: 0 96<97.5122 144> 960 96<97.5122 144> 1122.45 171.098
VStem: 336 336<1201.2 1214.8> 516 96<361.512 408 668 714.488> 796 96<729.512 776> 816 96<288 334.488>
LayerCount: 2
Fore
SplineSet
612 668 m 2xe8
 612 694.4921875 590.4921875 716 564 716 c 0
 537.5078125 716 516 694.4921875 516 668 c 2
 516 596 l 1
 272 596 l 1
 272 960 l 1
 796 960 l 1
 796 776 l 2
 796 749.5078125 817.5078125 728 844 728 c 0
 870.4921875 728 892 749.5078125 892 776 c 2
 892 1008 l 2xf0
 892 1034.4921875 870.4921875 1056 844 1056 c 2
 144 1056 l 2
 117.5078125 1056 96 1034.4921875 96 1008 c 0
 96 981.5078125 117.5078125 960 144 960 c 2
 176 960 l 1
 176 96 l 1
 144 96 l 2
 117.5078125 96 96 74.4921875 96 48 c 0
 96 21.5078125 117.5078125 0 144 0 c 2
 864 0 l 2
 890.4921875 0 912 21.5078125 912 48 c 2
 912 288 l 2
 912 314.4921875 890.4921875 336 864 336 c 0
 837.5078125 336 816 314.4921875 816 288 c 2
 816 96 l 1
 272 96 l 1
 272 500 l 1
 516 500 l 1
 516 408 l 2
 516 381.5078125 537.5078125 360 564 360 c 0
 590.4921875 360 612 381.5078125 612 408 c 2
 612 548 l 1
 612 668 l 2xe8
EndSplineSet
Refer: 79 -1 S 1 0 0 1 0 0 2
EndChar

StartChar: Eacute
Encoding: 201 201 31
Width: 1008
VWidth: 4000
Flags: HW
HStem: 0 96<97.5122 144> 960 96<97.5122 144>
VStem: 336 336<1201.2 1214.8> 516 96<361.512 408 668 714.488> 796 96<729.512 776> 816 96<288 334.488>
LayerCount: 2
Fore
SplineSet
612 668 m 2xe8
 612 694.4921875 590.4921875 716 564 716 c 0
 537.5078125 716 516 694.4921875 516 668 c 2
 516 596 l 1
 272 596 l 1
 272 960 l 1
 796 960 l 1
 796 776 l 2
 796 749.5078125 817.5078125 728 844 728 c 0
 870.4921875 728 892 749.5078125 892 776 c 2
 892 1008 l 2xf0
 892 1034.4921875 870.4921875 1056 844 1056 c 2
 144 1056 l 2
 117.5078125 1056 96 1034.4921875 96 1008 c 0
 96 981.5078125 117.5078125 960 144 960 c 2
 176 960 l 1
 176 96 l 1
 144 96 l 2
 117.5078125 96 96 74.4921875 96 48 c 0
 96 21.5078125 117.5078125 0 144 0 c 2
 864 0 l 2
 890.4921875 0 912 21.5078125 912 48 c 2
 912 288 l 2
 912 314.4921875 890.4921875 336 864 336 c 0
 837.5078125 336 816 314.4921875 816 288 c 2
 816 96 l 1
 272 96 l 1
 272 500 l 1
 516 500 l 1
 516 408 l 2
 516 381.5078125 537.5078125 360 564 360 c 0
 590.4921875 360 612 381.5078125 612 408 c 2
 612 548 l 1
 612 668 l 2xe8
EndSplineSet
Refer: 80 -1 S 1 0 0 1 0 0 2
EndChar

StartChar: Ecircumflex
Encoding: 202 202 32
Width: 1008
VWidth: 4000
Flags: HW
HStem: 0 96<97.5122 144> 960 96<97.5122 144>
VStem: 516 96<361.512 408 668 714.488> 796 96<729.512 776> 816 96<288 334.488>
LayerCount: 2
Fore
SplineSet
612 668 m 2xe8
 612 694.4921875 590.4921875 716 564 716 c 0
 537.5078125 716 516 694.4921875 516 668 c 2
 516 596 l 1
 272 596 l 1
 272 960 l 1
 796 960 l 1
 796 776 l 2
 796 749.5078125 817.5078125 728 844 728 c 0
 870.4921875 728 892 749.5078125 892 776 c 2
 892 1008 l 2xf0
 892 1034.4921875 870.4921875 1056 844 1056 c 2
 144 1056 l 2
 117.5078125 1056 96 1034.4921875 96 1008 c 0
 96 981.5078125 117.5078125 960 144 960 c 2
 176 960 l 1
 176 96 l 1
 144 96 l 2
 117.5078125 96 96 74.4921875 96 48 c 0
 96 21.5078125 117.5078125 0 144 0 c 2
 864 0 l 2
 890.4921875 0 912 21.5078125 912 48 c 2
 912 288 l 2
 912 314.4921875 890.4921875 336 864 336 c 0
 837.5078125 336 816 314.4921875 816 288 c 2
 816 96 l 1
 272 96 l 1
 272 500 l 1
 516 500 l 1
 516 408 l 2
 516 381.5078125 537.5078125 360 564 360 c 0
 590.4921875 360 612 381.5078125 612 408 c 2
 612 548 l 1
 612 668 l 2xe8
EndSplineSet
Refer: 13 -1 S 1 0 0 1 0 0 2
EndChar

StartChar: Edieresis
Encoding: 203 203 33
Width: 1008
VWidth: 4000
Flags: HW
HStem: 0 96<97.5122 144> 960 96<97.5122 144> 1120 176<193.491 334.509 673.491 814.509>
VStem: 176 176<1137.49 1278.51> 516 96<361.512 408 668 714.488> 656 176<1137.49 1278.51> 796 96<729.512 776> 816 96<288 334.488>
LayerCount: 2
Fore
SplineSet
612 668 m 2xe8
 612 694.4921875 590.4921875 716 564 716 c 0
 537.5078125 716 516 694.4921875 516 668 c 2
 516 596 l 1
 272 596 l 1
 272 960 l 1
 796 960 l 1
 796 776 l 2
 796 749.5078125 817.5078125 728 844 728 c 0
 870.4921875 728 892 749.5078125 892 776 c 2
 892 1008 l 2xf0
 892 1034.4921875 870.4921875 1056 844 1056 c 2
 144 1056 l 2
 117.5078125 1056 96 1034.4921875 96 1008 c 0
 96 981.5078125 117.5078125 960 144 960 c 2
 176 960 l 1
 176 96 l 1
 144 96 l 2
 117.5078125 96 96 74.4921875 96 48 c 0
 96 21.5078125 117.5078125 0 144 0 c 2
 864 0 l 2
 890.4921875 0 912 21.5078125 912 48 c 2
 912 288 l 2
 912 314.4921875 890.4921875 336 864 336 c 0
 837.5078125 336 816 314.4921875 816 288 c 2
 816 96 l 1
 272 96 l 1
 272 500 l 1
 516 500 l 1
 516 408 l 2
 516 381.5078125 537.5078125 360 564 360 c 0
 590.4921875 360 612 381.5078125 612 408 c 2
 612 548 l 1
 612 668 l 2xe8
EndSplineSet
Refer: 6 -1 S 1 0 0 1 0 0 2
EndChar

StartChar: Igrave
Encoding: 204 204 34
Width: 1008
VWidth: 4000
Flags: HW
HStem: 0 96<177.512 224 784 830.488> 960 96<177.512 224 784 830.488> 1122.45 171.098
VStem: 336 336<1201.2 1214.8>
LayerCount: 2
Fore
SplineSet
224 1056 m 2
 197.5078125 1056 176 1034.4921875 176 1008 c 0
 176 981.5078125 197.5078125 960 224 960 c 2
 456 960 l 1
 456 96 l 1
 224 96 l 2
 197.5078125 96 176 74.4921875 176 48 c 0
 176 21.5078125 197.5078125 0 224 0 c 2
 504 0 l 1
 784 0 l 2
 810.4921875 0 832 21.5078125 832 48 c 0
 832 74.4921875 810.4921875 96 784 96 c 2
 552 96 l 1
 552 960 l 1
 784 960 l 2
 810.4921875 960 832 981.5078125 832 1008 c 0
 832 1034.4921875 810.4921875 1056 784 1056 c 2
 504 1056 l 1
 224 1056 l 2
EndSplineSet
Refer: 79 -1 S 1 0 0 1 0 0 2
EndChar

StartChar: Iacute
Encoding: 205 205 35
Width: 1008
VWidth: 4000
Flags: HW
HStem: 0 96<177.512 224 784 830.488> 960 96<177.512 224 784 830.488>
VStem: 336 336<1201.2 1214.8>
LayerCount: 2
Fore
SplineSet
224 1056 m 2
 197.5078125 1056 176 1034.4921875 176 1008 c 0
 176 981.5078125 197.5078125 960 224 960 c 2
 456 960 l 1
 456 96 l 1
 224 96 l 2
 197.5078125 96 176 74.4921875 176 48 c 0
 176 21.5078125 197.5078125 0 224 0 c 2
 504 0 l 1
 784 0 l 2
 810.4921875 0 832 21.5078125 832 48 c 0
 832 74.4921875 810.4921875 96 784 96 c 2
 552 96 l 1
 552 960 l 1
 784 960 l 2
 810.4921875 960 832 981.5078125 832 1008 c 0
 832 1034.4921875 810.4921875 1056 784 1056 c 2
 504 1056 l 1
 224 1056 l 2
EndSplineSet
Refer: 80 -1 S 1 0 0 1 0 0 2
EndChar

StartChar: Icircumflex
Encoding: 206 206 36
Width: 1008
VWidth: 4000
Flags: HW
HStem: 0 96<177.512 224 784 830.488> 960 96<177.512 224 784 830.488>
LayerCount: 2
Fore
SplineSet
224 1056 m 2
 197.5078125 1056 176 1034.4921875 176 1008 c 0
 176 981.5078125 197.5078125 960 224 960 c 2
 456 960 l 1
 456 96 l 1
 224 96 l 2
 197.5078125 96 176 74.4921875 176 48 c 0
 176 21.5078125 197.5078125 0 224 0 c 2
 504 0 l 1
 784 0 l 2
 810.4921875 0 832 21.5078125 832 48 c 0
 832 74.4921875 810.4921875 96 784 96 c 2
 552 96 l 1
 552 960 l 1
 784 960 l 2
 810.4921875 960 832 981.5078125 832 1008 c 0
 832 1034.4921875 810.4921875 1056 784 1056 c 2
 504 1056 l 1
 224 1056 l 2
EndSplineSet
Refer: 13 -1 S 1 0 0 1 0 0 2
EndChar

StartChar: Idieresis
Encoding: 207 207 37
Width: 1008
VWidth: 4000
Flags: HW
HStem: 0 96<177.512 224 784 830.488> 960 96<177.512 224 784 830.488> 1120 176<193.491 334.509 673.491 814.509>
VStem: 176 176<1137.49 1278.51> 656 176<1137.49 1278.51>
LayerCount: 2
Fore
SplineSet
224 1056 m 2
 197.5078125 1056 176 1034.4921875 176 1008 c 0
 176 981.5078125 197.5078125 960 224 960 c 2
 456 960 l 1
 456 96 l 1
 224 96 l 2
 197.5078125 96 176 74.4921875 176 48 c 0
 176 21.5078125 197.5078125 0 224 0 c 2
 504 0 l 1
 784 0 l 2
 810.4921875 0 832 21.5078125 832 48 c 0
 832 74.4921875 810.4921875 96 784 96 c 2
 552 96 l 1
 552 960 l 1
 784 960 l 2
 810.4921875 960 832 981.5078125 832 1008 c 0
 832 1034.4921875 810.4921875 1056 784 1056 c 2
 504 1056 l 1
 224 1056 l 2
EndSplineSet
Refer: 6 -1 S 1 0 0 1 0 0 2
EndChar

StartChar: Eth
Encoding: 208 208 38
Width: 1008
VWidth: 4000
Flags: HW
HStem: 330 96<137.512 184 824 870.488>
LayerCount: 2
Fore
SplineSet
454 480 m 6
 480.4921875 480 502 501.5078125 502 528 c 4
 502 554.4921875 480.4921875 576 454 576 c 6
 282 576 l 1
 282 960 l 1
 439.6875 960 l 2
 599.262695312 960 698.059570312 901.026367188 756.009765625 811.270507812 c 0
 803.159179688 738.244140625 826 639.565429688 826 528 c 0
 826 345.954101562 766.495117188 96 439.6875 96 c 2
 282 96 l 1
 282 480 l 1
 454 480 l 6
134 1056 m 2
 107.5078125 1056 86 1034.4921875 86 1008 c 0
 86 981.5078125 107.5078125 960 134 960 c 2
 186 960 l 1
 186 576 l 1
 134 576 l 2
 107.5078125 576 86 554.4921875 86 528 c 0
 86 501.5078125 107.5078125 480 134 480 c 2
 186 480 l 1
 186 96 l 1
 134 96 l 2
 107.5078125 96 86 74.4921875 86 48 c 0
 86 21.5078125 107.5078125 0 134 0 c 2
 439.6875 0 l 2
 759.880859375 0 922 210.677734375 922 528 c 0
 922 652.073242188 897.43359375 769.206054688 836.719726562 863.2421875 c 0
 775.948242188 957.368164062 659.756835938 1056 439.6875 1056 c 2
 134 1056 l 2
EndSplineSet
EndChar

StartChar: Ntilde
Encoding: 209 209 39
Width: 1008
VWidth: 4000
Flags: HW
HStem: 0 96<77.5122 124 324 370.488> 960 96<77.5122 124 637.512 684 884 930.488> 1120 96<522.455 758.448> 1200 96<249.552 485.545>
LayerCount: 2
Fore
SplineSet
684 1056 m 2
 657.5078125 1056 636 1034.4921875 636 1008 c 0
 636 981.5078125 657.5078125 960 684 960 c 2
 736 960 l 1
 736 225.548828125 l 1
 265.4921875 1032.13476562 l 2
 257.168945312 1046.40332031 241.696289062 1056 224 1056 c 2
 124 1056 l 2
 97.5078125 1056 76 1034.4921875 76 1008 c 0
 76 981.5078125 97.5078125 960 124 960 c 2
 176 960 l 1
 176 96 l 1
 124 96 l 2
 97.5078125 96 76 74.4921875 76 48 c 0
 76 21.5078125 97.5078125 0 124 0 c 2
 324 0 l 2
 350.4921875 0 372 21.5078125 372 48 c 0
 372 74.4921875 350.4921875 96 324 96 c 2
 272 96 l 1
 272 830.451171875 l 1
 742.5078125 23.865234375 l 2
 750.831054688 9.5966796875 766.303710938 0 784 0 c 0
 810.4921875 0 832 21.5078125 832 48 c 2
 832 960 l 1
 884 960 l 2
 910.4921875 960 932 981.5078125 932 1008 c 0
 932 1034.4921875 910.4921875 1056 884 1056 c 2
 784 1056 l 1
 684 1056 l 2
EndSplineSet
Refer: 4 -1 S 1 0 0 1 0 0 2
EndChar

StartChar: Ograve
Encoding: 210 210 40
Width: 1008
VWidth: 4000
Flags: HW
HStem: -20 96<401.127 606.871> 980 96<401.129 606.873> 1122.45 171.098
VStem: 136 96<308.522 747.482> 336 336<1201.2 1214.8> 776 96<308.518 747.478>
CounterMasks: 1 1c
LayerCount: 2
Fore
SplineSet
504 1076 m 4
 298.434570312 1076 136 831.864257812 136 528 c 4
 136 224.15625 298.420898438 -20 504 -20 c 4
 709.565429688 -20 872 224.135742188 872 528 c 4
 872 831.84375 709.579101562 1076 504 1076 c 4
504 76 m 4
 357.80859375 76 232 278.004882812 232 528 c 4
 232 777.991210938 357.806640625 980 504 980 c 4
 650.19140625 980 776 777.995117188 776 528 c 4
 776 278.008789062 650.193359375 76 504 76 c 4
EndSplineSet
Refer: 79 -1 S 1 0 0 1 0 0 2
EndChar

StartChar: Oacute
Encoding: 211 211 41
Width: 1008
VWidth: 4000
Flags: HW
HStem: -20 96<401.127 606.871> 980 96<401.129 606.873>
VStem: 136 96<308.522 747.482> 336 336<1201.2 1214.8> 776 96<308.518 747.478>
CounterMasks: 1 38
LayerCount: 2
Fore
SplineSet
504 1076 m 4
 298.434570312 1076 136 831.864257812 136 528 c 4
 136 224.15625 298.420898438 -20 504 -20 c 4
 709.565429688 -20 872 224.135742188 872 528 c 4
 872 831.84375 709.579101562 1076 504 1076 c 4
504 76 m 4
 357.80859375 76 232 278.004882812 232 528 c 4
 232 777.991210938 357.806640625 980 504 980 c 4
 650.19140625 980 776 777.995117188 776 528 c 4
 776 278.008789062 650.193359375 76 504 76 c 4
EndSplineSet
Refer: 80 -1 S 1 0 0 1 0 0 2
EndChar

StartChar: Ocircumflex
Encoding: 212 212 42
Width: 1008
VWidth: 4000
Flags: HW
HStem: -20 96<401.127 606.871> 980 96<401.129 606.873>
VStem: 136 96<308.522 747.482> 776 96<308.518 747.478>
LayerCount: 2
Fore
SplineSet
504 1076 m 4
 298.434570312 1076 136 831.864257812 136 528 c 4
 136 224.15625 298.420898438 -20 504 -20 c 4
 709.565429688 -20 872 224.135742188 872 528 c 4
 872 831.84375 709.579101562 1076 504 1076 c 4
504 76 m 4
 357.80859375 76 232 278.004882812 232 528 c 4
 232 777.991210938 357.806640625 980 504 980 c 4
 650.19140625 980 776 777.995117188 776 528 c 4
 776 278.008789062 650.193359375 76 504 76 c 4
EndSplineSet
Refer: 13 -1 S 1 0 0 1 0 0 2
EndChar

StartChar: Otilde
Encoding: 213 213 43
Width: 1008
VWidth: 4000
Flags: HW
HStem: -20 96<401.127 606.871> 980 96<401.129 606.873> 1120 96<522.455 758.448> 1200 96<249.552 485.545>
VStem: 136 96<308.522 747.482> 776 96<308.518 747.478>
LayerCount: 2
Fore
SplineSet
504 1076 m 4
 298.434570312 1076 136 831.864257812 136 528 c 4
 136 224.15625 298.420898438 -20 504 -20 c 4
 709.565429688 -20 872 224.135742188 872 528 c 4
 872 831.84375 709.579101562 1076 504 1076 c 4
504 76 m 4
 357.80859375 76 232 278.004882812 232 528 c 4
 232 777.991210938 357.806640625 980 504 980 c 4
 650.19140625 980 776 777.995117188 776 528 c 4
 776 278.008789062 650.193359375 76 504 76 c 4
EndSplineSet
Refer: 4 -1 S 1 0 0 1 0 0 2
EndChar

StartChar: Odieresis
Encoding: 214 214 44
Width: 1008
VWidth: 4000
Flags: HW
HStem: -20 96<401.127 606.871> 980 96<401.129 606.873> 1120 176<193.491 334.509 673.491 814.509>
VStem: 136 96<308.522 747.482> 176 176<1137.49 1278.51> 656 176<1137.49 1278.51> 776 96<308.518 747.478>
LayerCount: 2
Fore
SplineSet
504 1076 m 4
 298.434570312 1076 136 831.864257812 136 528 c 4
 136 224.15625 298.420898438 -20 504 -20 c 4
 709.565429688 -20 872 224.135742188 872 528 c 4
 872 831.84375 709.579101562 1076 504 1076 c 4
504 76 m 4
 357.80859375 76 232 278.004882812 232 528 c 4
 232 777.991210938 357.806640625 980 504 980 c 4
 650.19140625 980 776 777.995117188 776 528 c 4
 776 278.008789062 650.193359375 76 504 76 c 4
EndSplineSet
Refer: 6 -1 S 1 0 0 1 0 0 2
EndChar

StartChar: Oslash
Encoding: 216 216 45
Width: 1008
VWidth: 4000
Flags: HW
HStem: -20 96<401.127 606.871> 980 96<401.129 606.873>
VStem: 136 96<308.522 747.482> 776 96<308.518 747.478>
LayerCount: 2
Fore
SplineSet
504 1076 m 4
 298.434570312 1076 136 831.864257812 136 528 c 4
 136 224.15625 298.420898438 -20 504 -20 c 4
 709.565429688 -20 872 224.135742188 872 528 c 4
 872 831.84375 709.579101562 1076 504 1076 c 4
504 76 m 4
 357.80859375 76 232 278.004882812 232 528 c 4
 232 777.991210938 357.806640625 980 504 980 c 4
 650.19140625 980 776 777.995117188 776 528 c 4
 776 278.008789062 650.193359375 76 504 76 c 4
EndSplineSet
Refer: 3 -1 S 1 0 0 1 0 150 2
EndChar

StartChar: Ugrave
Encoding: 217 217 46
Width: 1008
VWidth: 4000
Flags: HW
HStem: -19.8125 96<379.273 628.664> 960 96<57.5122 104 324 370.488 637.512 684 904 950.488> 1122.45 171.098
VStem: 166 96<194.181 318> 336 336<1201.2 1214.8> 746 96<193.914 318>
CounterMasks: 1 1c
LayerCount: 2
Fore
SplineSet
684 1056 m 2
 657.5078125 1056 636 1034.4921875 636 1008 c 0
 636 981.5078125 657.5078125 960 684 960 c 2
 746 960 l 1
 746 318 l 2
 746 183.65234375 637.198242188 76.1875 504.3125 76.1875 c 0
 370.307617188 76.1875 262 183.942382812 262 318 c 2
 262 960 l 1
 324 960 l 2
 350.4921875 960 372 981.5078125 372 1008 c 0
 372 1034.4921875 350.4921875 1056 324 1056 c 2
 214 1056 l 1
 104 1056 l 2
 77.5078125 1056 56 1034.4921875 56 1008 c 0
 56 981.5078125 77.5078125 960 104 960 c 2
 166 960 l 1
 166 318 l 2
 166 131.548828125 316.736328125 -19.8125 504.3125 -19.8125 c 0
 690.379882812 -19.8125 842 130.901367188 842 318 c 2
 842 960 l 1
 904 960 l 2
 930.4921875 960 952 981.5078125 952 1008 c 0
 952 1034.4921875 930.4921875 1056 904 1056 c 2
 794 1056 l 1
 684 1056 l 2
EndSplineSet
Refer: 79 -1 S 1 0 0 1 0 0 2
EndChar

StartChar: Uacute
Encoding: 218 218 47
Width: 1008
VWidth: 4000
Flags: HW
HStem: -19.8125 96<379.273 628.664> 960 96<57.5122 104 324 370.488 637.512 684 904 950.488>
VStem: 166 96<194.181 318> 336 336<1201.2 1214.8> 746 96<193.914 318>
CounterMasks: 1 38
LayerCount: 2
Fore
SplineSet
684 1056 m 2
 657.5078125 1056 636 1034.4921875 636 1008 c 0
 636 981.5078125 657.5078125 960 684 960 c 2
 746 960 l 1
 746 318 l 2
 746 183.65234375 637.198242188 76.1875 504.3125 76.1875 c 0
 370.307617188 76.1875 262 183.942382812 262 318 c 2
 262 960 l 1
 324 960 l 2
 350.4921875 960 372 981.5078125 372 1008 c 0
 372 1034.4921875 350.4921875 1056 324 1056 c 2
 214 1056 l 1
 104 1056 l 2
 77.5078125 1056 56 1034.4921875 56 1008 c 0
 56 981.5078125 77.5078125 960 104 960 c 2
 166 960 l 1
 166 318 l 2
 166 131.548828125 316.736328125 -19.8125 504.3125 -19.8125 c 0
 690.379882812 -19.8125 842 130.901367188 842 318 c 2
 842 960 l 1
 904 960 l 2
 930.4921875 960 952 981.5078125 952 1008 c 0
 952 1034.4921875 930.4921875 1056 904 1056 c 2
 794 1056 l 1
 684 1056 l 2
EndSplineSet
Refer: 80 -1 S 1 0 0 1 0 0 2
EndChar

StartChar: Ucircumflex
Encoding: 219 219 48
Width: 1008
VWidth: 4000
Flags: HW
HStem: -19.8125 96<379.273 628.664> 960 96<57.5122 104 324 370.488 637.512 684 904 950.488>
VStem: 166 96<194.181 318> 746 96<193.914 318>
LayerCount: 2
Fore
SplineSet
684 1056 m 2
 657.5078125 1056 636 1034.4921875 636 1008 c 0
 636 981.5078125 657.5078125 960 684 960 c 2
 746 960 l 1
 746 318 l 2
 746 183.65234375 637.198242188 76.1875 504.3125 76.1875 c 0
 370.307617188 76.1875 262 183.942382812 262 318 c 2
 262 960 l 1
 324 960 l 2
 350.4921875 960 372 981.5078125 372 1008 c 0
 372 1034.4921875 350.4921875 1056 324 1056 c 2
 214 1056 l 1
 104 1056 l 2
 77.5078125 1056 56 1034.4921875 56 1008 c 0
 56 981.5078125 77.5078125 960 104 960 c 2
 166 960 l 1
 166 318 l 2
 166 131.548828125 316.736328125 -19.8125 504.3125 -19.8125 c 0
 690.379882812 -19.8125 842 130.901367188 842 318 c 2
 842 960 l 1
 904 960 l 2
 930.4921875 960 952 981.5078125 952 1008 c 0
 952 1034.4921875 930.4921875 1056 904 1056 c 2
 794 1056 l 1
 684 1056 l 2
EndSplineSet
Refer: 13 -1 S 1 0 0 1 0 0 2
EndChar

StartChar: Udieresis
Encoding: 220 220 49
Width: 1008
VWidth: 4000
Flags: HW
HStem: -19.8125 96<379.273 628.664> 960 96<57.5122 104 324 370.488 637.512 684 904 950.488> 1120 176<193.491 334.509 673.491 814.509>
VStem: 166 96<194.181 318> 176 176<1137.49 1278.51> 656 176<1137.49 1278.51> 746 96<193.914 318>
LayerCount: 2
Fore
SplineSet
684 1056 m 2
 657.5078125 1056 636 1034.4921875 636 1008 c 0
 636 981.5078125 657.5078125 960 684 960 c 2
 746 960 l 1
 746 318 l 2
 746 183.65234375 637.198242188 76.1875 504.3125 76.1875 c 0
 370.307617188 76.1875 262 183.942382812 262 318 c 2
 262 960 l 1
 324 960 l 2
 350.4921875 960 372 981.5078125 372 1008 c 0
 372 1034.4921875 350.4921875 1056 324 1056 c 2
 214 1056 l 1
 104 1056 l 2
 77.5078125 1056 56 1034.4921875 56 1008 c 0
 56 981.5078125 77.5078125 960 104 960 c 2
 166 960 l 1
 166 318 l 2
 166 131.548828125 316.736328125 -19.8125 504.3125 -19.8125 c 0
 690.379882812 -19.8125 842 130.901367188 842 318 c 2
 842 960 l 1
 904 960 l 2
 930.4921875 960 952 981.5078125 952 1008 c 0
 952 1034.4921875 930.4921875 1056 904 1056 c 2
 794 1056 l 1
 684 1056 l 2
EndSplineSet
Refer: 6 -1 S 1 0 0 1 0 0 2
EndChar

StartChar: Yacute
Encoding: 221 221 50
Width: 1008
VWidth: 4000
Flags: HW
HStem: 0 96<297.512 344 664 710.488> 960 96<57.5122 104 344 390.488 617.512 664 904 950.488>
VStem: 336 336<1201.2 1214.8>
LayerCount: 2
Fore
SplineSet
664 1056 m 2
 637.5078125 1056 616 1034.4921875 616 1008 c 0
 616 981.5078125 637.5078125 960 664 960 c 2
 723.829101562 960 l 1
 504 549.65234375 l 1
 284.170898438 960 l 1
 344 960 l 2
 370.4921875 960 392 981.5078125 392 1008 c 0
 392 1034.4921875 370.4921875 1056 344 1056 c 2
 204 1056 l 1
 104 1056 l 2
 77.5078125 1056 56 1034.4921875 56 1008 c 0
 56 981.5078125 77.5078125 960 104 960 c 2
 175.256835938 960 l 1
 456 435.946289062 l 1
 456 96 l 1
 344 96 l 2
 317.5078125 96 296 74.4921875 296 48 c 0
 296 21.5078125 317.5078125 0 344 0 c 2
 504 0 l 1
 664 0 l 2
 690.4921875 0 712 21.5078125 712 48 c 0
 712 74.4921875 690.4921875 96 664 96 c 2
 552 96 l 1
 552 435.946289062 l 1
 832.743164062 960 l 1
 904 960 l 2
 930.4921875 960 952 981.5078125 952 1008 c 0
 952 1034.4921875 930.4921875 1056 904 1056 c 2
 804 1056 l 1
 664 1056 l 2
EndSplineSet
Refer: 80 -1 S 1 0 0 1 0 0 2
EndChar

StartChar: agrave
Encoding: 224 224 51
Width: 1008
VWidth: 4000
Flags: HW
HStem: -20 96<251.488 514.638 738.757 832.936> 401.701 96.0039<348.863 636> 680 96<272.804 573.146> 922.451 171.098
VStem: 116 96<114.434 298.095> 136 156<522.296 641.408> 256 336<1001.2 1014.8> 636 96<190.587 227.63 508 617.395> 836 96<78.0625 174.488>
LayerCount: 2
Fore
SplineSet
116 188 m 0xf6
 116 77.576171875 215.504882812 -20 364 -20 c 0
 511.11328125 -20 579.26171875 30.3837890625 642.661132812 95.06640625 c 1
 663.208007812 18.7509765625 728.216796875 -20 794.296875 -20 c 0
 868.852539062 -20 932 39.8798828125 932 128 c 0
 932 154.4921875 910.4921875 176 884 176 c 0
 857.5078125 176 836 154.4921875 836 128 c 0
 836 98.5107421875 820.612304688 76 794.296875 76 c 0
 777.471679688 76 732 82.0966796875 732 148 c 2
 732 448 l 1
 732 508 l 2
 732 599.001953125 694.39453125 674.401367188 629.834960938 721.228515625 c 0
 578.799804688 758.24609375 514.313476562 776 444 776 c 0
 365.224609375 776 260.001953125 759.951171875 194.2578125 705.80859375 c 0
 160.772460938 678.232421875 136 637.622070312 136 588 c 0
 136 544.951171875 170.951171875 510 214 510 c 0
 257.048828125 510 292 544.951171875 292 588 c 0xee
 292 608.984375 283.6953125 628.043945312 270.196289062 642.069335938 c 1
 284.505859375 650.59765625 302.852539062 658.365234375 323.807617188 664.375976562 c 0
 360.241210938 674.826171875 403.552734375 680 444 680 c 0
 498.130859375 680 542.287109375 666.1484375 573.555664062 643.46875 c 0
 611.876953125 615.672851562 636 572.553710938 636 508 c 2
 636 497.705078125 l 1
 589.5703125 497.43359375 511.727539062 493.190429688 396.635742188 475.4375 c 0
 318.403320312 463.366210938 253.990234375 435.439453125 206.16796875 393.236328125 c 0
 145.9765625 340.116210938 116 266.796875 116 188 c 0xf6
636 227.629882812 m 1
 624.678710938 215.934570312 614.206054688 204.70703125 604.317382812 194.111328125 c 0
 533.65625 118.396484375 492.829101562 76 364 76 c 0
 273.294921875 76 212 127.614257812 212 188 c 0xf6
 212 242.536132812 231.155273438 287.272460938 269.645507812 321.241210938 c 0
 300.76953125 348.708984375 347.012695312 370.633789062 411.364257812 380.5625 c 0
 521.782226562 397.594726562 594.734375 401.4296875 636 401.701171875 c 1
 636 227.629882812 l 1
EndSplineSet
Refer: 79 -1 S 1 0 0 1 -80 -200 2
EndChar

StartChar: aacute
Encoding: 225 225 52
Width: 1008
VWidth: 4000
Flags: HW
HStem: -20 96<251.488 514.638 738.757 832.936> 401.701 96.0039<348.863 636> 680 96<272.804 573.146>
VStem: 116 96<114.434 298.095> 136 156<522.296 641.408> 256 336<1001.2 1014.8> 636 96<190.587 227.63 508 617.395> 836 96<78.0625 174.488>
LayerCount: 2
Fore
SplineSet
116 188 m 0xf6
 116 77.576171875 215.504882812 -20 364 -20 c 0
 511.11328125 -20 579.26171875 30.3837890625 642.661132812 95.06640625 c 1
 663.208007812 18.7509765625 728.216796875 -20 794.296875 -20 c 0
 868.852539062 -20 932 39.8798828125 932 128 c 0
 932 154.4921875 910.4921875 176 884 176 c 0
 857.5078125 176 836 154.4921875 836 128 c 0
 836 98.5107421875 820.612304688 76 794.296875 76 c 0
 777.471679688 76 732 82.0966796875 732 148 c 2
 732 448 l 1
 732 508 l 2
 732 599.001953125 694.39453125 674.401367188 629.834960938 721.228515625 c 0
 578.799804688 758.24609375 514.313476562 776 444 776 c 0
 365.224609375 776 260.001953125 759.951171875 194.2578125 705.80859375 c 0
 160.772460938 678.232421875 136 637.622070312 136 588 c 0
 136 544.951171875 170.951171875 510 214 510 c 0
 257.048828125 510 292 544.951171875 292 588 c 0xee
 292 608.984375 283.6953125 628.043945312 270.196289062 642.069335938 c 1
 284.505859375 650.59765625 302.852539062 658.365234375 323.807617188 664.375976562 c 0
 360.241210938 674.826171875 403.552734375 680 444 680 c 0
 498.130859375 680 542.287109375 666.1484375 573.555664062 643.46875 c 0
 611.876953125 615.672851562 636 572.553710938 636 508 c 2
 636 497.705078125 l 1
 589.5703125 497.43359375 511.727539062 493.190429688 396.635742188 475.4375 c 0
 318.403320312 463.366210938 253.990234375 435.439453125 206.16796875 393.236328125 c 0
 145.9765625 340.116210938 116 266.796875 116 188 c 0xf6
636 227.629882812 m 1
 624.678710938 215.934570312 614.206054688 204.70703125 604.317382812 194.111328125 c 0
 533.65625 118.396484375 492.829101562 76 364 76 c 0
 273.294921875 76 212 127.614257812 212 188 c 0xf6
 212 242.536132812 231.155273438 287.272460938 269.645507812 321.241210938 c 0
 300.76953125 348.708984375 347.012695312 370.633789062 411.364257812 380.5625 c 0
 521.782226562 397.594726562 594.734375 401.4296875 636 401.701171875 c 1
 636 227.629882812 l 1
EndSplineSet
Refer: 80 -1 S 1 0 0 1 -80 -200 2
EndChar

StartChar: acircumflex
Encoding: 226 226 53
Width: 1008
VWidth: 4000
Flags: HW
HStem: -20 96<251.488 514.638 738.757 832.936> 401.701 96.0039<348.863 636> 680 96<272.804 573.146>
VStem: 116 96<114.434 298.095> 136 156<522.296 641.408> 636 96<190.587 227.63 508 617.395> 836 96<78.0625 174.488>
LayerCount: 2
Fore
SplineSet
116 188 m 0xf6
 116 77.576171875 215.504882812 -20 364 -20 c 0
 511.11328125 -20 579.26171875 30.3837890625 642.661132812 95.06640625 c 1
 663.208007812 18.7509765625 728.216796875 -20 794.296875 -20 c 0
 868.852539062 -20 932 39.8798828125 932 128 c 0
 932 154.4921875 910.4921875 176 884 176 c 0
 857.5078125 176 836 154.4921875 836 128 c 0
 836 98.5107421875 820.612304688 76 794.296875 76 c 0
 777.471679688 76 732 82.0966796875 732 148 c 2
 732 448 l 1
 732 508 l 2
 732 599.001953125 694.39453125 674.401367188 629.834960938 721.228515625 c 0
 578.799804688 758.24609375 514.313476562 776 444 776 c 0
 365.224609375 776 260.001953125 759.951171875 194.2578125 705.80859375 c 0
 160.772460938 678.232421875 136 637.622070312 136 588 c 0
 136 544.951171875 170.951171875 510 214 510 c 0
 257.048828125 510 292 544.951171875 292 588 c 0xee
 292 608.984375 283.6953125 628.043945312 270.196289062 642.069335938 c 1
 284.505859375 650.59765625 302.852539062 658.365234375 323.807617188 664.375976562 c 0
 360.241210938 674.826171875 403.552734375 680 444 680 c 0
 498.130859375 680 542.287109375 666.1484375 573.555664062 643.46875 c 0
 611.876953125 615.672851562 636 572.553710938 636 508 c 2
 636 497.705078125 l 1
 589.5703125 497.43359375 511.727539062 493.190429688 396.635742188 475.4375 c 0
 318.403320312 463.366210938 253.990234375 435.439453125 206.16796875 393.236328125 c 0
 145.9765625 340.116210938 116 266.796875 116 188 c 0xf6
636 227.629882812 m 1
 624.678710938 215.934570312 614.206054688 204.70703125 604.317382812 194.111328125 c 0
 533.65625 118.396484375 492.829101562 76 364 76 c 0
 273.294921875 76 212 127.614257812 212 188 c 0xf6
 212 242.536132812 231.155273438 287.272460938 269.645507812 321.241210938 c 0
 300.76953125 348.708984375 347.012695312 370.633789062 411.364257812 380.5625 c 0
 521.782226562 397.594726562 594.734375 401.4296875 636 401.701171875 c 1
 636 227.629882812 l 1
EndSplineSet
Refer: 13 -1 S 1 0 0 1 -80 -200 2
EndChar

StartChar: atilde
Encoding: 227 227 54
Width: 1008
VWidth: 4000
Flags: HW
HStem: -20 96<251.488 514.638 738.757 832.936> 401.701 96.0039<348.863 636> 680 96<272.804 573.146> 920 96<442.455 678.448> 1000 96<169.552 405.545>
VStem: 116 96<114.434 298.095> 136 156<522.296 641.408> 636 96<190.587 227.63 508 617.395> 836 96<78.0625 174.488>
LayerCount: 2
Fore
SplineSet
116 188 m 0xf6
 116 77.576171875 215.504882812 -20 364 -20 c 0
 511.11328125 -20 579.26171875 30.3837890625 642.661132812 95.06640625 c 1
 663.208007812 18.7509765625 728.216796875 -20 794.296875 -20 c 0
 868.852539062 -20 932 39.8798828125 932 128 c 0
 932 154.4921875 910.4921875 176 884 176 c 0
 857.5078125 176 836 154.4921875 836 128 c 0
 836 98.5107421875 820.612304688 76 794.296875 76 c 0
 777.471679688 76 732 82.0966796875 732 148 c 2
 732 448 l 1
 732 508 l 2
 732 599.001953125 694.39453125 674.401367188 629.834960938 721.228515625 c 0
 578.799804688 758.24609375 514.313476562 776 444 776 c 0
 365.224609375 776 260.001953125 759.951171875 194.2578125 705.80859375 c 0
 160.772460938 678.232421875 136 637.622070312 136 588 c 0
 136 544.951171875 170.951171875 510 214 510 c 0
 257.048828125 510 292 544.951171875 292 588 c 0xee
 292 608.984375 283.6953125 628.043945312 270.196289062 642.069335938 c 1
 284.505859375 650.59765625 302.852539062 658.365234375 323.807617188 664.375976562 c 0
 360.241210938 674.826171875 403.552734375 680 444 680 c 0
 498.130859375 680 542.287109375 666.1484375 573.555664062 643.46875 c 0
 611.876953125 615.672851562 636 572.553710938 636 508 c 2
 636 497.705078125 l 1
 589.5703125 497.43359375 511.727539062 493.190429688 396.635742188 475.4375 c 0
 318.403320312 463.366210938 253.990234375 435.439453125 206.16796875 393.236328125 c 0
 145.9765625 340.116210938 116 266.796875 116 188 c 0xf6
636 227.629882812 m 1
 624.678710938 215.934570312 614.206054688 204.70703125 604.317382812 194.111328125 c 0
 533.65625 118.396484375 492.829101562 76 364 76 c 0
 273.294921875 76 212 127.614257812 212 188 c 0xf6
 212 242.536132812 231.155273438 287.272460938 269.645507812 321.241210938 c 0
 300.76953125 348.708984375 347.012695312 370.633789062 411.364257812 380.5625 c 0
 521.782226562 397.594726562 594.734375 401.4296875 636 401.701171875 c 1
 636 227.629882812 l 1
EndSplineSet
Refer: 4 -1 S 1 0 0 1 -80 -200 2
EndChar

StartChar: adieresis
Encoding: 228 228 55
Width: 1008
VWidth: 4000
Flags: HW
HStem: -20 96<251.488 514.638 738.757 832.936> 401.701 96.0039<348.863 636> 680 96<272.804 573.146> 920 176<113.491 254.509 593.491 734.509>
VStem: 96 176<937.491 1078.51> 116 96<114.434 298.095> 136 156<522.296 641.408> 576 176<937.491 1078.51> 636 96<190.587 227.63 508 617.395> 836 96<78.0625 174.488>
LayerCount: 2
Fore
SplineSet
116 188 m 0xf6
 116 77.576171875 215.504882812 -20 364 -20 c 0
 511.11328125 -20 579.26171875 30.3837890625 642.661132812 95.06640625 c 1
 663.208007812 18.7509765625 728.216796875 -20 794.296875 -20 c 0
 868.852539062 -20 932 39.8798828125 932 128 c 0
 932 154.4921875 910.4921875 176 884 176 c 0
 857.5078125 176 836 154.4921875 836 128 c 0
 836 98.5107421875 820.612304688 76 794.296875 76 c 0
 777.471679688 76 732 82.0966796875 732 148 c 2
 732 448 l 1
 732 508 l 2
 732 599.001953125 694.39453125 674.401367188 629.834960938 721.228515625 c 0
 578.799804688 758.24609375 514.313476562 776 444 776 c 0
 365.224609375 776 260.001953125 759.951171875 194.2578125 705.80859375 c 0
 160.772460938 678.232421875 136 637.622070312 136 588 c 0
 136 544.951171875 170.951171875 510 214 510 c 0
 257.048828125 510 292 544.951171875 292 588 c 0xee
 292 608.984375 283.6953125 628.043945312 270.196289062 642.069335938 c 1
 284.505859375 650.59765625 302.852539062 658.365234375 323.807617188 664.375976562 c 0
 360.241210938 674.826171875 403.552734375 680 444 680 c 0
 498.130859375 680 542.287109375 666.1484375 573.555664062 643.46875 c 0
 611.876953125 615.672851562 636 572.553710938 636 508 c 2
 636 497.705078125 l 1
 589.5703125 497.43359375 511.727539062 493.190429688 396.635742188 475.4375 c 0
 318.403320312 463.366210938 253.990234375 435.439453125 206.16796875 393.236328125 c 0
 145.9765625 340.116210938 116 266.796875 116 188 c 0xf6
636 227.629882812 m 1
 624.678710938 215.934570312 614.206054688 204.70703125 604.317382812 194.111328125 c 0
 533.65625 118.396484375 492.829101562 76 364 76 c 0
 273.294921875 76 212 127.614257812 212 188 c 0xf6
 212 242.536132812 231.155273438 287.272460938 269.645507812 321.241210938 c 0
 300.76953125 348.708984375 347.012695312 370.633789062 411.364257812 380.5625 c 0
 521.782226562 397.594726562 594.734375 401.4296875 636 401.701171875 c 1
 636 227.629882812 l 1
EndSplineSet
Refer: 6 -1 S 1 0 0 1 -80 -200 2
EndChar

StartChar: aring
Encoding: 229 229 56
Width: 1008
VWidth: 4000
Flags: HW
LayerCount: 2
Fore
SplineSet
116 188 m 0xf6
 116 77.576171875 215.504882812 -20 364 -20 c 0
 511.11328125 -20 579.26171875 30.3837890625 642.661132812 95.06640625 c 1
 663.208007812 18.7509765625 728.216796875 -20 794.296875 -20 c 0
 868.852539062 -20 932 39.8798828125 932 128 c 0
 932 154.4921875 910.4921875 176 884 176 c 0
 857.5078125 176 836 154.4921875 836 128 c 0
 836 98.5107421875 820.612304688 76 794.296875 76 c 0
 777.471679688 76 732 82.0966796875 732 148 c 2
 732 448 l 1
 732 508 l 2
 732 599.001953125 694.39453125 674.401367188 629.834960938 721.228515625 c 0
 578.799804688 758.24609375 514.313476562 776 444 776 c 0
 365.224609375 776 260.001953125 759.951171875 194.2578125 705.80859375 c 0
 160.772460938 678.232421875 136 637.622070312 136 588 c 0
 136 544.951171875 170.951171875 510 214 510 c 0
 257.048828125 510 292 544.951171875 292 588 c 0xee
 292 608.984375 283.6953125 628.043945312 270.196289062 642.069335938 c 1
 284.505859375 650.59765625 302.852539062 658.365234375 323.807617188 664.375976562 c 0
 360.241210938 674.826171875 403.552734375 680 444 680 c 0
 498.130859375 680 542.287109375 666.1484375 573.555664062 643.46875 c 0
 611.876953125 615.672851562 636 572.553710938 636 508 c 2
 636 497.705078125 l 1
 589.5703125 497.43359375 511.727539062 493.190429688 396.635742188 475.4375 c 0
 318.403320312 463.366210938 253.990234375 435.439453125 206.16796875 393.236328125 c 0
 145.9765625 340.116210938 116 266.796875 116 188 c 0xf6
636 227.629882812 m 1
 624.678710938 215.934570312 614.206054688 204.70703125 604.317382812 194.111328125 c 0
 533.65625 118.396484375 492.829101562 76 364 76 c 0
 273.294921875 76 212 127.614257812 212 188 c 0xf6
 212 242.536132812 231.155273438 287.272460938 269.645507812 321.241210938 c 0
 300.76953125 348.708984375 347.012695312 370.633789062 411.364257812 380.5625 c 0
 521.782226562 397.594726562 594.734375 401.4296875 636 401.701171875 c 1
 636 227.629882812 l 1
EndSplineSet
Refer: 112 -1 N 1 0 0 1 -80 -160 2
EndChar

StartChar: ccedilla
Encoding: 231 231 57
Width: 1008
VWidth: 4000
Flags: HW
HStem: -300 96<354.708 550.172> -20 96<407.331 651.214> 680 96.002<394.553 682.593>
VStem: 158.805 96<238.862 539.897> 693.195 156<502.296 622.98> 750.488 95.7266<173.749 318.619>
LayerCount: 2
Fore
SplineSet
753.1953125 568 m 1025xe0
530.0390625 -20 m 0
 681.959960938 -16.4248046875 832.381835938 84.32421875 846.21484375 268.421875 c 0
 847.990234375 299.887695312 823.330078125 320.0625 798.3515625 320.0625 c 0
 773.083984375 320.0625 752.350585938 300.497070312 750.48828125 275.703125 c 0xe8
 739.90234375 134.831054688 621.282226562 78.1474609375 530.0390625 76 c 0
 381.01171875 76 254.8046875 213.348632812 254.8046875 385.84375 c 0
 254.8046875 551.416992188 365.462890625 679.513671875 521.346679688 680 c 0
 561.116210938 680.001953125 606.538085938 672.5234375 646.348632812 658.838867188 c 0
 657.009765625 655.174804688 690.0234375 642.943359375 716.5625 623.647460938 c 1
 702.141601562 609.487304688 693.1953125 589.774414062 693.1953125 568 c 0
 693.1953125 524.953125 728.1484375 490 771.1953125 490 c 0
 814.221679688 490 849.1953125 524.931640625 849.1953125 568 c 0xf0
 849.1953125 701.840820312 666.89453125 776.001953125 522.31640625 776.001953125 c 0
 314.625 775.356445312 158.8046875 607.317382812 158.8046875 385.84375 c 0
 158.8046875 169.338867188 318.91015625 -20 530.0390625 -20 c 0
EndSplineSet
Refer: 0 184 S 1 0 0 1 0 0 2
EndChar

StartChar: egrave
Encoding: 232 232 58
Width: 1008
VWidth: 4000
Flags: HW
HStem: -20 96<386.388 638.244> 680 96<376.223 632.195> 922.451 171.098
VStem: 152.008 96.9873<229.629 362 458 542.786> 336 336<1001.2 1014.8>
LayerCount: 2
Fore
SplineSet
756.264648438 226.067382812 m 0
 754.849609375 223.59375 663.32421875 76 514.006835938 76 c 0
 367.82421875 76 260.357421875 199.120117188 248.995117188 362 c 1
 808.006835938 362 l 2
 834.499023438 362 856.006835938 383.5078125 856.006835938 410 c 0
 856.006835938 586.744140625 722.822265625 776 498.006835938 776 c 0
 320.078125 776 152.0078125 625.200195312 152.0078125 394.845703125 c 0
 150.2421875 155.780273438 311.06640625 -20 514.006835938 -20 c 0
 608.0390625 -20 683.065429688 20.404296875 735.986328125 62.8505859375 c 0
 802.32421875 116.056640625 836.938476562 173.9375 838.624023438 176.745117188 c 0
 857.708007812 208.522460938 834.700195312 249.40625 797.444335938 249.40625 c 0
 779.966796875 249.40625 764.658203125 240.044921875 756.264648438 226.067382812 c 0
498.006835938 680 m 0
 641.643554688 680 735.350585938 574.329101562 755.791015625 458 c 1
 253.641601562 458 l 1
 279.586914062 599.822265625 390.853515625 680 498.006835938 680 c 0
EndSplineSet
Refer: 79 -1 S 1 0 0 1 0 -200 2
EndChar

StartChar: eacute
Encoding: 233 233 59
Width: 1008
VWidth: 4000
Flags: HW
HStem: -20 96<386.388 638.244> 680 96<376.223 632.195>
VStem: 152.008 96.9873<229.629 362 458 542.786> 336 336<1001.2 1014.8>
LayerCount: 2
Fore
SplineSet
756.264648438 226.067382812 m 0
 754.849609375 223.59375 663.32421875 76 514.006835938 76 c 0
 367.82421875 76 260.357421875 199.120117188 248.995117188 362 c 1
 808.006835938 362 l 2
 834.499023438 362 856.006835938 383.5078125 856.006835938 410 c 0
 856.006835938 586.744140625 722.822265625 776 498.006835938 776 c 0
 320.078125 776 152.0078125 625.200195312 152.0078125 394.845703125 c 0
 150.2421875 155.780273438 311.06640625 -20 514.006835938 -20 c 0
 608.0390625 -20 683.065429688 20.404296875 735.986328125 62.8505859375 c 0
 802.32421875 116.056640625 836.938476562 173.9375 838.624023438 176.745117188 c 0
 857.708007812 208.522460938 834.700195312 249.40625 797.444335938 249.40625 c 0
 779.966796875 249.40625 764.658203125 240.044921875 756.264648438 226.067382812 c 0
498.006835938 680 m 0
 641.643554688 680 735.350585938 574.329101562 755.791015625 458 c 1
 253.641601562 458 l 1
 279.586914062 599.822265625 390.853515625 680 498.006835938 680 c 0
EndSplineSet
Refer: 80 -1 S 1 0 0 1 0 -200 2
EndChar

StartChar: ecircumflex
Encoding: 234 234 60
Width: 1008
VWidth: 4000
Flags: HW
HStem: -20 96<386.388 638.244> 680 96<376.223 632.195>
VStem: 152.008 96.9873<229.629 362 458 542.786>
LayerCount: 2
Fore
SplineSet
756.264648438 226.067382812 m 0
 754.849609375 223.59375 663.32421875 76 514.006835938 76 c 0
 367.82421875 76 260.357421875 199.120117188 248.995117188 362 c 1
 808.006835938 362 l 2
 834.499023438 362 856.006835938 383.5078125 856.006835938 410 c 0
 856.006835938 586.744140625 722.822265625 776 498.006835938 776 c 0
 320.078125 776 152.0078125 625.200195312 152.0078125 394.845703125 c 0
 150.2421875 155.780273438 311.06640625 -20 514.006835938 -20 c 0
 608.0390625 -20 683.065429688 20.404296875 735.986328125 62.8505859375 c 0
 802.32421875 116.056640625 836.938476562 173.9375 838.624023438 176.745117188 c 0
 857.708007812 208.522460938 834.700195312 249.40625 797.444335938 249.40625 c 0
 779.966796875 249.40625 764.658203125 240.044921875 756.264648438 226.067382812 c 0
498.006835938 680 m 0
 641.643554688 680 735.350585938 574.329101562 755.791015625 458 c 1
 253.641601562 458 l 1
 279.586914062 599.822265625 390.853515625 680 498.006835938 680 c 0
EndSplineSet
Refer: 13 -1 S 1 0 0 1 0 -200 2
EndChar

StartChar: edieresis
Encoding: 235 235 61
Width: 1008
VWidth: 4000
Flags: HW
HStem: -20 96<386.388 638.244> 680 96<376.223 632.195> 920 176<193.491 334.509 673.491 814.509>
VStem: 152.008 96.9873<229.629 362 458 542.786> 176 176<937.491 1078.51> 656 176<937.491 1078.51>
LayerCount: 2
Fore
SplineSet
756.264648438 226.067382812 m 0
 754.849609375 223.59375 663.32421875 76 514.006835938 76 c 0
 367.82421875 76 260.357421875 199.120117188 248.995117188 362 c 1
 808.006835938 362 l 2
 834.499023438 362 856.006835938 383.5078125 856.006835938 410 c 0
 856.006835938 586.744140625 722.822265625 776 498.006835938 776 c 0
 320.078125 776 152.0078125 625.200195312 152.0078125 394.845703125 c 0
 150.2421875 155.780273438 311.06640625 -20 514.006835938 -20 c 0
 608.0390625 -20 683.065429688 20.404296875 735.986328125 62.8505859375 c 0
 802.32421875 116.056640625 836.938476562 173.9375 838.624023438 176.745117188 c 0
 857.708007812 208.522460938 834.700195312 249.40625 797.444335938 249.40625 c 0
 779.966796875 249.40625 764.658203125 240.044921875 756.264648438 226.067382812 c 0
498.006835938 680 m 0
 641.643554688 680 735.350585938 574.329101562 755.791015625 458 c 1
 253.641601562 458 l 1
 279.586914062 599.822265625 390.853515625 680 498.006835938 680 c 0
EndSplineSet
Refer: 6 -1 S 1 0 0 1 0 -200 2
EndChar

StartChar: dotlessi
Encoding: 305 305 62
Width: 1008
VWidth: 4000
Flags: HW
HStem: 0 96<197.512 244 764 810.488> 660 96<237.512 284>
LayerCount: 2
Fore
SplineSet
244 96 m 2
 217.5078125 96 196 74.4921875 196 48 c 0
 196 21.5078125 217.5078125 0 244 0 c 2
 764 0 l 2
 790.4921875 0 812 21.5078125 812 48 c 0
 812 74.4921875 790.4921875 96 764 96 c 2
 552 96 l 1
 552 708 l 2
 552 734.4921875 530.4921875 756 504 756 c 2
 284 756 l 2
 257.5078125 756 236 734.4921875 236 708 c 0
 236 681.5078125 257.5078125 660 284 660 c 2
 456 660 l 1
 456 96 l 1
 244 96 l 2
EndSplineSet
EndChar

StartChar: ntilde
Encoding: 241 241 67
Width: 1008
VWidth: 4000
Flags: HW
HStem: 0 96<115.512 162 366 412.488 575.512 622 846 892.488> 660 96<122.512 169> 680 96<431.414 636.891> 920 96<522.455 758.448> 1000 96<249.552 485.545>
VStem: 121 196<673.261 754.488> 221 96<532.156 571.626> 686 96<523.781 626.36>
LayerCount: 2
Fore
SplineSet
545.09375 680 m 0xac
 638.32421875 680 686 598.573242188 686 523.78125 c 2
 686 96 l 1
 622 96 l 2
 595.5078125 96 574 74.4921875 574 48 c 0
 574 21.5078125 595.5078125 0 622 0 c 2
 734 0 l 1
 846 0 l 2
 872.4921875 0 894 21.5078125 894 48 c 0
 894 74.4921875 872.4921875 96 846 96 c 2
 782 96 l 1
 782 523.78125 l 2
 782 660.2421875 683.733398438 776 545.09375 776 c 0
 486.357421875 776 436.733398438 762.047851562 392.52734375 734.330078125 c 0
 365.905273438 717.637695312 341.711914062 697.095703125 317 672.743164062 c 1xac
 317 708 l 2
 317 734.4921875 295.4921875 756 269 756 c 2
 169 756 l 6
 142.5078125 756 121 734.4921875 121 708 c 0xd4
 121 681.5078125 142.5078125 660 169 660 c 2
 221 660 l 1xcc
 221 551.876953125 l 2
 220.989257812 551.301757812 221 550.727539062 221 550.153320312 c 2
 221 96 l 1
 162 96 l 2
 135.5078125 96 114 74.4921875 114 48 c 0
 114 21.5078125 135.5078125 0 162 0 c 2
 366 0 l 2
 392.4921875 0 414 21.5078125 414 48 c 0
 414 74.4921875 392.4921875 96 366 96 c 2
 317 96 l 1
 317 532.15625 l 1
 421.221679688 647.502929688 459.145507812 680 545.09375 680 c 0xac
EndSplineSet
Refer: 4 -1 S 1 0 0 1 0 -200 2
EndChar

StartChar: ograve
Encoding: 242 242 68
Width: 1008
VWidth: 4000
Flags: HW
HStem: -19.9844 96<375.99 632.016> 680.016 96<375.99 632.016> 922.451 171.098
VStem: 135.992 96<229.821 526.204> 336 336<1001.2 1014.8> 776.008 96<229.821 526.204>
CounterMasks: 1 1c
LayerCount: 2
Fore
SplineSet
231.9921875 378.015625 m 0
 231.9921875 548.516601562 357.416992188 680.015625 504.0078125 680.015625 c 0
 650.581054688 680.015625 776.0078125 548.517578125 776.0078125 378.015625 c 0
 776.0078125 207.498046875 650.583007812 76.015625 504.0078125 76.015625 c 0
 357.415039062 76.015625 231.9921875 207.499023438 231.9921875 378.015625 c 0
135.9921875 378.015625 m 0
 135.9921875 161.907226562 297.131835938 -19.984375 504.0078125 -19.984375 c 0
 710.870117188 -19.984375 872.0078125 161.908203125 872.0078125 378.015625 c 0
 872.0078125 594.107421875 710.872070312 776.015625 504.0078125 776.015625 c 4
 297.129882812 776.015625 135.9921875 594.108398438 135.9921875 378.015625 c 0
EndSplineSet
Refer: 79 -1 S 1 0 0 1 0 -200 2
EndChar

StartChar: oacute
Encoding: 243 243 69
Width: 1008
VWidth: 4000
Flags: HW
HStem: -19.9844 96<375.99 632.016> 680.016 96<375.99 632.016>
VStem: 135.992 96<229.821 526.204> 336 336<1001.2 1014.8> 776.008 96<229.821 526.204>
CounterMasks: 1 38
LayerCount: 2
Fore
SplineSet
231.9921875 378.015625 m 0
 231.9921875 548.516601562 357.416992188 680.015625 504.0078125 680.015625 c 0
 650.581054688 680.015625 776.0078125 548.517578125 776.0078125 378.015625 c 0
 776.0078125 207.498046875 650.583007812 76.015625 504.0078125 76.015625 c 0
 357.415039062 76.015625 231.9921875 207.499023438 231.9921875 378.015625 c 0
135.9921875 378.015625 m 0
 135.9921875 161.907226562 297.131835938 -19.984375 504.0078125 -19.984375 c 0
 710.870117188 -19.984375 872.0078125 161.908203125 872.0078125 378.015625 c 0
 872.0078125 594.107421875 710.872070312 776.015625 504.0078125 776.015625 c 4
 297.129882812 776.015625 135.9921875 594.108398438 135.9921875 378.015625 c 0
EndSplineSet
Refer: 80 -1 S 1 0 0 1 0 -200 2
EndChar

StartChar: ocircumflex
Encoding: 244 244 70
Width: 1008
VWidth: 4000
Flags: HW
HStem: -19.9844 96<375.99 632.016> 680.016 96<375.99 632.016>
VStem: 135.992 96<229.821 526.204> 776.008 96<229.821 526.204>
LayerCount: 2
Fore
SplineSet
231.9921875 378.015625 m 0
 231.9921875 548.516601562 357.416992188 680.015625 504.0078125 680.015625 c 0
 650.581054688 680.015625 776.0078125 548.517578125 776.0078125 378.015625 c 0
 776.0078125 207.498046875 650.583007812 76.015625 504.0078125 76.015625 c 0
 357.415039062 76.015625 231.9921875 207.499023438 231.9921875 378.015625 c 0
135.9921875 378.015625 m 0
 135.9921875 161.907226562 297.131835938 -19.984375 504.0078125 -19.984375 c 0
 710.870117188 -19.984375 872.0078125 161.908203125 872.0078125 378.015625 c 0
 872.0078125 594.107421875 710.872070312 776.015625 504.0078125 776.015625 c 4
 297.129882812 776.015625 135.9921875 594.108398438 135.9921875 378.015625 c 0
EndSplineSet
Refer: 13 -1 S 1 0 0 1 0 -200 2
EndChar

StartChar: otilde
Encoding: 245 245 71
Width: 1008
VWidth: 4000
Flags: HW
HStem: -19.9844 96<375.99 632.016> 680.016 96<375.99 632.016> 920 96<522.455 758.448> 1000 96<249.552 485.545>
VStem: 135.992 96<229.821 526.204> 776.008 96<229.821 526.204>
LayerCount: 2
Fore
SplineSet
231.9921875 378.015625 m 0
 231.9921875 548.516601562 357.416992188 680.015625 504.0078125 680.015625 c 0
 650.581054688 680.015625 776.0078125 548.517578125 776.0078125 378.015625 c 0
 776.0078125 207.498046875 650.583007812 76.015625 504.0078125 76.015625 c 0
 357.415039062 76.015625 231.9921875 207.499023438 231.9921875 378.015625 c 0
135.9921875 378.015625 m 0
 135.9921875 161.907226562 297.131835938 -19.984375 504.0078125 -19.984375 c 0
 710.870117188 -19.984375 872.0078125 161.908203125 872.0078125 378.015625 c 0
 872.0078125 594.107421875 710.872070312 776.015625 504.0078125 776.015625 c 4
 297.129882812 776.015625 135.9921875 594.108398438 135.9921875 378.015625 c 0
EndSplineSet
Refer: 4 -1 S 1 0 0 1 0 -200 2
EndChar

StartChar: odieresis
Encoding: 246 246 72
Width: 1008
VWidth: 4000
Flags: HW
HStem: -19.9844 96<375.99 632.016> 680.016 96<375.99 632.016> 920 176<193.491 334.509 673.491 814.509>
VStem: 135.992 96<229.821 526.204> 176 176<937.491 1078.51> 656 176<937.491 1078.51> 776.008 96<229.821 526.204>
LayerCount: 2
Fore
SplineSet
231.9921875 378.015625 m 0
 231.9921875 548.516601562 357.416992188 680.015625 504.0078125 680.015625 c 0
 650.581054688 680.015625 776.0078125 548.517578125 776.0078125 378.015625 c 0
 776.0078125 207.498046875 650.583007812 76.015625 504.0078125 76.015625 c 0
 357.415039062 76.015625 231.9921875 207.499023438 231.9921875 378.015625 c 0
135.9921875 378.015625 m 0
 135.9921875 161.907226562 297.131835938 -19.984375 504.0078125 -19.984375 c 0
 710.870117188 -19.984375 872.0078125 161.908203125 872.0078125 378.015625 c 0
 872.0078125 594.107421875 710.872070312 776.015625 504.0078125 776.015625 c 4
 297.129882812 776.015625 135.9921875 594.108398438 135.9921875 378.015625 c 0
EndSplineSet
Refer: 6 -1 S 1 0 0 1 0 -200 2
EndChar

StartChar: ugrave
Encoding: 249 249 73
Width: 1008
VWidth: 4000
Flags: HW
HStem: -20 96<368.494 550.649> 0 96<856 902.488> 660 96<105.512 152 585.512 632> 922.451 171.098
VStem: 104 204<661.512 754.488> 212 96<145.138 268> 336 336<1001.2 1014.8> 584 204<661.512 754.488> 692 96<238.857 288.564> 692 212<1.51225 94.4878>
LayerCount: 2
Fore
SplineSet
856 0 m 2x62
 882.4921875 0 904 21.5078125 904 48 c 0x62
 904 74.4921875 882.4921875 96 856 96 c 2
 788 96 l 1
 788 273.71875 l 1x61
 788 708 l 2
 788 734.4921875 766.4921875 756 740 756 c 2
 632 756 l 2
 605.5078125 756 584 734.4921875 584 708 c 0x64
 584 681.5078125 605.5078125 660 632 660 c 2
 692 660 l 1
 692 288.563476562 l 1
 595.256835938 147.248046875 544.096679688 76 456.53125 76 c 0
 362.482421875 76 308 174.103515625 308 268 c 2xa9
 308 708 l 2
 308 734.4921875 286.4921875 756 260 756 c 2
 152 756 l 2
 125.5078125 756 104 734.4921875 104 708 c 0xb0
 104 681.5078125 125.5078125 660 152 660 c 2
 212 660 l 1
 212 268 l 2
 212 113.525390625 312.317382812 -20 456.53125 -20 c 0
 558.135742188 -20 625.692382812 37.390625 692 122.868164062 c 1xa9
 692 48 l 2
 692 21.5078125 713.5078125 0 740 0 c 2
 856 0 l 2x62
EndSplineSet
Refer: 79 -1 S 1 0 0 1 0 -200 2
EndChar

StartChar: uacute
Encoding: 250 250 74
Width: 1008
VWidth: 4000
Flags: HW
HStem: -20 96<368.494 550.649> 0 96<856 902.488> 660 96<105.512 152 585.512 632>
VStem: 104 204<661.512 754.488> 212 96<145.138 268> 336 336<1001.2 1014.8> 584 204<661.512 754.488> 692 96<238.857 288.564> 692 212<1.51225 94.4878>
LayerCount: 2
Fore
SplineSet
856 0 m 2x62
 882.4921875 0 904 21.5078125 904 48 c 0x62
 904 74.4921875 882.4921875 96 856 96 c 2
 788 96 l 1
 788 273.71875 l 1x61
 788 708 l 2
 788 734.4921875 766.4921875 756 740 756 c 2
 632 756 l 2
 605.5078125 756 584 734.4921875 584 708 c 0x64
 584 681.5078125 605.5078125 660 632 660 c 2
 692 660 l 1
 692 288.563476562 l 1
 595.256835938 147.248046875 544.096679688 76 456.53125 76 c 0
 362.482421875 76 308 174.103515625 308 268 c 2xa9
 308 708 l 2
 308 734.4921875 286.4921875 756 260 756 c 2
 152 756 l 2
 125.5078125 756 104 734.4921875 104 708 c 0xb0
 104 681.5078125 125.5078125 660 152 660 c 2
 212 660 l 1
 212 268 l 2
 212 113.525390625 312.317382812 -20 456.53125 -20 c 0
 558.135742188 -20 625.692382812 37.390625 692 122.868164062 c 1xa9
 692 48 l 2
 692 21.5078125 713.5078125 0 740 0 c 2
 856 0 l 2x62
EndSplineSet
Refer: 80 -1 S 1 0 0 1 0 -200 2
EndChar

StartChar: ucircumflex
Encoding: 251 251 75
Width: 1008
VWidth: 4000
Flags: HW
HStem: -20 96<368.494 550.649> 0 96<856 902.488> 660 96<105.512 152 585.512 632>
VStem: 104 204<661.512 754.488> 212 96<145.138 268> 584 204<661.512 754.488> 692 96<238.857 288.564> 692 212<1.51225 94.4878>
LayerCount: 2
Fore
SplineSet
856 0 m 2x62
 882.4921875 0 904 21.5078125 904 48 c 0x62
 904 74.4921875 882.4921875 96 856 96 c 2
 788 96 l 1
 788 273.71875 l 1x61
 788 708 l 2
 788 734.4921875 766.4921875 756 740 756 c 2
 632 756 l 2
 605.5078125 756 584 734.4921875 584 708 c 0x64
 584 681.5078125 605.5078125 660 632 660 c 2
 692 660 l 1
 692 288.563476562 l 1
 595.256835938 147.248046875 544.096679688 76 456.53125 76 c 0
 362.482421875 76 308 174.103515625 308 268 c 2xa9
 308 708 l 2
 308 734.4921875 286.4921875 756 260 756 c 2
 152 756 l 2
 125.5078125 756 104 734.4921875 104 708 c 0xb0
 104 681.5078125 125.5078125 660 152 660 c 2
 212 660 l 1
 212 268 l 2
 212 113.525390625 312.317382812 -20 456.53125 -20 c 0
 558.135742188 -20 625.692382812 37.390625 692 122.868164062 c 1xa9
 692 48 l 2
 692 21.5078125 713.5078125 0 740 0 c 2
 856 0 l 2x62
EndSplineSet
Refer: 13 -1 S 1 0 0 1 0 -200 2
EndChar

StartChar: udieresis
Encoding: 252 252 76
Width: 1008
VWidth: 4000
Flags: HW
HStem: -20 96<368.494 550.649> 0 96<856 902.488> 660 96<105.512 152 585.512 632> 920 176<193.491 334.509 673.491 814.509>
VStem: 104 204<661.512 754.488> 176 176<937.491 1078.51> 212 96<145.138 268> 584 204<661.512 754.488> 656 176<937.491 1078.51> 692 96<238.857 288.564> 692 212<1.51225 94.4878>
LayerCount: 2
Fore
SplineSet
856 0 m 2x62
 882.4921875 0 904 21.5078125 904 48 c 0x62
 904 74.4921875 882.4921875 96 856 96 c 2
 788 96 l 1
 788 273.71875 l 1x61
 788 708 l 2
 788 734.4921875 766.4921875 756 740 756 c 2
 632 756 l 2
 605.5078125 756 584 734.4921875 584 708 c 0x64
 584 681.5078125 605.5078125 660 632 660 c 2
 692 660 l 1
 692 288.563476562 l 1
 595.256835938 147.248046875 544.096679688 76 456.53125 76 c 0
 362.482421875 76 308 174.103515625 308 268 c 2xa9
 308 708 l 2
 308 734.4921875 286.4921875 756 260 756 c 2
 152 756 l 2
 125.5078125 756 104 734.4921875 104 708 c 0xb0
 104 681.5078125 125.5078125 660 152 660 c 2
 212 660 l 1
 212 268 l 2
 212 113.525390625 312.317382812 -20 456.53125 -20 c 0
 558.135742188 -20 625.692382812 37.390625 692 122.868164062 c 1xa9
 692 48 l 2
 692 21.5078125 713.5078125 0 740 0 c 2
 856 0 l 2x62
EndSplineSet
Refer: 6 -1 S 1 0 0 1 0 -200 2
EndChar

StartChar: yacute
Encoding: 253 253 77
Width: 1008
VWidth: 4000
Flags: HW
HStem: -320 96<217.841 405.272> 660 96<117.52 164.008 364.008 410.496 597.52 644.008 844.008 890.496>
VStem: 95.9922 156<-196.913 -66.3011> 336 336<1001.2 1014.8>
LayerCount: 2
Fore
SplineSet
644.0078125 756 m 2
 617.515625 756 596.0078125 734.4921875 596.0078125 708 c 0
 596.0078125 681.5078125 617.515625 660 644.0078125 660 c 2
 716.887695312 660 l 1
 533.6953125 123.484375 l 1
 315.37109375 660 l 1
 364.0078125 660 l 2
 390.5 660 412.0078125 681.5078125 412.0078125 708 c 0
 412.0078125 734.4921875 390.5 756 364.0078125 756 c 2
 244.0078125 756 l 1
 164.0078125 756 l 2
 137.515625 756 116.0078125 734.4921875 116.0078125 708 c 0
 116.0078125 681.5078125 137.515625 660 164.0078125 660 c 2
 211.709960938 660 l 1
 486.399414062 -15.0302734375 l 1
 450.094726562 -121.35546875 l 1
 414.6953125 -210.724609375 347.53125 -224 299.8828125 -224 c 0
 279.202148438 -224 240.93359375 -220.5625 216.2265625 -197.571289062 c 1
 237.743164062 -183.674804688 251.9921875 -159.479492188 251.9921875 -132 c 0
 251.9921875 -88.9736328125 217.060546875 -54 173.9921875 -54 c 0
 130.943359375 -54 95.9921875 -88.951171875 95.9921875 -132 c 0
 95.9921875 -132.640625 96 -133.279296875 96.015625 -133.916015625 c 0
 96.931640625 -250.745117188 181.673828125 -320 299.8828125 -320 c 0
 364.370117188 -320 483.678710938 -299.147460938 539.94140625 -155.372070312 c 1
 818.349609375 660 l 1
 844.0078125 660 l 2
 870.5 660 892.0078125 681.5078125 892.0078125 708 c 0
 892.0078125 734.4921875 870.5 756 844.0078125 756 c 2
 784.0078125 756 l 1
 644.0078125 756 l 2
EndSplineSet
Refer: 80 -1 S 1 0 0 1 0 -200 2
EndChar

StartChar: ydieresis
Encoding: 255 255 78
Width: 1008
VWidth: 4000
Flags: HW
HStem: -320 96<217.841 405.272> 660 96<117.52 164.008 364.008 410.496 597.52 644.008 844.008 890.496> 920 176<193.491 334.509 673.491 814.509>
VStem: 95.9922 156<-196.913 -66.3011> 176 176<937.491 1078.51> 656 176<937.491 1078.51>
LayerCount: 2
Fore
SplineSet
644.0078125 756 m 2
 617.515625 756 596.0078125 734.4921875 596.0078125 708 c 0
 596.0078125 681.5078125 617.515625 660 644.0078125 660 c 2
 716.887695312 660 l 1
 533.6953125 123.484375 l 1
 315.37109375 660 l 1
 364.0078125 660 l 2
 390.5 660 412.0078125 681.5078125 412.0078125 708 c 0
 412.0078125 734.4921875 390.5 756 364.0078125 756 c 2
 244.0078125 756 l 1
 164.0078125 756 l 2
 137.515625 756 116.0078125 734.4921875 116.0078125 708 c 0
 116.0078125 681.5078125 137.515625 660 164.0078125 660 c 2
 211.709960938 660 l 1
 486.399414062 -15.0302734375 l 1
 450.094726562 -121.35546875 l 1
 414.6953125 -210.724609375 347.53125 -224 299.8828125 -224 c 0
 279.202148438 -224 240.93359375 -220.5625 216.2265625 -197.571289062 c 1
 237.743164062 -183.674804688 251.9921875 -159.479492188 251.9921875 -132 c 0
 251.9921875 -88.9736328125 217.060546875 -54 173.9921875 -54 c 0
 130.943359375 -54 95.9921875 -88.951171875 95.9921875 -132 c 0
 95.9921875 -132.640625 96 -133.279296875 96.015625 -133.916015625 c 0
 96.931640625 -250.745117188 181.673828125 -320 299.8828125 -320 c 0
 364.370117188 -320 483.678710938 -299.147460938 539.94140625 -155.372070312 c 1
 818.349609375 660 l 1
 844.0078125 660 l 2
 870.5 660 892.0078125 681.5078125 892.0078125 708 c 0
 892.0078125 734.4921875 870.5 756 844.0078125 756 c 2
 784.0078125 756 l 1
 644.0078125 756 l 2
EndSplineSet
Refer: 6 -1 S 1 0 0 1 0 -200 2
EndChar

StartChar: grave.generic
Encoding: 65553 -1 79
Width: 1008
VWidth: 4000
Flags: HW
HStem: 1122.45 171.098
VStem: 336 336<1201.2 1214.8>
LayerCount: 2
Fore
SplineSet
672 1168 m 4
 672 1135.203125 639.73046875 1112.15039062 608.829101562 1122.45117188 c 6
 368.829101562 1202.45117188 l 6
 349.762695312 1208.80664062 336 1226.80859375 336 1248 c 4
 336 1280.796875 368.26953125 1303.84960938 399.170898438 1293.54882812 c 6
 639.170898438 1213.54882812 l 6
 658.237304688 1207.19335938 672 1189.19140625 672 1168 c 4
EndSplineSet
EndChar

StartChar: acute.generic
Encoding: 65554 -1 80
Width: 1008
VWidth: 4000
Flags: HW
VStem: 336 336<1201.2 1214.8>
LayerCount: 2
Fore
SplineSet
336 1168 m 4
 336 1135.203125 368.26953125 1112.15039062 399.170898438 1122.45117188 c 6
 639.170898438 1202.45117188 l 6
 658.237304688 1208.80664062 672 1226.80859375 672 1248 c 4
 672 1280.796875 639.73046875 1303.84960938 608.829101562 1293.54882812 c 6
 368.829101562 1213.54882812 l 6
 349.762695312 1207.19335938 336 1189.19140625 336 1168 c 4
EndSplineSet
EndChar

StartChar: l.dflt
Encoding: 65555 -1 81
Width: 1008
VWidth: 4000
Flags: HW
HStem: 0 96<177.512 224 784 830.488> 960 96<221.512 268>
LayerCount: 2
Fore
SplineSet
224 96 m 2
 197.5078125 96 176 74.4921875 176 48 c 0
 176 21.5078125 197.5078125 0 224 0 c 2
 504 0 l 1
 784 0 l 2
 810.4921875 0 832 21.5078125 832 48 c 0
 832 74.4921875 810.4921875 96 784 96 c 2
 552 96 l 1
 552 1008 l 2
 552 1034.4921875 530.4921875 1056 504 1056 c 2
 268 1056 l 2
 241.5078125 1056 220 1034.4921875 220 1008 c 0
 220 981.5078125 241.5078125 960 268 960 c 2
 456 960 l 1
 456 96 l 1
 224 96 l 2
EndSplineSet
EndChar

StartChar: l.coding
Encoding: 65556 -1 82
Width: 1008
VWidth: 4000
Flags: HW
HStem: 0 96<784 830.488> 960 96<221.512 268>
LayerCount: 2
Fore
SplineSet
257 518 m 1053
456 48 m 17
 456 21.5078125 477.5078125 0 504 0 c 2
 524 0 l 1
 784 0 l 2
 810.4921875 0 832 21.5078125 832 48 c 0
 832 74.4921875 810.4921875 96 784 96 c 2
 552 96 l 1
 552 1008 l 2
 552 1034.4921875 530.4921875 1056 504 1056 c 2
 268 1056 l 2
 241.5078125 1056 220 1034.4921875 220 1008 c 0
 220 981.5078125 241.5078125 960 268 960 c 2
 456 960 l 9
 456 48 l 17
EndSplineSet
EndChar

StartChar: l.coding2
Encoding: 65557 -1 83
Width: 1008
VWidth: 4000
Flags: HW
HStem: -20 96<540.472 718.229> 960 96<161.512 396>
VStem: 396 96<248 960>
LayerCount: 2
Fore
SplineSet
492 248 m 17
 492 248 505.725585938 154.35546875 526.055664062 127.750976562 c 0
 550.974609375 95.1435546875 589.368164062 76 644 76 c 0
 670.828125 76 690.338867188 85.6494140625 707.23046875 100.428710938 c 0
 743.372070312 132.053710938 757.83984375 181.1953125 757.83984375 181.1953125 c 1
 763.578125 201.279296875 782.083984375 216 804 216 c 0
 830.4921875 216 852 194.4921875 852 168 c 0
 852 163.424804688 850.16015625 158.998046875 850.16015625 154.8046875 c 0
 850.16015625 152.567382812 843.145507812 130.439453125 827.810546875 101.926757812 c 0
 770.461914062 -4.70703125 687.09765625 -20 644 -20 c 0
 504.455078125 -20 396 74.4287109375 396 248 c 9
 396 960 l 17
 208 960 l 2
 181.5078125 960 160 981.5078125 160 1008 c 0
 160 1034.4921875 181.5078125 1056 208 1056 c 2
 444 1056 l 2
 470.4921875 1056 492 1033 492 1008 c 10
 492 248 l 17
EndSplineSet
EndChar

StartChar: multiply
Encoding: 215 215 84
Width: 1008
VWidth: 4000
Flags: HW
LayerCount: 2
Fore
SplineSet
203.784179688 145.653320312 m 2
 173.645507812 115.513671875 195.22265625 63.71875 237.71875 63.71875 c 0
 250.96484375 63.71875 262.96484375 69.095703125 271.653320312 77.7841796875 c 2
 504 310.130859375 l 1
 736.346679688 77.7841796875 l 2
 766.486328125 47.6455078125 818.28125 69.22265625 818.28125 111.71875 c 0
 818.28125 124.96484375 812.904296875 136.96484375 804.215820312 145.653320312 c 2
 571.869140625 378 l 1
 804.215820312 610.346679688 l 2
 834.354492188 640.486328125 812.77734375 692.28125 770.28125 692.28125 c 0
 757.03515625 692.28125 745.03515625 686.904296875 736.346679688 678.215820312 c 2
 504 445.869140625 l 1
 271.653320312 678.215820312 l 6
 241.513671875 708.354492188 189.71875 686.77734375 189.71875 644.28125 c 4
 189.71875 631.03515625 195.095703125 619.03515625 203.784179688 610.346679688 c 6
 436.130859375 378 l 1
 203.784179688 145.653320312 l 2
EndSplineSet
EndChar

StartChar: oslash
Encoding: 248 248 85
Width: 1008
VWidth: 4000
Flags: HW
HStem: -19.9844 96<375.99 632.016> 680.016 96<375.99 632.016>
VStem: 135.992 96<229.821 526.204> 776.008 96<229.821 526.204>
LayerCount: 2
Fore
SplineSet
231.9921875 378.015625 m 0
 231.9921875 548.516601562 357.416992188 680.015625 504.0078125 680.015625 c 0
 650.581054688 680.015625 776.0078125 548.517578125 776.0078125 378.015625 c 0
 776.0078125 207.498046875 650.583007812 76.015625 504.0078125 76.015625 c 0
 357.415039062 76.015625 231.9921875 207.499023438 231.9921875 378.015625 c 0
135.9921875 378.015625 m 0
 135.9921875 161.907226562 297.131835938 -19.984375 504.0078125 -19.984375 c 0
 710.870117188 -19.984375 872.0078125 161.908203125 872.0078125 378.015625 c 0
 872.0078125 594.107421875 710.872070312 776.015625 504.0078125 776.015625 c 4
 297.129882812 776.015625 135.9921875 594.108398438 135.9921875 378.015625 c 0
1315 386 m 1053
EndSplineSet
Refer: 2 -1 N 1 0 0 1 0 -150 2
EndChar

StartChar: zero.slash
Encoding: 65558 -1 87
Width: 1008
VWidth: 4000
Flags: HW
HStem: -20 96<398.655 606.871> 980 96<401.129 609.345>
VStem: 136 96<305.257 747.482> 776 96<308.518 750.743>
LayerCount: 2
Fore
SplineSet
182.5078125 72.134765625 m 2
 163.970703125 40.35546875 187.006835938 0 224 0 c 0
 241.696289062 0 257.168945312 9.5966796875 265.4921875 23.865234375 c 2
 295.392836902 75.1234904923 l 1
 354.407392745 15.0527249254 426.105654397 -20 504 -20 c 0
 709.565429688 -20 872 224.135742188 872 528 c 0
 872 671.425173678 835.809710057 801.550901584 775.972951262 898.97511511 c 1
 825.4921875 983.865234375 l 2
 844.029296875 1015.64453125 820.993164062 1056 784 1056 c 0
 766.303710938 1056 750.831054688 1046.40332031 742.5078125 1032.13476562 c 2
 712.6071631 980.876509506 l 1
 653.592607256 1040.94727507 581.894345604 1076 504 1076 c 0
 298.434570312 1076 136 831.864257812 136 528 c 0
 136 384.574826322 172.190289943 254.449098416 232.027048738 157.024884889 c 1
 182.5078125 72.134765625 l 2
719.294490806 801.812040042 m 1
 754.639649707 725.872556828 776 631.010277599 776 528 c 0
 776 278.008789062 650.193359375 76 504 76 c 0
 445.931336099 76 391.078583701 107.8714518 346.048780694 161.962251279 c 1
 719.294490806 801.812040042 l 1
661.951219307 894.037748719 m 1
 288.705509194 254.187959957 l 1
 253.360350293 330.127443172 232 424.989722401 232 528 c 0
 232 777.991210938 357.806640625 980 504 980 c 0
 562.068663901 980 616.9214163 948.128548199 661.951219307 894.037748719 c 1
EndSplineSet
EndChar

StartChar: zero.dflt
Encoding: 65559 -1 88
Width: 1008
VWidth: 4000
Flags: HW
HStem: -20 96<401.127 606.871> 980 96<401.129 606.873>
VStem: 136 96<308.522 747.482> 776 96<308.518 747.478>
LayerCount: 2
Fore
SplineSet
504 1076 m 4
 298.434570312 1076 136 831.864257812 136 528 c 0
 136 224.15625 298.420898438 -20 504 -20 c 0
 709.565429688 -20 872 224.135742188 872 528 c 0
 872 831.84375 709.579101562 1076 504 1076 c 4
504 76 m 0
 357.80859375 76 232 278.004882812 232 528 c 0
 232 777.991210938 357.806640625 980 504 980 c 0
 650.19140625 980 776 777.995117188 776 528 c 0
 776 278.008789062 650.193359375 76 504 76 c 0
EndSplineSet
EndChar

StartChar: one.default
Encoding: 65560 -1 89
Width: 1008
VWidth: 4000
Flags: HW
HStem: 0 96<177.512 224 784 830.488> 960 96<221.512 268>
LayerCount: 2
Fore
SplineSet
224 96 m 6
 197.5078125 96 176 74.4921875 176 48 c 4
 176 21.5078125 197.5078125 0 224 0 c 6
 504 0 l 5
 784 0 l 6
 810.4921875 0 832 21.5078125 832 48 c 4
 832 74.4921875 810.4921875 96 784 96 c 6
 552 96 l 5
 552 1008 l 6
 552 1034.4921875 530.4921875 1056 504 1056 c 6
 268 1056 l 6
 241.5078125 1056 220 1034.4921875 220 1008 c 4
 220 981.5078125 241.5078125 960 268 960 c 6
 456 960 l 5
 456 96 l 5
 224 96 l 6
EndSplineSet
EndChar

StartChar: periodcentered
Encoding: 183 183 90
Width: 1008
VWidth: 4000
Flags: HW
HStem: 280.016 196<428.393 579.607>
VStem: 406 196<302.398 453.627>
LayerCount: 2
Fore
SplineSet
406 378.015625 m 4
 406 323.905273438 449.920898438 280.015625 504 280.015625 c 4
 558.079101562 280.015625 602 323.905273438 602 378.015625 c 4
 602 432.107421875 558.091796875 476.015625 504 476.015625 c 4
 449.908203125 476.015625 406 432.107421875 406 378.015625 c 4
EndSplineSet
EndChar

StartChar: minus
Encoding: 8722 8722 91
Width: 1008
VWidth: 4000
Flags: HW
HStem: 330 96<137.512 184 824 870.488>
LayerCount: 2
Fore
SplineSet
824 330 m 2
 850.4921875 330 872 351.5078125 872 378 c 0
 872 404.4921875 850.4921875 426 824 426 c 2
 184 426 l 2
 157.5078125 426 136 404.4921875 136 378 c 0
 136 351.5078125 157.5078125 330 184 330 c 2
 824 330 l 2
EndSplineSet
EndChar

StartChar: divide
Encoding: 247 247 92
Width: 1008
VWidth: 4000
Flags: HW
HStem: -20 196<428.393 579.607> 330 96<137.512 184 824 870.488> 580 196<428.393 579.607>
VStem: 406 196<2.38281 153.611 602.383 753.611>
CounterMasks: 1 e0
LayerCount: 2
Fore
SplineSet
406 78 m 0
 406 23.8896484375 449.920898438 -20 504 -20 c 0
 558.079101562 -20 602 23.8896484375 602 78 c 0
 602 132.091796875 558.091796875 176 504 176 c 0
 449.908203125 176 406 132.091796875 406 78 c 0
406 678 m 0
 406 623.889648438 449.920898438 580 504 580 c 0
 558.079101562 580 602 623.889648438 602 678 c 0
 602 732.091796875 558.091796875 776 504 776 c 0
 449.908203125 776 406 732.091796875 406 678 c 0
824 330 m 2
 850.4921875 330 872 351.5078125 872 378 c 0
 872 404.4921875 850.4921875 426 824 426 c 2
 184 426 l 2
 157.5078125 426 136 404.4921875 136 378 c 0
 136 351.5078125 157.5078125 330 184 330 c 2
 824 330 l 2
EndSplineSet
EndChar

StartChar: plusminus
Encoding: 177 177 93
Width: 1008
VWidth: 4000
Flags: HW
HStem: -86 96<137.512 184 824 870.488> 426 96<137.512 184 824 870.488>
VStem: 456 96<107.512 154 794 840.488>
LayerCount: 2
Fore
SplineSet
824 -86 m 2
 850.4921875 -86 872 -64.4921875 872 -38 c 0
 872 -11.5078125 850.4921875 10 824 10 c 2
 184 10 l 2
 157.5078125 10 136 -11.5078125 136 -38 c 0
 136 -64.4921875 157.5078125 -86 184 -86 c 2
 824 -86 l 2
456 154 m 2
 456 127.5078125 477.5078125 106 504 106 c 0
 530.4921875 106 552 127.5078125 552 154 c 2
 552 426 l 1
 824 426 l 2
 850.4921875 426 872 447.5078125 872 474 c 0
 872 500.4921875 850.4921875 522 824 522 c 2
 552 522 l 1
 552 794 l 2
 552 820.4921875 530.4921875 842 504 842 c 0
 477.5078125 842 456 820.4921875 456 794 c 2
 456 522 l 1
 184 522 l 2
 157.5078125 522 136 500.4921875 136 474 c 0
 136 447.5078125 157.5078125 426 184 426 c 2
 456 426 l 1
 456 154 l 2
EndSplineSet
EndChar

StartChar: zero.small
Encoding: 65561 -1 94
Width: 1008
VWidth: 4000
Flags: HW
HStem: 254 48<445.225 562.774> 754 48<445.226 562.775>
VStem: 320 48<402.28 653.722> 640 48<402.278 653.72>
LayerCount: 2
Fore
SplineSet
391.995117188 288 m 0
 391.995117188 177.088867188 446.390625 85.9951171875 504 85.9951171875 c 0
 561.611328125 85.9951171875 616.004882812 177.091796875 616.004882812 288 c 0
 616.004882812 398.911132812 561.609375 490.004882812 504 490.004882812 c 0
 446.388671875 490.004882812 391.995117188 398.908203125 391.995117188 288 c 0
296.004882812 288 m 0
 296.004882812 456.04296875 388.444335938 585.995117188 504 585.995117188 c 0
 619.567382812 585.995117188 711.995117188 456.024414062 711.995117188 288 c 0
 711.995117188 119.95703125 619.555664062 -9.9951171875 504 -9.9951171875 c 0
 388.432617188 -9.9951171875 296.004882812 119.975585938 296.004882812 288 c 0
EndSplineSet
EndChar

StartChar: one.small
Encoding: 65562 -1 95
Width: 1008
VWidth: 4000
Flags: HW
HStem: 264 48<340.008 364 644 667.992> 744 48<362.008 386>
VStem: 340 328<264 312>
LayerCount: 2
Fore
SplineSet
504 575.995117188 m 2
 530.5078125 575.995117188 551.995117188 554.5078125 551.995117188 528 c 2
 551.995117188 95.9951171875 l 1
 644 95.9951171875 l 2
 670.5078125 95.9951171875 691.995117188 74.5078125 691.995117188 48 c 0
 691.995117188 21.4921875 670.5078125 0.0048828125 644 0.0048828125 c 0
 364 0.0048828125 364 0.0048828125 364 0.0048828125 c 2
 337.4921875 0.0048828125 316.004882812 21.4921875 316.004882812 48 c 0
 316.004882812 74.5078125 337.4921875 95.9951171875 364 95.9951171875 c 2
 456.004882812 95.9951171875 l 1
 456.004882812 480.004882812 l 1
 386 480.004882812 l 2
 359.4921875 480.004882812 338.004882812 501.4921875 338.004882812 528 c 0
 338.004882812 554.5078125 359.4921875 575.995117188 386 575.995117188 c 2
 504 575.995117188 l 2
EndSplineSet
EndChar

StartChar: two.small
Encoding: 65563 -1 96
Width: 1008
VWidth: 4000
Flags: HW
HStem: 255.57 48<526.562 632.739> 315.391 48<376.795 490.138> 754.711 48<416.247 588.47>
VStem: 309.202 42.5869<271.439 292.863> 325.713 48<639.898 713.269> 637.283 48<596.664 711.127>
LayerCount: 2
Fore
SplineSet
432.322265625 147.385742188 m 0
 505.494140625 147.385742188 549.122070312 87.5654296875 583.181640625 87.5654296875 c 0
 605.762695312 87.5654296875 617.733398438 103.408203125 634.059570312 131.59765625 c 0
 636.854492188 136.422851562 649.58203125 155.565429688 675.619140625 155.565429688 c 0
 702.126953125 155.565429688 723.614257812 134.078125 723.614257812 107.5703125 c 0
 723.614257812 94.8134765625 717.830078125 84.6962890625 715.075195312 79.87890625 c 0
 702.5546875 57.982421875 664.584960938 -8.4248046875 583.181640625 -8.4248046875 c 0
 511.642578125 -8.4248046875 467.846679688 51.3955078125 432.322265625 51.3955078125 c 0
 409.680664062 51.3955078125 382.47265625 33.1298828125 370.380859375 18.349609375 c 0
 365.974609375 12.9638671875 353.701171875 0.7158203125 333.205078125 0.7158203125 c 0
 306.583984375 0.7158203125 285.201171875 22.16015625 285.201171875 48.896484375 c 0
 285.201171875 50.931640625 291.954101562 149.078125 374.559570312 231.68359375 c 0
 409.091796875 266.215820312 449.83984375 292.1953125 492.114257812 313.409179688 c 0
 598.734375 366.916015625 613.288085938 378 613.288085938 413.3828125 c 0
 613.288085938 457.346679688 563.91796875 490.715820312 503.205078125 490.715820312 c 0
 441.0078125 490.715820312 397.708007812 456.266601562 397.708007812 423.890625 c 0
 397.708007812 397.3828125 376.220703125 375.895507812 349.712890625 375.895507812 c 0
 323.205078125 375.895507812 301.717773438 397.3828125 301.717773438 423.890625 c 0
 301.717773438 509.943359375 384.88671875 586.706054688 503.205078125 586.706054688 c 0
 621.823242188 586.706054688 709.278320312 509.197265625 709.278320312 413.3828125 c 0
 709.278320312 373.166015625 696.319335938 337.419921875 666.947265625 308.047851562 c 0
 603.323242188 244.424804688 495.00390625 229.189453125 427.333984375 147.302734375 c 1
 428.983398438 147.357421875 430.646484375 147.385742188 432.322265625 147.385742188 c 0
349.708007812 423.900390625 m 1
 349.708007812 423.90234375 349.708007812 423.904296875 349.708007812 423.90625 c 1
 349.708007812 423.900390625 l 1
EndSplineSet
EndChar

StartChar: three.small
Encoding: 65564 -1 97
Width: 1008
VWidth: 4000
Flags: HW
HStem: 249.001 48<402.251 582.92>
VStem: 314.998 48<333.846 411.993> 644.998 48<356.366 496.895>
LayerCount: 2
Fore
SplineSet
716.993164062 188.000976562 m 0
 716.993164062 82.8388671875 627.091796875 -9.994140625 488.998046875 -9.994140625 c 0
 368.455078125 -9.994140625 291.002929688 64.123046875 291.002929688 153.000976562 c 0
 291.002929688 179.508789062 312.490234375 200.99609375 338.998046875 200.99609375 c 0
 365.505859375 200.99609375 386.993164062 179.508789062 386.993164062 153.000976562 c 0
 386.993164062 110.672851562 434.09765625 85.99609375 488.998046875 85.99609375 c 0
 569.373046875 85.99609375 621.002929688 132.298828125 621.002929688 188.000976562 c 0
 621.002929688 211.098632812 620.62890625 290.005859375 478.998046875 290.005859375 c 0
 451.60546875 290.005859375 431.03125 312.365234375 431.03125 338.474609375 c 0
 431.03125 350.052734375 435.215820312 361.88671875 444.696289062 371.571289062 c 2
 550.849609375 480.005859375 l 1
 411.504882812 480.005859375 l 1
 399.922851562 451.049804688 399.783203125 450.91015625 392.935546875 444.0625 c 0
 384.267578125 435.39453125 372.275390625 430.005859375 358.998046875 430.005859375 c 0
 331.891601562 430.005859375 310.983398438 452.209960938 310.983398438 478.090820312 c 0
 310.983398438 483.947265625 312.071289062 489.947265625 314.42578125 495.833984375 c 2
 334.424804688 545.831054688 l 2
 335.688476562 548.9921875 347.411132812 575.99609375 378.998046875 575.99609375 c 2
 665 575.99609375 l 2
 692.391601562 575.99609375 712.967773438 553.638671875 712.967773438 527.528320312 c 0
 712.967773438 515.94921875 708.782226562 504.115234375 699.301757812 494.430664062 c 2
 579.796875 372.357421875 l 1
 676.538085938 342.501953125 716.993164062 267.193359375 716.993164062 188.000976562 c 0
EndSplineSet
EndChar

StartChar: four.small
Encoding: 65565 -1 98
Width: 1008
VWidth: 4000
Flags: HW
HStem: 259.885 48<498.096 522.088 690.088 714.08> 395.885 48<700.088 724.08>
LayerCount: 2
Fore
SplineSet
566.092773438 232.879882812 m 1
 566.092773438 400.905273438 l 1
 419.436523438 232.879882812 l 1
 566.092773438 232.879882812 l 1
613.563476562 576.86328125 m 0
 639.618164062 576.86328125 662.083007812 556.395507812 662.083007812 528.884765625 c 2
 662.083007812 232.879882812 l 1
 700.087890625 232.879882812 l 2
 726.595703125 232.879882812 748.083007812 211.392578125 748.083007812 184.884765625 c 0
 748.083007812 158.376953125 726.595703125 136.889648438 700.087890625 136.889648438 c 2
 662.083007812 136.889648438 l 1
 662.083007812 96.8798828125 l 1
 690.087890625 96.8798828125 l 2
 716.595703125 96.8798828125 738.083007812 75.392578125 738.083007812 48.884765625 c 0
 738.083007812 22.376953125 716.595703125 0.8896484375 690.087890625 0.8896484375 c 2
 522.087890625 0.8896484375 l 2
 495.580078125 0.8896484375 474.092773438 22.376953125 474.092773438 48.884765625 c 0
 474.092773438 75.392578125 495.580078125 96.8798828125 522.087890625 96.8798828125 c 2
 566.092773438 96.8798828125 l 1
 566.092773438 136.889648438 l 1
 313.837890625 136.889648438 l 2
 286.482421875 136.889648438 265.859375 159.245117188 265.859375 185.302734375 c 0
 265.859375 196.0546875 269.482421875 207.057617188 277.65625 216.421875 c 0
 579.030273438 561.709960938 579.030273438 561.709960938 580.233398438 562.913085938 c 0
 589.909179688 572.588867188 601.85546875 576.86328125 613.563476562 576.86328125 c 0
EndSplineSet
EndChar

StartChar: five.small
Encoding: 65566 -1 99
Width: 1008
VWidth: 4000
Flags: HW
HStem: 249 48<440.822 598.608> 585 48<435.917 607.046> 739 48<673.103 697.095>
VStem: 361.131 49.0693<601.698 739> 665.106 48<368.689 527.332>
LayerCount: 2
Fore
SplineSet
529.102539062 85.9951171875 m 4
 592.80078125 85.9951171875 641.111328125 150.55078125 641.111328125 216.78125 c 4
 641.111328125 279.470703125 593.057617188 326.004882812 529.102539062 326.004882812 c 4
 462.366210938 326.004882812 438.424804688 301.552734375 426.341796875 281.428710938 c 4
 423.396484375 276.493164062 410.65625 258.004882812 385.102539062 258.004882812 c 4
 358.580078125 258.004882812 337.088867188 279.39453125 337.088867188 306.109375 c 4
 337.088867188 306.893554688 337.108398438 307.680664062 337.147460938 308.471679688 c 6
 341.115234375 528.875976562 l 6
 341.586914062 555.021484375 362.922851562 575.995117188 389.102539062 575.995117188 c 6
 673.102539062 575.995117188 l 6
 699.610351562 575.995117188 721.09765625 554.5078125 721.09765625 528 c 4
 721.09765625 501.4921875 699.610351562 480.004882812 673.102539062 480.004882812 c 6
 436.241210938 480.004882812 l 5
 434.913085938 406.310546875 l 5
 470.385742188 419.926757812 505.3203125 421.995117188 529.102539062 421.995117188 c 4
 645.194335938 421.995117188 737.1015625 332.44921875 737.1015625 216.78125 c 4
 737.1015625 94.4931640625 644.392578125 -9.9951171875 529.102539062 -9.9951171875 c 4
 501.719726562 -9.9951171875 423.721679688 -4.609375 366.591796875 52.5205078125 c 4
 357.314453125 61.796875 329.236328125 93.380859375 329.236328125 119.657226562 c 4
 329.236328125 145.536132812 350.107421875 167.776367188 377.250976562 167.776367188 c 4
 381.32421875 167.776367188 408.922851562 166.745117188 421.130859375 139.256835938 c 4
 435.025390625 107.96484375 482.408203125 85.9951171875 529.102539062 85.9951171875 c 4
EndSplineSet
EndChar

StartChar: six.small
Encoding: 65567 -1 100
Width: 1008
VWidth: 4000
Flags: HW
HStem: 254.809 48<433.244 594.566> 542.934 48<432.938 594.566> 754.27 48<453.837 607.863>
VStem: 307.461 48<513.439 642.94> 652.539 48<356.62 489.122>
LayerCount: 2
Fore
SplineSet
514.0625 278.938476562 m 0
 448.499023438 278.938476562 399.581054688 233.408203125 399.581054688 182.87109375 c 0
 399.581054688 132.333984375 448.499023438 86.8037109375 514.0625 86.8037109375 c 0
 579.625976562 86.8037109375 628.543945312 132.333984375 628.543945312 182.87109375 c 0
 628.543945312 233.408203125 579.625976562 278.938476562 514.0625 278.938476562 c 0
714.966796875 463.088867188 m 0
 714.966796875 437.1796875 694.186523438 414.875976562 666.9609375 414.875976562 c 0
 661.365234375 414.875976562 638.28125 416.30859375 625.251953125 439.106445312 c 0
 623.522460938 441.924804688 592.998046875 490.274414062 533.0546875 490.274414062 c 0
 476.58203125 490.274414062 399.00390625 448.345703125 382.592773438 332.938476562 c 1
 419.146484375 359.549804688 465.110351562 374.928710938 514.0625 374.928710938 c 0
 628.584960938 374.928710938 724.534179688 290.860351562 724.534179688 182.87109375 c 0
 724.534179688 74.8798828125 628.58203125 -9.1865234375 514.0625 -9.1865234375 c 0
 453.473632812 -9.1865234375 397.463867188 14.373046875 358.206054688 53.630859375 c 0
 340.154296875 71.68359375 325.709960938 93.0224609375 316.201171875 116.90234375 c 0
 284.65625 189.56640625 283.465820312 247.975585938 283.465820312 286.42578125 c 0
 283.465820312 488.318359375 414.49609375 586.264648438 533.0546875 586.264648438 c 0
 633.18359375 586.264648438 692.05859375 515.712890625 708.642578125 486.684570312 c 0
 712.99609375 479.0703125 714.966796875 470.977539062 714.966796875 463.088867188 c 0
EndSplineSet
EndChar

StartChar: seven.small
Encoding: 65568 -1 101
Width: 1008
VWidth: 4000
Flags: HW
HStem: 735.005 47.9906<425.426 494.336> 753.653 47.9906<652.414 725.746> 782.995 48<409.414 494.336>
VStem: 293.2 47.9999<643.018 755.469> 341.2 47.9907<643.018 700.882> 466.341 95.9906<246.516 486.066>
LayerCount: 2
Fore
SplineSet
514.3359375 0.0048828125 m 4x54
 487.828125 0.0048828125 466.340820312 21.4921875 466.340820312 48 c 4
 466.340820312 226.438476562 535.436523438 359.114257812 612.322265625 465.047851562 c 5
 599.331054688 467.8359375 587.506835938 471.568359375 576.248046875 475.08984375 c 4
 551.423828125 482.85546875 528.672851562 490.004882812 494.3359375 490.004882812 c 4
 450.76953125 490.004882812 389.190429688 459.861328125 389.190429688 398 c 4x8c
 389.190429688 371.4921875 367.703125 350.004882812 341.1953125 350.004882812 c 4
 314.6875 350.004882812 293.200195312 371.4921875 293.200195312 398 c 6
 293.200195312 528 l 6
 293.200195312 554.5078125 314.6875 575.995117188 341.1953125 575.995117188 c 4
 347.2421875 575.995117188 368.540039062 574.452148438 381.724609375 553.719726562 c 5
 414.986328125 574.573242188 454.313476562 585.995117188 494.3359375 585.995117188 c 4x34
 574.048828125 585.995117188 615.990234375 556.643554688 652.4140625 556.643554688 c 4
 678.608398438 556.643554688 691.001953125 565.076171875 693.764648438 567.251953125 c 4
 702.297851562 575.140625 713.741210938 579.995117188 726.3359375 579.995117188 c 4
 753.686523438 579.995117188 774.37109375 557.541015625 774.37109375 531.958984375 c 4
 774.37109375 521.615234375 770.98046875 510.234375 762.736328125 500.706054688 c 4
 663.357421875 381.418945312 562.331054688 249.817382812 562.331054688 48 c 4
 562.331054688 21.4921875 540.84375 0.0048828125 514.3359375 0.0048828125 c 4x54
EndSplineSet
EndChar

StartChar: eight.small
Encoding: 65569 -1 102
Width: 1008
VWidth: 4000
Flags: HW
HStem: 230.005 47.9906<403.235 604.763> 278.005 47.9906<414.131 593.873> 490.005 47.9906<414.127 593.869> 538.005 47.9906<423.097 584.904> 730.005 47.9906<406.359 601.639> 778.005 47.9906<407.934 600.07>
VStem: 276.005 47.9906<343.355 471.783> 296.005 47.9906<595.345 719.589> 324.005 47.9906<363.079 452.919> 344.005 47.9906<616.092 699.906> 616.005 47.9906<616.094 699.908> 636.005 47.9906<363.081 452.921> 664.005 47.9906<595.026 719.586> 684.005 47.9906<343.354 471.364>
LayerCount: 2
Fore
SplineSet
391.995117188 418 m 0xfc60
 391.995117188 379.235351562 444.65625 345.995117188 504 345.995117188 c 0
 563.349609375 345.995117188 616.004882812 379.239257812 616.004882812 418 c 0
 616.004882812 456.764648438 563.34375 490.004882812 504 490.004882812 c 0
 444.650390625 490.004882812 391.995117188 456.760742188 391.995117188 418 c 0xfc60
371.995117188 168 m 0xfc90
 371.995117188 124.123046875 433.846679688 85.9951171875 504 85.9951171875 c 0
 574.16015625 85.9951171875 636.004882812 124.126953125 636.004882812 168 c 0
 636.004882812 211.876953125 574.153320312 250.004882812 504 250.004882812 c 0
 433.83984375 250.004882812 371.995117188 211.873046875 371.995117188 168 c 0xfc90
296.004882812 418 m 0
 296.004882812 509.709960938 386.006835938 585.995117188 504 585.995117188 c 0
 622.001953125 585.995117188 711.995117188 509.702148438 711.995117188 418 c 0xfd08
 711.995117188 393.439453125 704.877929688 344.40625 655.061523438 301.974609375 c 1
 679.421875 285.23046875 731.995117188 240.67578125 731.995117188 168 c 0
 731.995117188 70.802734375 633.698242188 -9.9951171875 504 -9.9951171875 c 0
 374.305664062 -9.9951171875 276.004882812 70.7998046875 276.004882812 168 c 0xfe04
 276.004882812 193.680664062 283.993164062 254.584960938 352.939453125 301.974609375 c 1
 332.224609375 319.618164062 296.004882812 358.918945312 296.004882812 418 c 0
EndSplineSet
EndChar

StartChar: nine.small
Encoding: 65570 -1 103
Width: 1008
VWidth: 4000
Flags: HW
HStem: 230.813 47.9906<393.192 474.945> 278.813 47.9906<408.803 474.945> 442.149 95.9906<406.451 582.841> 730.274 95.9906<406.452 600.216>
VStem: 283.466 47.9906<558.976 707.037> 331.466 47.9906<576.221 692.367> 608.419 47.9906<576.047 692.193> 676.544 47.9906<405.749 530.652 546.478 667.18>
LayerCount: 2
Fore
SplineSet
493.9375 298.139648438 m 0
 559.500976562 298.139648438 608.418945312 343.669921875 608.418945312 394.20703125 c 0
 608.418945312 444.744140625 559.500976562 490.274414062 493.9375 490.274414062 c 0
 428.374023438 490.274414062 379.456054688 444.744140625 379.456054688 394.20703125 c 0
 379.456054688 343.669921875 428.374023438 298.139648438 493.9375 298.139648438 c 0
293.033203125 113.989257812 m 0
 293.033203125 139.8984375 313.813476562 162.202148438 341.0390625 162.202148438 c 0
 346.634765625 162.202148438 369.71875 160.76953125 382.748046875 137.971679688 c 0
 384.477539062 135.153320312 415.001953125 86.8037109375 474.9453125 86.8037109375 c 0
 531.41796875 86.8037109375 608.99609375 128.732421875 625.407226562 244.139648438 c 1
 588.853515625 217.528320312 542.889648438 202.149414062 493.9375 202.149414062 c 0
 379.415039062 202.149414062 283.465820312 286.217773438 283.465820312 394.20703125 c 0
 283.465820312 502.198242188 379.41796875 586.264648438 493.9375 586.264648438 c 0
 554.526367188 586.264648438 610.536132812 562.705078125 649.793945312 523.447265625 c 0
 667.845703125 505.39453125 682.290039062 484.055664062 691.798828125 460.17578125 c 0
 723.34375 387.51171875 724.534179688 329.102539062 724.534179688 290.65234375 c 0
 724.534179688 88.759765625 593.50390625 -9.1865234375 474.9453125 -9.1865234375 c 0
 374.81640625 -9.1865234375 315.94140625 61.365234375 299.357421875 90.3935546875 c 0
 295.00390625 98.0078125 293.033203125 106.100585938 293.033203125 113.989257812 c 0
EndSplineSet
EndChar

StartChar: fractiondash
Encoding: 65571 -1 107
Width: 1008
Flags: HW
LayerCount: 2
Fore
SplineSet
896 575.990587706 m 2
 922.520378241 575.990587706 943.990587706 554.520636655 943.990587706 528 c 0
 943.990587706 501.479621759 922.520636655 480.009412294 896 480.009412294 c 2
 112 480.009412294 l 2
 85.4796217588 480.009412294 64.0094122941 501.479363345 64.0094122941 528 c 0
 64.0094122941 554.520378241 85.4793633448 575.990587706 112 575.990587706 c 2
 896 575.990587706 l 2
EndSplineSet
EndChar

StartChar: ringabove.largegeneric
Encoding: 65572 -1 111
Width: 1008
VWidth: 4000
Flags: HW
LayerCount: 2
Fore
SplineSet
504 1040.00488281 m 4
 420.075195312 1040.00488281 352.004882812 1108.07226562 352.004882812 1192 c 4
 352.004882812 1275.92480469 420.072265625 1343.99511719 504 1343.99511719 c 4
 587.924804688 1343.99511719 655.995117188 1275.92773438 655.995117188 1192 c 4
 655.995117188 1108.07519531 587.927734375 1040.00488281 504 1040.00488281 c 4
504 1136.00488281 m 4
 534.966796875 1136.00488281 559.995117188 1161.03027344 559.995117188 1192 c 4
 559.995117188 1222.96679688 534.969726562 1247.99511719 504 1247.99511719 c 4
 473.033203125 1247.99511719 448.004882812 1222.96972656 448.004882812 1192 c 4
 448.004882812 1161.03320312 473.030273438 1136.00488281 504 1136.00488281 c 4
EndSplineSet
EndChar

StartChar: ringabove.hugegeneric
Encoding: 65573 -1 112
Width: 1008
VWidth: 4000
Flags: HW
LayerCount: 2
Fore
SplineSet
583.990234375 1168 m 4
 583.990234375 1212.22753906 548.227539062 1247.99023438 504 1247.99023438 c 4
 459.772460938 1247.99023438 424.009765625 1212.22753906 424.009765625 1168 c 4
 424.009765625 1123.77246094 459.772460938 1088.00976562 504 1088.00976562 c 4
 548.227539062 1088.00976562 583.990234375 1123.77246094 583.990234375 1168 c 4
679.990234375 1168 m 4
 679.990234375 1070.80957031 601.184570312 992.009765625 504 992.009765625 c 4
 406.809570312 992.009765625 328.009765625 1070.81542969 328.009765625 1168 c 4
 328.009765625 1265.19042969 406.815429688 1343.99023438 504 1343.99023438 c 4
 601.190429688 1343.99023438 679.990234375 1265.18457031 679.990234375 1168 c 4
EndSplineSet
EndChar

StartChar: yen
Encoding: 165 165 113
Width: 1008
VWidth: 4000
Flags: HW
HStem: 330 96<137.512 184 824 870.488>
LayerCount: 2
Fore
SplineSet
904 522 m 2
 930.4921875 522 952 543.5078125 952 570 c 0
 952 596.4921875 930.4921875 618 904 618 c 2
 649.52859933 618 l 1
 832.742885044 960 l 1
 904 960 l 2
 930.4921875 960 952 981.5078125 952 1008 c 0
 952 1034.4921875 930.4921875 1056 904 1056 c 2
 804 1056 l 1
 664 1056 l 2
 637.5078125 1056 616 1034.4921875 616 1008 c 0
 616 981.5078125 637.5078125 960 664 960 c 2
 723.82862546 960 l 1
 540.614736548 618 l 1
 467.385263452 618 l 1
 284.17137454 960 l 1
 344 960 l 2
 370.4921875 960 392 981.5078125 392 1008 c 0
 392 1034.4921875 370.4921875 1056 344 1056 c 2
 204 1056 l 1
 104 1056 l 2
 77.5078125 1056 56 1034.4921875 56 1008 c 0
 56 981.5078125 77.5078125 960 104 960 c 2
 175.257114956 960 l 1
 358.47140067 618 l 1
 104 618 l 2
 77.5078125 618 56 596.4921875 56 570 c 0
 56 543.5078125 77.5078125 522 104 522 c 2
 409.899972099 522 l 1
 456 435.946614584 l 1
 456 426 l 1
 104 426 l 2
 77.5078125 426 56 404.4921875 56 378 c 0
 56 351.5078125 77.5078125 330 104 330 c 2
 456 330 l 1
 456 96 l 1
 344 96 l 2
 317.5078125 96 296 74.4921875 296 48 c 0
 296 21.5078125 317.5078125 0 344 0 c 2
 504 0 l 1
 664 0 l 2
 690.4921875 0 712 21.5078125 712 48 c 0
 712 74.4921875 690.4921875 96 664 96 c 2
 552 96 l 1
 552 330 l 1
 904 330 l 2
 930.4921875 330 952 351.5078125 952 378 c 0
 952 404.4921875 930.4921875 426 904 426 c 2
 552 426 l 1
 552 435.946614584 l 1
 598.100027901 522 l 1
 904 522 l 2
EndSplineSet
EndChar

StartChar: copyright
Encoding: 169 169 114
Width: 1008
Flags: HW
LayerCount: 2
Fore
SplineSet
504 24.0094122941 m 0
 225.475832834 24.0094122941 0.00941229405707 249.483739549 0.00941229405707 528 c 0
 0.00941229405707 806.524167166 225.483739549 1031.99058771 504 1031.99058771 c 0
 782.524167166 1031.99058771 1007.99058771 806.516260451 1007.99058771 528 c 0
 1007.99058771 249.475832834 782.516260451 24.0094122941 504 24.0094122941 c 0
504 936.009412294 m 0
 278.515427678 936.009412294 95.9905877059 753.475000888 95.9905877059 528 c 0
 95.9905877059 302.515427678 278.524999112 119.990587706 504 119.990587706 c 0
 729.484572322 119.990587706 912.009412294 302.524999112 912.009412294 528 c 0
 912.009412294 753.484572322 729.475000888 936.009412294 504 936.009412294 c 0
615.061840746 787.38100295 m 1
 616.707487665 791.104749503 628.835024752 815.995293853 658.983398438 815.995293853 c 0
 685.491066632 815.995293853 706.97869229 794.507528339 706.97869229 768 c 2
 706.97869229 629.068947254 l 2
 706.98721504 628.696271007 706.991461717 628.324639535 706.991461717 627.95405287 c 0
 706.991461717 601.688682414 685.635883027 580.004706147 658.983398438 580.004706147 c 0
 637.022393913 580.004706147 618.291057636 594.809958807 612.701933876 615.251752269 c 0
 606.151804492 638.991383995 592.469877226 676.624121552 567.037021647 702.05697713 c 0
 541.674643623 727.419355154 516.047397921 730.004706147 498.983398438 730.004706147 c 0
 479.169336945 730.004706147 464.097297266 721.922489754 450.977441304 708.802633792 c 0
 420.704022757 678.529215244 396.97869229 613.759629683 396.97869229 528 c 0
 396.97869229 420.597566397 449.286080219 325.995293853 518.983398438 325.995293853 c 0
 542.718844489 325.995293853 579.339238795 334.553861467 614.172800057 425.224859722 c 0
 621.115073776 443.294757617 638.621256348 455.995293853 658.983398438 455.995293853 c 0
 686.071232827 455.995293853 706.998494089 433.809439699 706.998494089 407.920384596 c 0
 706.998494089 402.266282302 705.98444871 396.475049408 703.795021387 390.775265233 c 0
 686.656461984 346.164923115 638.07764449 230.004706147 518.983398438 230.004706147 c 0
 396.085192794 230.004706147 300.988104585 358.541702313 300.988104585 528 c 0
 300.988104585 632.617105489 329.221381785 722.655734813 383.208662264 776.643015292 c 0
 414.140948242 807.57530127 453.888216299 825.995293853 498.983398438 825.995293853 c 0
 519.415030261 825.995293853 568.277064383 823.299826048 615.061840746 787.38100295 c 1
EndSplineSet
EndChar

StartChar: registered
Encoding: 174 174 115
Width: 1008
Flags: HW
LayerCount: 2
Fore
SplineSet
504 24.0094122941 m 0
 225.475832834 24.0094122941 0.00941229405707 249.483739549 0.00941229405707 528 c 0
 0.00941229405707 806.524167166 225.483739549 1031.99058771 504 1031.99058771 c 0
 782.524167166 1031.99058771 1007.99058771 806.516260451 1007.99058771 528 c 0
 1007.99058771 249.475832834 782.516260451 24.0094122941 504 24.0094122941 c 0
504 936.009412294 m 0
 278.515427678 936.009412294 95.9905877059 753.475000888 95.9905877059 528 c 0
 95.9905877059 302.515427678 278.524999112 119.990587706 504 119.990587706 c 0
 729.484572322 119.990587706 912.009412294 302.524999112 912.009412294 528 c 0
 912.009412294 753.484572322 729.475000888 936.009412294 504 936.009412294 c 0
608.008612397 665.140625 m 0
 608.008612397 693.623180987 581.256604711 720.004706147 544.57421875 720.004706147 c 2
 412.569512603 720.004706147 l 1
 412.569512603 610.276543853 l 1
 544.57421875 610.276543853 l 2
 581.254401929 610.276543853 608.008612397 636.656084656 608.008612397 665.140625 c 0
256.578924897 768 m 0
 256.578924897 794.507668195 278.066690411 815.995293853 304.57421875 815.995293853 c 2
 544.57421875 815.995293853 l 2
 631.463231248 815.995293853 703.999200103 749.626798257 703.999200103 665.140625 c 0
 703.999200103 597.444621011 657.430523169 541.393224828 594.251335972 521.780473332 c 1
 647.445677624 463.92000293 672.282598322 390.601259889 685.869272702 335.995293853 c 1
 703.42578125 335.995293853 l 2
 729.933449445 335.995293853 751.421075103 314.507528339 751.421075103 288 c 0
 751.421075103 261.492331805 729.933309589 240.004706147 703.42578125 240.004706147 c 2
 647.42578125 240.004706147 l 2
 624.343911325 240.004706147 604.801728036 256.356113968 600.364564005 278.541934124 c 0
 565.501749898 452.879137183 491.916670231 503.00878949 412.569512603 512.514576497 c 1
 412.569512603 335.995293853 l 1
 424.57421875 335.995293853 l 2
 451.081886945 335.995293853 472.569512603 314.507528339 472.569512603 288 c 0
 472.569512603 261.492331805 451.081747089 240.004706147 424.57421875 240.004706147 c 0
 304.57421875 240.004706147 304.57421875 240.004706147 304.57421875 240.004706147 c 2
 278.066550555 240.004706147 256.578924897 261.492471661 256.578924897 288 c 0
 256.578924897 314.507668195 278.066690411 335.995293853 304.57421875 335.995293853 c 2
 316.578924897 335.995293853 l 1
 316.578924897 720.004706147 l 1
 304.57421875 720.004706147 l 2
 278.066550555 720.004706147 256.578924897 741.492471661 256.578924897 768 c 0
EndSplineSet
EndChar

StartChar: acute
Encoding: 180 180 116
Width: 1008
VWidth: 4000
Flags: HW
VStem: 256 496
LayerCount: 2
Fore
SplineSet
670.065429688 1041.93457031 m 2
 700.205078125 1072.07324219 752 1050.49609375 752 1008 c 0
 752 994.75390625 746.623046875 982.75390625 737.934570312 974.065429688 c 2
 337.934570312 574.065429688 l 2
 307.794921875 543.926757812 256 565.50390625 256 608 c 0
 256 621.24609375 261.376953125 633.24609375 270.065429688 641.934570312 c 2
 670.065429688 1041.93457031 l 2
EndSplineSet
EndChar

StartChar: currency
Encoding: 164 164 117
Width: 1008
Flags: HW
LayerCount: 2
Fore
SplineSet
385.20703125 646.787109375 m 4
 352.390625 613.970703125 335.983398438 570.981445312 335.983398438 527.993164062 c 4
 335.983398438 485.00390625 352.390625 442.015625 385.20703125 409.19921875 c 4
 418.017578125 376.388671875 461.009765625 359.984375 504.000976562 359.984375 c 4
 546.993164062 359.984375 589.985351562 376.388671875 622.794921875 409.19921875 c 4
 655.609375 442.012695312 672.014648438 485.002929688 672.014648438 527.9921875 c 4
 672.014648438 570.983398438 655.607421875 613.974609375 622.794921875 646.787109375 c 4
 589.978515625 679.603515625 546.990234375 696.010742188 504.000976562 696.010742188 c 4
 461.012695312 696.010742188 418.0234375 679.603515625 385.20703125 646.787109375 c 4
286.465820312 378.334960938 m 5
 255.499023438 423.244140625 240.015625 475.618164062 240.015625 527.9921875 c 4
 240.015625 580.370117188 255.500976562 632.748046875 286.471679688 677.659179688 c 5
 164.596679688 799.534179688 l 6
 155.908203125 808.22265625 150.53125 820.22265625 150.53125 833.46875 c 4
 150.53125 862.267578125 174.318359375 881.458984375 199.032226562 881.458984375 c 4
 210.787109375 881.458984375 222.750976562 877.1171875 232.465820312 867.403320312 c 6
 354.341796875 745.52734375 l 5
 399.250976562 776.495117188 451.625976562 791.978515625 504.001953125 791.978515625 c 4
 556.375976562 791.978515625 608.75 776.495117188 653.659179688 745.528320312 c 5
 775.534179688 867.403320312 l 6
 784.22265625 876.091796875 796.22265625 881.46875 809.46875 881.46875 c 4
 838.267578125 881.46875 857.458984375 857.681640625 857.458984375 832.967773438 c 4
 857.458984375 821.212890625 853.1171875 809.249023438 843.403320312 799.534179688 c 6
 721.529296875 677.66015625 l 5
 752.498046875 632.750976562 767.983398438 580.37109375 767.983398438 527.991210938 c 4
 767.983398438 475.6171875 752.501953125 423.2421875 721.536132812 378.333007812 c 5
 843.403320312 256.465820312 l 6
 852.091796875 247.77734375 857.46875 235.77734375 857.46875 222.53125 c 4
 857.46875 193.732421875 833.681640625 174.541015625 808.967773438 174.541015625 c 4
 797.212890625 174.541015625 785.249023438 178.8828125 775.534179688 188.596679688 c 6
 653.666992188 310.463867188 l 5
 608.7578125 279.497070312 556.379882812 264.014648438 504.001953125 264.014648438 c 4
 451.622070312 264.014648438 399.243164062 279.498046875 354.333984375 310.46484375 c 5
 232.465820312 188.596679688 l 6
 223.77734375 179.908203125 211.77734375 174.53125 198.53125 174.53125 c 4
 169.732421875 174.53125 150.541015625 198.318359375 150.541015625 223.032226562 c 4
 150.541015625 234.787109375 154.8828125 246.750976562 164.596679688 256.465820312 c 6
 286.465820312 378.334960938 l 5
EndSplineSet
EndChar

StartChar: brokenbar
Encoding: 166 166 118
Width: 1008
VWidth: 4000
Flags: HW
LayerCount: 2
Fore
SplineSet
552 198 m 2
 552 224.4921875 530.4921875 246 504 246 c 0
 477.5078125 246 456 224.4921875 456 198 c 2
 456 -232 l 2
 456 -258.4921875 477.5078125 -280 504 -280 c 0
 530.4921875 -280 552 -258.4921875 552 -232 c 2
 552 198 l 2
552 1008 m 2
 552 1034.4921875 530.4921875 1056 504 1056 c 0
 477.5078125 1056 456 1034.4921875 456 1008 c 2
 456 578 l 2
 456 551.5078125 477.5078125 530 504 530 c 0
 530.4921875 530 552 551.5078125 552 578 c 2
 552 1008 l 2
EndSplineSet
EndChar

StartChar: uni00AD
Encoding: 173 173 119
Width: 1008
VWidth: 4000
Flags: HW
HStem: 330 96<137.512 184 824 870.488>
LayerCount: 2
Fore
SplineSet
824 330 m 6
 850.4921875 330 872 351.5078125 872 378 c 4
 872 404.4921875 850.4921875 426 824 426 c 6
 184 426 l 6
 157.5078125 426 136 404.4921875 136 378 c 4
 136 351.5078125 157.5078125 330 184 330 c 6
 824 330 l 6
EndSplineSet
EndChar

StartChar: AE
Encoding: 198 198 120
Width: 1008
Flags: HW
LayerCount: 2
Fore
SplineSet
668 0 m 6
 694.4921875 0 716 21.5078125 716 48 c 4
 716 74.4921875 694.4921875 96 668 96 c 6
 488 96 l 6
 461.5078125 96 440 74.4921875 440 48 c 4
 440 21.5078125 461.5078125 0 488 0 c 6
 668 0 l 6
90.7392578125 64.009765625 m 6
 79.7451171875 32.9677734375 102.826171875 0 136 0 c 4
 156.87890625 0 174.663085938 13.359375 181.260742188 31.990234375 c 6
 509.930664062 960 l 5
 568 960 l 6
 594.4921875 960 616 981.5078125 616 1008 c 4
 616 1034.4921875 594.4921875 1056 568 1056 c 6
 476 1056 l 6
 455.12109375 1056 437.336914062 1042.640625 430.739257812 1024.00976562 c 6
 90.7392578125 64.009765625 l 6
246.5 408 m 6
 220.0078125 408 198.5 386.4921875 198.5 360 c 4
 198.5 333.5078125 220.0078125 312 246.5 312 c 6
 568 312 l 6
 594.4921875 312 616 333.5078125 616 360 c 4
 616 386.4921875 594.4921875 408 568 408 c 6
 246.5 408 l 6
520 68 m 6
 520 41.5078125 541.5078125 20 568 20 c 4
 594.4921875 20 616 41.5078125 616 68 c 6
 616 988 l 6
 616 1014.4921875 594.4921875 1036 568 1036 c 4
 541.5078125 1036 520 1014.4921875 520 988 c 6
 520 68 l 6
568 96 m 6
 541.5078125 96 520 74.4921875 520 48 c 4
 520 21.5078125 541.5078125 0 568 0 c 6
 892 0 l 6
 918.4921875 0 940 21.5078125 940 48 c 6
 940 288 l 6
 940 314.4921875 918.4921875 336 892 336 c 4
 865.5078125 336 844 314.4921875 844 288 c 6
 844 96 l 5
 568 96 l 6
833.875 960 m 5
 833.875 776 l 6
 833.875 749.5078125 855.3828125 728 881.875 728 c 4
 908.3671875 728 929.875 749.5078125 929.875 776 c 6
 929.875 1008 l 6
 929.875 1034.4921875 908.3671875 1056 881.875 1056 c 6
 568 1056 l 6
 541.5078125 1056 520 1034.4921875 520 1008 c 4
 520 981.5078125 541.5078125 960 568 960 c 6
 833.875 960 l 5
578.125 596 m 6
 551.6328125 596 530.125 574.4921875 530.125 548 c 4
 530.125 521.5078125 551.6328125 500 578.125 500 c 6
 740.125 500 l 6
 766.6171875 500 788.125 521.5078125 788.125 548 c 4
 788.125 574.4921875 766.6171875 596 740.125 596 c 6
 578.125 596 l 6
788.125 668 m 6
 788.125 694.4921875 766.6171875 716 740.125 716 c 4
 713.6328125 716 692.125 694.4921875 692.125 668 c 6
 692.125 408 l 6
 692.125 381.5078125 713.6328125 360 740.125 360 c 4
 766.6171875 360 788.125 381.5078125 788.125 408 c 6
 788.125 668 l 6
256 0 m 6
 282.4921875 0 304 21.5078125 304 48 c 4
 304 74.4921875 282.4921875 96 256 96 c 6
 56 96 l 6
 29.5078125 96 8 74.4921875 8 48 c 4
 8 21.5078125 29.5078125 0 56 0 c 6
 256 0 l 6
EndSplineSet
EndChar

StartChar: ae
Encoding: 230 230 121
Width: 1008
Flags: HW
LayerCount: 2
Fore
SplineSet
456 224.367539536 m 1
 446.764011544 212.235488821 438.259533989 200.615709292 430.25 189.677734375 c 0
 372.064453125 110.219726562 343.36328125 76 252.921875 76 c 0
 182.540039062 76 144 132.091796875 144 188 c 0
 144 247.97265625 162.92578125 355.21875 293.610351562 380.901367188 c 0
 370.396991849 395.998082167 423.441131481 400.53226847 456 401.499041899 c 1
 456 224.367539536 l 1
555.706054688 458 m 1
 572.08984375 595.19140625 640.534179688 680 703.984375 680 c 0
 733.28515625 680 758.708007812 668.517578125 782.3828125 645.56640625 c 0
 821.361328125 607.779296875 851.967773438 539.334960938 861.241210938 458 c 1
 555.706054688 458 l 1
860.365234375 219.317382812 m 0
 846.517578125 184.591796875 787.259765625 76 714.71875 76 c 0
 689.499023438 76 664.846679688 86.390625 640.661132812 110.176757812 c 0
 620.803710938 129.706054688 559.908203125 202.166992188 552.659179688 362 c 1
 912 362 l 2
 938.4921875 362 960 383.5078125 960 410 c 0
 960 595.61328125 861.879882812 776 703.984375 776 c 0
 634.962550827 776 566.861925791 733.128059685 519.544189064 654.700361172 c 1
 513.893871778 665.591316561 507.514545675 675.916312131 500.413085938 685.633789062 c 0
 457.26953125 744.670898438 390.060546875 776 315.6875 776 c 0
 189.642595422 776 78.5215292254 717.348457469 65.0544038671 610.202967642 c 0
 62.9655164816 603.165573602 61.8437510696 595.713277748 61.84375 588 c 0
 61.84375 544.951171875 96.794921875 510 139.84375 510 c 0
 182.912109375 510 217.84375 544.973632812 217.84375 588 c 0
 217.84375 611.465962835 207.457004064 632.526769482 191.034482811 646.83144932 c 1
 226.609960529 673.039056542 283.818177091 680 315.6875 680 c 0
 412.995117188 680 456 603.685546875 456 508 c 2
 456 497.535958603 l 1
 417.60940978 496.576358564 358.474713003 491.507192218 275.014648438 475.098632812 c 0
 137.3046875 448.03515625 48 342.166992188 48 188 c 0
 48 73.859375 134.580078125 -20 252.921875 -20 c 0
 312.403320312 -20 360.068359375 -6.83984375 398.765625 17.6201171875 c 0
 446.860351562 48.0185546875 476.756835938 90.716796875 507.751953125 133.044921875 c 0
 508.095145897 133.513561772 508.438558311 133.982491284 508.782213351 134.451707924 c 1
 555.387352847 38.3457419742 629.123584477 -20.0000000255 714.71875 -20 c 0
 789.889648438 -20 844.743164062 26.9560546875 880.369140625 69.541015625 c 0
 925.87109375 123.930664062 948.47265625 181.075195312 949.447265625 183.495117188 c 0
 962.069335938 214.818359375 938.9453125 249.40625 904.90625 249.40625 c 0
 884.744140625 249.40625 867.469726562 236.94921875 860.365234375 219.317382812 c 0
EndSplineSet
EndChar

StartChar: uni2114
Encoding: 8468 8468 122
Width: 1008
Flags: HW
LayerCount: 2
Fore
SplineSet
630 816 m 2
 656.4921875 816 678 837.5078125 678 864 c 0
 678 890.4921875 656.4921875 912 630 912 c 2
 564 912 l 1
 564 1008 l 2
 564 1034.4921875 542.4921875 1056 516 1056 c 2
 426.703125 1056 l 2
 400.2109375 1056 378.703125 1034.4921875 378.703125 1008 c 0
 378.703125 981.5078125 400.2109375 960 426.703125 960 c 2
 468 960 l 1
 468 912 l 1
 263.368104331 912 l 1
 263.296875 1008.03613281 l 2
 263.296875 1010.32526851 263.132908713 1012.57712061 262.820708122 1014.78102331 c 0
 259.522168624 1038.06694034 239.487490413 1056.00000015 215.296875 1056 c 2
 126 1056 l 2
 99.5078125 1056 78 1034.4921875 78 1008 c 0
 78 981.5078125 99.5078125 960 126 960 c 2
 167.332449466 960 l 1
 167.368050732 912 l 1
 126 912 l 2
 99.5078125 912 78 890.4921875 78 864 c 0
 78 837.5078125 99.5078125 816 126 816 c 2
 167.439253264 816 l 1
 167.973272251 96 l 1
 126 96 l 2
 99.5078125 96 78 74.4921875 78 48 c 0
 78 21.5078125 99.5078125 0 126 0 c 2
 306 0 l 2
 332.4921875 0 354 21.5078125 354 48 c 0
 354 74.4921875 332.4921875 96 306 96 c 2
 263.97332585 96 l 1
 263.439306863 816 l 1
 468 816 l 1
 468 378 l 1
 468 48 l 2
 468 21.5078125 489.5078125 0 516 0 c 0
 542.4921875 0 564 21.5078125 564 48 c 2
 564 48.0810521641 l 1
 599.568094067 5.14365911526 643.320749412 -20 692.3125 -20 c 0
 823.142578125 -20 916.625 159.317382812 916.625 378 c 0
 916.625 596.666015625 823.15234375 776 692.3125 776 c 0
 643.322435222 776 599.569148629 750.856645561 564 707.918133984 c 1
 564 816 l 1
 630 816 l 2
564 378 m 0
 564 554.581054688 634.240234375 680 692.3125 680 c 0
 750.383789062 680 820.625 554.583007812 820.625 378 c 0
 820.625 201.418945312 750.384765625 76 692.3125 76 c 0
 634.241210938 76 564 201.416992188 564 378 c 0
EndSplineSet
EndChar

StartChar: section
Encoding: 167 167 123
Width: 1008
Flags: HW
LayerCount: 2
Fore
SplineSet
639.100585938 1083.89648438 m 0
 639.100585938 1040.87011719 674.03125 1005.89648438 717.100585938 1005.89648438 c 0
 760.149414062 1005.89648438 795.100585938 1040.84765625 795.100585938 1083.89648438 c 0
 795.100585938 1219.30175781 685.309570312 1316.47460938 505.381835938 1316.47460938 c 0
 361.69140625 1316.47460938 257.522460938 1208.39550781 257.522460938 1074.16210938 c 0
 257.522460938 1002.70241782 284.583055288 946.130914346 320.681144059 899.061794659 c 1
 146.167129233 873.611978089 72.7729883047 632.440958997 231.345703125 473.938476562 c 2
 231.345703125 473.938476562 375.633588117 333.452311833 476.931924247 234.821845156 c 0
 477.063562479 234.690690154 477.195956883 234.560293648 477.329101562 234.430664062 c 0
 477.694639544 234.074753852 478.060765552 233.719755162 478.427479452 233.365674421 c 0
 532.395083288 180.819392063 573.792583642 140.511681035 573.938476562 140.368164062 c 0
 624.515625 89.9072265625 654.475585938 45.435546875 654.475585938 -18.166015625 c 0
 654.475585938 -97.1025390625 595.924804688 -164.478515625 502.616210938 -164.478515625 c 0
 437.181432754 -164.478515625 363.038888596 -147.205004203 328.525533771 -96.2359707963 c 1
 352.595013216 -82.9492046123 368.913085938 -57.3151225559 368.913085938 -27.900390625 c 0
 368.913085938 15.1484375 333.961914062 50.099609375 290.913085938 50.099609375 c 0
 247.84375 50.099609375 212.913085938 15.1259765625 212.913085938 -27.900390625 c 0
 212.913085938 -163.3125 322.698242188 -260.478515625 502.616210938 -260.478515625 c 0
 646.305664062 -260.478515625 750.475585938 -152.399414062 750.475585938 -18.166015625 c 0
 750.475585938 53.3078530392 723.408162816 109.880228159 687.312935394 156.947531222 c 1
 861.790032004 182.379732403 935.250965138 423.4746208 776.66015625 582.065429688 c 2
 776.66015625 582.065429688 632.380670132 722.543384289 531.084919111 821.171278588 c 0
 530.950304886 821.305411533 530.814899572 821.438750865 530.678710938 821.571289062 c 0
 530.327221043 821.913390546 529.975188318 822.254651198 529.622614633 822.595067086 c 0
 475.63627753 875.159557915 434.219426304 915.486071572 434.075195312 915.627929688 c 0
 383.48828125 966.083007812 353.522460938 1010.578125 353.522460938 1074.16210938 c 0
 353.522460938 1153.09765625 412.073242188 1220.47460938 505.381835938 1220.47460938 c 0
 570.837368827 1220.47460938 644.973379632 1203.19101588 679.485676148 1152.22982547 c 1
 655.418066137 1138.94208979 639.100585938 1113.30852596 639.100585938 1083.89648438 c 0
544.131349165 303.348594422 m 2
 299.19921875 541.822265625 l 2
 270.026367188 570.982421875 239.709960938 619.203125 239.709960938 675.818359375 c 0
 239.709960938 727.877929688 269.99609375 805.255859375 351.350585938 805.255859375 c 0
 390.735351562 805.255859375 426.651367188 788.8828125 463.741210938 752.783203125 c 0
 463.821559499 752.705000125 463.902054395 752.627156855 463.982694285 752.549672743 c 2
 708.791015625 514.196289062 l 2
 737.97265625 485.014648438 768.288085938 436.791992188 768.288085938 380.177734375 c 0
 768.288085938 328.115234375 738 250.755859375 656.663085938 250.755859375 c 0
 617.249023438 250.755859375 581.341796875 267.119140625 544.278320312 303.206054688 c 0
 544.229384142 303.253701363 544.180393659 303.301214565 544.131349165 303.348594422 c 2
EndSplineSet
EndChar

StartChar: uni2010
Encoding: 8208 8208 124
Width: 1008
VWidth: 4000
Flags: HW
HStem: 330 96<137.512 184 824 870.488>
LayerCount: 2
Fore
SplineSet
824 330 m 2
 850.4921875 330 872 351.5078125 872 378 c 0
 872 404.4921875 850.4921875 426 824 426 c 2
 184 426 l 2
 157.5078125 426 136 404.4921875 136 378 c 0
 136 351.5078125 157.5078125 330 184 330 c 2
 824 330 l 2
EndSplineSet
EndChar

StartChar: uni2011
Encoding: 8209 8209 125
Width: 1008
VWidth: 4000
Flags: HW
HStem: 330 96<137.512 184 824 870.488>
LayerCount: 2
Fore
SplineSet
824 330 m 2
 850.4921875 330 872 351.5078125 872 378 c 0
 872 404.4921875 850.4921875 426 824 426 c 2
 184 426 l 2
 157.5078125 426 136 404.4921875 136 378 c 0
 136 351.5078125 157.5078125 330 184 330 c 2
 824 330 l 2
EndSplineSet
EndChar

StartChar: figuredash
Encoding: 8210 8210 126
Width: 1008
VWidth: 4000
Flags: HW
HStem: 330 96<137.512 184 824 870.488>
LayerCount: 2
Fore
SplineSet
824 330 m 2
 850.4921875 330 872 351.5078125 872 378 c 0
 872 404.4921875 850.4921875 426 824 426 c 2
 184 426 l 2
 157.5078125 426 136 404.4921875 136 378 c 0
 136 351.5078125 157.5078125 330 184 330 c 2
 824 330 l 2
EndSplineSet
EndChar

StartChar: endash
Encoding: 8211 8211 127
Width: 1008
VWidth: 4000
Flags: HW
HStem: 330 96<137.512 184 824 870.488>
LayerCount: 2
Fore
SplineSet
892 330 m 2
 918.4921875 330 940 351.5078125 940 378 c 0
 940 404.4921875 918.4921875 426 892 426 c 2
 116 426 l 2
 89.5078125 426 68 404.4921875 68 378 c 0
 68 351.5078125 89.5078125 330 116 330 c 2
 892 330 l 2
EndSplineSet
EndChar

StartChar: emdash
Encoding: 8212 8212 128
Width: 1008
VWidth: 4000
Flags: HW
HStem: 330 96<137.512 184 824 870.488>
LayerCount: 2
Fore
SplineSet
960 330 m 2
 986.4921875 330 1008 351.5078125 1008 378 c 0
 1008 404.4921875 986.4921875 426 960 426 c 2
 48 426 l 2
 21.5078125 426 0 404.4921875 0 378 c 0
 0 351.5078125 21.5078125 330 48 330 c 2
 960 330 l 2
EndSplineSet
EndChar

StartChar: uni2015
Encoding: 8213 8213 129
Width: 1008
VWidth: 4000
Flags: HW
HStem: 330 96<137.512 184 824 870.488>
LayerCount: 2
Fore
SplineSet
960 330 m 2
 986.4921875 330 1008 351.5078125 1008 378 c 0
 1008 404.4921875 986.4921875 426 960 426 c 2
 48 426 l 2
 21.5078125 426 0 404.4921875 0 378 c 0
 0 351.5078125 21.5078125 330 48 330 c 2
 960 330 l 2
EndSplineSet
EndChar

StartChar: uni2016
Encoding: 8214 8214 130
Width: 1008
VWidth: 4000
Flags: HW
LayerCount: 2
Fore
SplineSet
648 1008 m 2
 648 1034.4921875 626.4921875 1056 600 1056 c 0
 573.5078125 1056 552 1034.4921875 552 1008 c 2
 552 -232 l 2
 552 -258.4921875 573.5078125 -280 600 -280 c 0
 626.4921875 -280 648 -258.4921875 648 -232 c 2
 648 1008 l 2
456 1008 m 2
 456 1034.4921875 434.4921875 1056 408 1056 c 0
 381.5078125 1056 360 1034.4921875 360 1008 c 2
 360 -232 l 2
 360 -258.4921875 381.5078125 -280 408 -280 c 0
 434.4921875 -280 456 -258.4921875 456 -232 c 2
 456 1008 l 2
EndSplineSet
EndChar

StartChar: underscoredbl
Encoding: 8215 8215 131
Width: 1008
VWidth: 4000
Flags: HW
LayerCount: 2
Fore
SplineSet
64 -12 m 2
 37.5078125 -12 16 -33.5078125 16 -60 c 0
 16 -86.4921875 37.5078125 -108 64 -108 c 2
 944 -108 l 2
 970.4921875 -108 992 -86.4921875 992 -60 c 0
 992 -33.5078125 970.4921875 -12 944 -12 c 2
 64 -12 l 2
64 -204 m 2
 37.5078125 -204 16 -225.5078125 16 -252 c 0
 16 -278.4921875 37.5078125 -300 64 -300 c 2
 944 -300 l 2
 970.4921875 -300 992 -278.4921875 992 -252 c 0
 992 -225.5078125 970.4921875 -204 944 -204 c 2
 64 -204 l 2
EndSplineSet
EndChar

StartChar: bullet
Encoding: 8226 8226 132
Width: 1008
VWidth: 4000
Flags: HW
LayerCount: 2
Fore
SplineSet
259 378.015625 m 4
 259 242.740234375 368.802734375 133.015625 504 133.015625 c 4
 639.197265625 133.015625 749 242.740234375 749 378.015625 c 4
 749 513.245117188 639.229492188 623.015625 504 623.015625 c 4
 368.770507812 623.015625 259 513.245117188 259 378.015625 c 4
EndSplineSet
EndChar

StartChar: onedotenleader
Encoding: 8228 8228 133
Width: 1008
VWidth: 4000
Flags: HW
LayerCount: 2
Fore
SplineSet
406 78.015625 m 0
 406 23.9052734375 449.920898438 -19.984375 504 -19.984375 c 0
 558.079101562 -19.984375 602 23.9052734375 602 78.015625 c 0
 602 132.107421875 558.091796875 176.015625 504 176.015625 c 0
 449.908203125 176.015625 406 132.107421875 406 78.015625 c 0
EndSplineSet
EndChar

StartChar: twodotenleader
Encoding: 8229 8229 134
Width: 1008
VWidth: 4000
Flags: HW
LayerCount: 2
Fore
SplineSet
606 78.015625 m 4
 606 23.9052734375 649.920898438 -19.984375 704 -19.984375 c 4
 758.079101562 -19.984375 802 23.9052734375 802 78.015625 c 4
 802 132.107421875 758.091796875 176.015625 704 176.015625 c 4
 649.908203125 176.015625 606 132.107421875 606 78.015625 c 4
206 78.015625 m 4
 206 23.9052734375 249.920898438 -19.984375 304 -19.984375 c 4
 358.079101562 -19.984375 402 23.9052734375 402 78.015625 c 4
 402 132.107421875 358.091796875 176.015625 304 176.015625 c 4
 249.908203125 176.015625 206 132.107421875 206 78.015625 c 4
EndSplineSet
EndChar

StartChar: ellipsis
Encoding: 8230 8230 135
Width: 1008
VWidth: 4000
Flags: HW
LayerCount: 2
Fore
SplineSet
406 78.015625 m 0
 406 23.9052734375 449.920898438 -19.984375 504 -19.984375 c 0
 558.079101562 -19.984375 602 23.9052734375 602 78.015625 c 0
 602 132.107421875 558.091796875 176.015625 504 176.015625 c 0
 449.908203125 176.015625 406 132.107421875 406 78.015625 c 0
742 78.015625 m 0
 742 23.9052734375 785.920898438 -19.984375 840 -19.984375 c 0
 894.079101562 -19.984375 938 23.9052734375 938 78.015625 c 0
 938 132.107421875 894.091796875 176.015625 840 176.015625 c 0
 785.908203125 176.015625 742 132.107421875 742 78.015625 c 0
70 78.015625 m 0
 70 23.9052734375 113.920898438 -19.984375 168 -19.984375 c 0
 222.079101562 -19.984375 266 23.9052734375 266 78.015625 c 0
 266 132.107421875 222.091796875 176.015625 168 176.015625 c 0
 113.908203125 176.015625 70 132.107421875 70 78.015625 c 0
EndSplineSet
EndChar

StartChar: exclamdbl
Encoding: 8252 8252 136
Width: 1008
VWidth: 4000
Flags: HW
LayerCount: 2
Fore
SplineSet
606 78 m 0
 606 23.908203125 649.908203125 -20 704 -20 c 0
 758.091796875 -20 802 23.908203125 802 78 c 0
 802 132.091796875 758.091796875 176 704 176 c 0
 649.908203125 176 606 132.091796875 606 78 c 0
704 280 m 0
 729.532226562 280 750.435546875 299.978515625 751.916015625 325.142578125 c 0
 792 1006.56738281 792 1006.56738281 792 1008 c 0
 792 1034.4921875 770.4921875 1056 744 1056 c 2
 664 1056 l 2
 637.5078125 1056 616 1034.4921875 616 1008 c 0
 616 1006.56738281 616 1006.56738281 656.083984375 325.142578125 c 0
 657.564453125 299.978515625 678.467773438 280 704 280 c 0
206 78 m 0
 206 23.908203125 249.908203125 -20 304 -20 c 0
 358.091796875 -20 402 23.908203125 402 78 c 0
 402 132.091796875 358.091796875 176 304 176 c 0
 249.908203125 176 206 132.091796875 206 78 c 0
304 280 m 0
 329.532226562 280 350.435546875 299.978515625 351.916015625 325.142578125 c 0
 392 1006.56738281 392 1006.56738281 392 1008 c 0
 392 1034.4921875 370.4921875 1056 344 1056 c 2
 264 1056 l 2
 237.5078125 1056 216 1034.4921875 216 1008 c 0
 216 1006.56738281 216 1006.56738281 256.083984375 325.142578125 c 0
 257.564453125 299.978515625 278.467773438 280 304 280 c 0
EndSplineSet
EndChar

StartChar: uni2051
Encoding: 8273 8273 137
Width: 1008
VWidth: 4000
Flags: HW
HStem: 680 96<157.512 204 804 850.488>
LayerCount: 2
Fore
SplineSet
695.599609375 363.864257812 m 6
 713.946289062 395.642578125 690.900390625 435.8125 654 435.8125 c 4
 636.2265625 435.8125 620.697265625 426.131835938 612.400390625 411.760742188 c 6
 504 224.001953125 l 5
 395.599609375 411.760742188 l 6
 387.302734375 426.131835938 371.7734375 435.8125 354 435.8125 c 4
 317.099609375 435.8125 294.053710938 395.641601562 312.400390625 363.864257812 c 6
 420.862304688 176 l 5
 204 176 l 6
 177.5078125 176 156 154.4921875 156 128 c 4
 156 101.5078125 177.5078125 80 204 80 c 6
 420.862304688 80 l 5
 312.400390625 -107.864257812 l 6
 294.053710938 -139.642578125 317.099609375 -179.8125 354 -179.8125 c 4
 371.7734375 -179.8125 387.302734375 -170.131835938 395.599609375 -155.760742188 c 6
 504 31.998046875 l 5
 612.400390625 -155.760742188 l 6
 620.697265625 -170.131835938 636.2265625 -179.8125 654 -179.8125 c 4
 690.900390625 -179.8125 713.946289062 -139.641601562 695.599609375 -107.864257812 c 6
 587.137695312 80 l 5
 804 80 l 6
 830.4921875 80 852 101.5078125 852 128 c 4
 852 154.4921875 830.4921875 176 804 176 c 6
 587.137695312 176 l 5
 695.599609375 363.864257812 l 6
695.599609375 1163.86425781 m 6
 713.946289062 1195.64257812 690.900390625 1235.8125 654 1235.8125 c 4
 636.2265625 1235.8125 620.697265625 1226.13183594 612.400390625 1211.76074219 c 6
 504 1024.00195312 l 5
 395.599609375 1211.76074219 l 6
 387.302734375 1226.13183594 371.7734375 1235.8125 354 1235.8125 c 4
 317.099609375 1235.8125 294.053710938 1195.64160156 312.400390625 1163.86425781 c 6
 420.862304688 976 l 5
 204 976 l 6
 177.5078125 976 156 954.4921875 156 928 c 4
 156 901.5078125 177.5078125 880 204 880 c 6
 420.862304688 880 l 5
 312.400390625 692.135742188 l 6
 294.053710938 660.357421875 317.099609375 620.1875 354 620.1875 c 4
 371.7734375 620.1875 387.302734375 629.868164062 395.599609375 644.239257812 c 6
 504 831.998046875 l 5
 612.400390625 644.239257812 l 6
 620.697265625 629.868164062 636.2265625 620.1875 654 620.1875 c 4
 690.900390625 620.1875 713.946289062 660.358398438 695.599609375 692.135742188 c 6
 587.137695312 880 l 5
 804 880 l 6
 830.4921875 880 852 901.5078125 852 928 c 4
 852 954.4921875 830.4921875 976 804 976 c 6
 587.137695312 976 l 5
 695.599609375 1163.86425781 l 6
EndSplineSet
EndChar

StartChar: uni2042
Encoding: 8258 8258 138
Width: 1008
VWidth: 4000
Flags: HW
LayerCount: 2
Fore
SplineSet
371.61328125 889.921875 m 0
 371.61328125 915.72265625 392.291992188 938.140625 419.625 938.140625 c 0
 425.184570312 938.140625 448.1640625 936.72265625 461.216796875 914.112304688 c 2
 504 840.009765625 l 1
 546.782226562 914.112304688 l 2
 549.565429688 918.932617188 562.291015625 938.140625 588.375 938.140625 c 0
 615.708007812 938.140625 636.38671875 915.72265625 636.38671875 889.921875 c 0
 636.38671875 881.9765625 634.385742188 873.829101562 629.967773438 866.176757812 c 2
 587.140625 791.99609375 l 1
 672.75 791.99609375 l 2
 699.256835938 791.99609375 720.74609375 770.505859375 720.74609375 744 c 0
 720.74609375 717.493164062 699.255859375 696.00390625 672.75 696.00390625 c 2
 587.140625 696.00390625 l 1
 629.966796875 621.823242188 l 2
 634.385742188 614.170898438 636.38671875 606.0234375 636.38671875 598.078125 c 0
 636.38671875 572.27734375 615.708007812 549.859375 588.375 549.859375 c 0
 582.815429688 549.859375 559.8359375 551.27734375 546.783203125 573.887695312 c 2
 504 647.990234375 l 1
 461.217773438 573.887695312 l 2
 458.434570312 569.067382812 445.708984375 549.859375 419.625 549.859375 c 0
 392.291992188 549.859375 371.61328125 572.27734375 371.61328125 598.078125 c 0
 371.61328125 606.0234375 373.614257812 614.170898438 378.032226562 621.823242188 c 2
 420.859375 696.00390625 l 1
 335.25 696.00390625 l 2
 308.743164062 696.00390625 287.25390625 717.494140625 287.25390625 744 c 0
 287.25390625 770.506835938 308.744140625 791.99609375 335.25 791.99609375 c 2
 420.859375 791.99609375 l 1
 378.033203125 866.176757812 l 2
 373.614257812 873.829101562 371.61328125 881.9765625 371.61328125 889.921875 c 0
623.61328125 457.921875 m 0
 623.61328125 483.72265625 644.291992188 506.140625 671.625 506.140625 c 0
 677.184570312 506.140625 700.1640625 504.72265625 713.216796875 482.112304688 c 2
 756 408.009765625 l 1
 798.782226562 482.112304688 l 2
 801.565429688 486.932617188 814.291015625 506.140625 840.375 506.140625 c 0
 867.708007812 506.140625 888.38671875 483.72265625 888.38671875 457.921875 c 0
 888.38671875 449.9765625 886.385742188 441.829101562 881.967773438 434.176757812 c 2
 839.140625 359.99609375 l 1
 924.75 359.99609375 l 2
 951.256835938 359.99609375 972.74609375 338.505859375 972.74609375 312 c 0
 972.74609375 285.493164062 951.255859375 264.00390625 924.75 264.00390625 c 2
 839.140625 264.00390625 l 1
 881.966796875 189.823242188 l 2
 886.385742188 182.170898438 888.38671875 174.0234375 888.38671875 166.078125 c 0
 888.38671875 140.27734375 867.708007812 117.859375 840.375 117.859375 c 0
 834.815429688 117.859375 811.8359375 119.27734375 798.783203125 141.887695312 c 2
 756 215.990234375 l 1
 713.217773438 141.887695312 l 2
 710.434570312 137.067382812 697.708984375 117.859375 671.625 117.859375 c 0
 644.291992188 117.859375 623.61328125 140.27734375 623.61328125 166.078125 c 0
 623.61328125 174.0234375 625.614257812 182.170898438 630.032226562 189.823242188 c 2
 672.859375 264.00390625 l 1
 587.25 264.00390625 l 2
 560.743164062 264.00390625 539.25390625 285.494140625 539.25390625 312 c 0
 539.25390625 338.506835938 560.744140625 359.99609375 587.25 359.99609375 c 2
 672.859375 359.99609375 l 1
 630.033203125 434.176757812 l 2
 625.614257812 441.829101562 623.61328125 449.9765625 623.61328125 457.921875 c 0
119.61328125 457.921875 m 0
 119.61328125 483.72265625 140.291992188 506.140625 167.625 506.140625 c 0
 173.184570312 506.140625 196.1640625 504.72265625 209.216796875 482.112304688 c 2
 252 408.009765625 l 1
 294.782226562 482.112304688 l 2
 297.565429688 486.932617188 310.291015625 506.140625 336.375 506.140625 c 0
 363.708007812 506.140625 384.38671875 483.72265625 384.38671875 457.921875 c 0
 384.38671875 449.9765625 382.385742188 441.829101562 377.967773438 434.176757812 c 2
 335.140625 359.99609375 l 1
 420.75 359.99609375 l 2
 447.256835938 359.99609375 468.74609375 338.505859375 468.74609375 312 c 0
 468.74609375 285.493164062 447.255859375 264.00390625 420.75 264.00390625 c 2
 335.140625 264.00390625 l 1
 377.966796875 189.823242188 l 2
 382.385742188 182.170898438 384.38671875 174.0234375 384.38671875 166.078125 c 0
 384.38671875 140.27734375 363.708007812 117.859375 336.375 117.859375 c 0
 330.815429688 117.859375 307.8359375 119.27734375 294.783203125 141.887695312 c 2
 252 215.990234375 l 1
 209.217773438 141.887695312 l 2
 206.434570312 137.067382812 193.708984375 117.859375 167.625 117.859375 c 0
 140.291992188 117.859375 119.61328125 140.27734375 119.61328125 166.078125 c 0
 119.61328125 174.0234375 121.614257812 182.170898438 126.032226562 189.823242188 c 2
 168.859375 264.00390625 l 1
 83.25 264.00390625 l 2
 56.7431640625 264.00390625 35.25390625 285.494140625 35.25390625 312 c 0
 35.25390625 338.506835938 56.744140625 359.99609375 83.25 359.99609375 c 2
 168.859375 359.99609375 l 1
 126.033203125 434.176757812 l 2
 121.614257812 441.829101562 119.61328125 449.9765625 119.61328125 457.921875 c 0
EndSplineSet
EndChar

StartChar: uni2043
Encoding: 8259 8259 139
Width: 1008
VWidth: 4000
Flags: HW
HStem: 330 96<137.512 184 824 870.488>
LayerCount: 2
Fore
SplineSet
824 330 m 2
 850.4921875 330 872 351.5078125 872 378 c 0
 872 404.4921875 850.4921875 426 824 426 c 2
 184 426 l 2
 157.5078125 426 136 404.4921875 136 378 c 0
 136 351.5078125 157.5078125 330 184 330 c 2
 824 330 l 2
EndSplineSet
EndChar

StartChar: SF100000
Encoding: 9472 9472 140
Width: 1008
Flags: HW
LayerCount: 2
Fore
SplineSet
0 486 m 1
 0 570 l 1
 1008 570 l 1
 1008 486 l 1
 0 486 l 1
EndSplineSet
EndChar

StartChar: uni2501
Encoding: 9473 9473 141
Width: 1008
Flags: HW
LayerCount: 2
Fore
SplineSet
0 402 m 1
 0 654 l 1
 1008 654 l 1
 1008 402 l 1
 0 402 l 1
EndSplineSet
EndChar

StartChar: SF110000
Encoding: 9474 9474 142
Width: 1008
Flags: HW
LayerCount: 2
Fore
SplineSet
462 -336 m 1
 462 1344 l 1
 546 1344 l 1
 546 -336 l 1
 462 -336 l 1
EndSplineSet
EndChar

StartChar: uni2503
Encoding: 9475 9475 143
Width: 1008
Flags: HW
LayerCount: 2
Fore
SplineSet
378 -336 m 1
 378 1344 l 1
 630 1344 l 1
 630 -336 l 1
 378 -336 l 1
EndSplineSet
EndChar

StartChar: uni2504
Encoding: 9476 9476 144
Width: 1008
Flags: HW
LayerCount: 2
Fore
SplineSet
84 486 m 1
 84 570 l 1
 252 570 l 1
 252 486 l 1
 84 486 l 1
420 486 m 1
 420 570 l 1
 588 570 l 1
 588 486 l 1
 420 486 l 1
756 486 m 1
 756 570 l 1
 924 570 l 1
 924 486 l 1
 756 486 l 1
EndSplineSet
EndChar

StartChar: uni2505
Encoding: 9477 9477 145
Width: 1008
Flags: HW
LayerCount: 2
Fore
SplineSet
84 402 m 1
 84 654 l 1
 252 654 l 1
 252 402 l 1
 84 402 l 1
420 402 m 1
 420 654 l 1
 588 654 l 1
 588 402 l 1
 420 402 l 1
756 402 m 1
 756 654 l 1
 924 654 l 1
 924 402 l 1
 756 402 l 1
EndSplineSet
EndChar

StartChar: uni2506
Encoding: 9478 9478 146
Width: 1008
Flags: HW
LayerCount: 2
Fore
SplineSet
462 -196 m 1
 462 84 l 1
 546 84 l 1
 546 -196 l 1
 462 -196 l 1
462 364 m 1
 462 644 l 1
 546 644 l 1
 546 364 l 1
 462 364 l 1
462 924 m 1
 462 1204 l 1
 546 1204 l 1
 546 924 l 1
 462 924 l 1
EndSplineSet
EndChar

StartChar: uni2507
Encoding: 9479 9479 147
Width: 1008
Flags: HW
LayerCount: 2
Fore
SplineSet
378 -196 m 1
 378 84 l 1
 630 84 l 1
 630 -196 l 1
 378 -196 l 1
378 364 m 1
 378 644 l 1
 630 644 l 1
 630 364 l 1
 378 364 l 1
378 924 m 1
 378 1204 l 1
 630 1204 l 1
 630 924 l 1
 378 924 l 1
EndSplineSet
EndChar

StartChar: uni2508
Encoding: 9480 9480 148
Width: 1008
Flags: HW
LayerCount: 2
Fore
SplineSet
63 486 m 1
 63 570 l 1
 189 570 l 1
 189 486 l 1
 63 486 l 1
315 486 m 1
 315 570 l 1
 441 570 l 1
 441 486 l 1
 315 486 l 1
567 486 m 1
 567 570 l 1
 693 570 l 1
 693 486 l 1
 567 486 l 1
819 486 m 1
 819 570 l 1
 945 570 l 1
 945 486 l 1
 819 486 l 1
EndSplineSet
EndChar

StartChar: uni2509
Encoding: 9481 9481 149
Width: 1008
Flags: HW
LayerCount: 2
Fore
SplineSet
63 402 m 1
 63 654 l 1
 189 654 l 1
 189 402 l 1
 63 402 l 1
315 402 m 1
 315 654 l 1
 441 654 l 1
 441 402 l 1
 315 402 l 1
567 402 m 1
 567 654 l 1
 693 654 l 1
 693 402 l 1
 567 402 l 1
819 402 m 1
 819 654 l 1
 945 654 l 1
 945 402 l 1
 819 402 l 1
EndSplineSet
EndChar

StartChar: uni250A
Encoding: 9482 9482 150
Width: 1008
Flags: HW
LayerCount: 2
Fore
SplineSet
462 -231 m 1
 462 -21 l 1
 546 -21 l 1
 546 -231 l 1
 462 -231 l 1
462 189 m 1
 462 399 l 1
 546 399 l 1
 546 189 l 1
 462 189 l 1
462 609 m 1
 462 819 l 1
 546 819 l 1
 546 609 l 1
 462 609 l 1
462 1029 m 1
 462 1239 l 1
 546 1239 l 1
 546 1029 l 1
 462 1029 l 1
EndSplineSet
EndChar

StartChar: uni250B
Encoding: 9483 9483 151
Width: 1008
Flags: HW
LayerCount: 2
Fore
SplineSet
378 -231 m 1
 378 -21 l 1
 630 -21 l 1
 630 -231 l 1
 378 -231 l 1
378 189 m 1
 378 399 l 1
 630 399 l 1
 630 189 l 1
 378 189 l 1
378 609 m 1
 378 819 l 1
 630 819 l 1
 630 609 l 1
 378 609 l 1
378 1029 m 1
 378 1239 l 1
 630 1239 l 1
 630 1029 l 1
 378 1029 l 1
EndSplineSet
EndChar

StartChar: SF010000
Encoding: 9484 9484 152
Width: 1008
Flags: HW
LayerCount: 2
Fore
SplineSet
462 570 m 1
 1008 570 l 1
 1008 486 l 1
 546 486 l 1
 546 -336 l 1
 462 -336 l 1
 462 570 l 1
EndSplineSet
EndChar

StartChar: uni250D
Encoding: 9485 9485 153
Width: 1008
Flags: HW
LayerCount: 2
Fore
SplineSet
462 612 m 1
 1008 612 l 1
 1008 444 l 1
 546 444 l 1
 546 -336 l 1
 462 -336 l 1
 462 612 l 1
EndSplineSet
EndChar

StartChar: uni250E
Encoding: 9486 9486 154
Width: 1008
Flags: HW
LayerCount: 2
Fore
SplineSet
420 570 m 1
 1008 570 l 1
 1008 486 l 1
 588 486 l 1
 588 -336 l 1
 420 -336 l 1
 420 570 l 1
EndSplineSet
EndChar

StartChar: uni250F
Encoding: 9487 9487 155
Width: 1008
Flags: HW
LayerCount: 2
Fore
SplineSet
420 612 m 1
 1008 612 l 1
 1008 444 l 1
 588 444 l 1
 588 -336 l 1
 420 -336 l 1
 420 612 l 1
EndSplineSet
EndChar

StartChar: SF030000
Encoding: 9488 9488 156
Width: 1008
Flags: HW
LayerCount: 2
Fore
SplineSet
546 570 m 1
 0 570 l 1
 0 486 l 1
 462 486 l 1
 462 -336 l 1
 546 -336 l 1
 546 570 l 1
EndSplineSet
EndChar

StartChar: uni2511
Encoding: 9489 9489 157
Width: 1008
Flags: HW
LayerCount: 2
Fore
SplineSet
546 612 m 1
 0 612 l 1
 0 444 l 1
 462 444 l 1
 462 -336 l 1
 546 -336 l 1
 546 612 l 1
EndSplineSet
EndChar

StartChar: uni2512
Encoding: 9490 9490 158
Width: 1008
Flags: HW
LayerCount: 2
Fore
SplineSet
588 570 m 1
 0 570 l 1
 0 486 l 1
 420 486 l 1
 420 -336 l 1
 588 -336 l 1
 588 570 l 1
EndSplineSet
EndChar

StartChar: uni2513
Encoding: 9491 9491 159
Width: 1008
Flags: HW
LayerCount: 2
Fore
SplineSet
588 612 m 1
 0 612 l 1
 0 444 l 1
 420 444 l 1
 420 -336 l 1
 588 -336 l 1
 588 612 l 1
EndSplineSet
EndChar

StartChar: SF020000
Encoding: 9492 9492 160
Width: 1008
Flags: HW
LayerCount: 2
Fore
SplineSet
462 486 m 1
 1008 486 l 1
 1008 570 l 1
 546 570 l 1
 546 1344 l 1
 462 1344 l 1
 462 486 l 1
EndSplineSet
EndChar

StartChar: uni2515
Encoding: 9493 9493 161
Width: 1008
Flags: HW
LayerCount: 2
Fore
SplineSet
462 444 m 1
 1008 444 l 1
 1008 612 l 1
 546 612 l 1
 546 1344 l 1
 462 1344 l 1
 462 444 l 1
EndSplineSet
EndChar

StartChar: uni2516
Encoding: 9494 9494 162
Width: 1008
Flags: HW
LayerCount: 2
Fore
SplineSet
420 486 m 1
 1008 486 l 1
 1008 570 l 1
 588 570 l 1
 588 1344 l 1
 420 1344 l 1
 420 486 l 1
EndSplineSet
EndChar

StartChar: uni2517
Encoding: 9495 9495 163
Width: 1008
Flags: HW
LayerCount: 2
Fore
SplineSet
420 444 m 1
 1008 444 l 1
 1008 612 l 1
 588 612 l 1
 588 1344 l 1
 420 1344 l 1
 420 444 l 1
EndSplineSet
EndChar

StartChar: SF040000
Encoding: 9496 9496 164
Width: 1008
Flags: HW
LayerCount: 2
Fore
SplineSet
546 486 m 1
 0 486 l 1
 0 570 l 1
 462 570 l 1
 462 1344 l 1
 546 1344 l 1
 546 486 l 1
EndSplineSet
EndChar

StartChar: uni2519
Encoding: 9497 9497 165
Width: 1008
Flags: HW
LayerCount: 2
Fore
SplineSet
546 444 m 1
 0 444 l 1
 0 612 l 1
 462 612 l 1
 462 1344 l 1
 546 1344 l 1
 546 444 l 1
EndSplineSet
EndChar

StartChar: uni251A
Encoding: 9498 9498 166
Width: 1008
Flags: HW
LayerCount: 2
Fore
SplineSet
588 486 m 1
 0 486 l 1
 0 570 l 1
 420 570 l 1
 420 1344 l 1
 588 1344 l 1
 588 486 l 1
EndSplineSet
EndChar

StartChar: uni251B
Encoding: 9499 9499 167
Width: 1008
Flags: HW
LayerCount: 2
Fore
SplineSet
588 444 m 1
 0 444 l 1
 0 612 l 1
 420 612 l 1
 420 1344 l 1
 588 1344 l 1
 588 444 l 1
EndSplineSet
EndChar

StartChar: SF080000
Encoding: 9500 9500 168
Width: 1008
Flags: HW
LayerCount: 2
Fore
SplineSet
462 1344 m 1
 546 1344 l 1
 546 570 l 1
 1008 570 l 1
 1008 486 l 1
 546 486 l 1
 546 -336 l 1
 462 -336 l 1
 462 1344 l 1
EndSplineSet
EndChar

StartChar: uni251D
Encoding: 9501 9501 169
Width: 1008
Flags: HW
LayerCount: 2
Fore
SplineSet
462 1344 m 1
 546 1344 l 1
 546 654 l 1
 1008 654 l 1
 1008 402 l 1
 546 402 l 1
 546 -336 l 1
 462 -336 l 1
 462 1344 l 1
EndSplineSet
EndChar

StartChar: uni251E
Encoding: 9502 9502 170
Width: 1008
Flags: HW
LayerCount: 2
Fore
SplineSet
378 1344 m 1
 630 1344 l 1
 630 570 l 1
 1008 570 l 1
 1008 486 l 1
 546 486 l 1
 546 -336 l 1
 462 -336 l 1
 462 486 l 1
 378 486 l 1
 378 1344 l 1
EndSplineSet
EndChar

StartChar: uni251F
Encoding: 9503 9503 171
Width: 1008
Flags: HW
LayerCount: 2
Fore
SplineSet
462 1344 m 1
 546 1344 l 1
 546 570 l 1
 1008 570 l 1
 1008 486 l 1
 630 486 l 1
 630 -336 l 1
 378 -336 l 1
 378 570 l 1
 462 570 l 1
 462 1344 l 1
EndSplineSet
EndChar

StartChar: uni2520
Encoding: 9504 9504 172
Width: 1008
Flags: HW
LayerCount: 2
Fore
SplineSet
378 1344 m 1
 630 1344 l 1
 630 570 l 1
 1008 570 l 1
 1008 486 l 1
 630 486 l 1
 630 -336 l 1
 378 -336 l 1
 378 1344 l 1
EndSplineSet
EndChar

StartChar: uni2521
Encoding: 9505 9505 173
Width: 1008
Flags: HW
LayerCount: 2
Fore
SplineSet
378 1344 m 1
 630 1344 l 1
 630 654 l 1
 1008 654 l 1
 1008 402 l 1
 546 402 l 1
 546 -336 l 1
 462 -336 l 1
 462 402 l 1
 378 402 l 1
 378 1344 l 1
EndSplineSet
EndChar

StartChar: uni2522
Encoding: 9506 9506 174
Width: 1008
Flags: HW
LayerCount: 2
Fore
SplineSet
462 1344 m 1
 546 1344 l 1
 546 654 l 1
 1008 654 l 1
 1008 402 l 1
 630 402 l 1
 630 -336 l 1
 378 -336 l 1
 378 654 l 1
 462 654 l 1
 462 1344 l 1
EndSplineSet
EndChar

StartChar: uni2523
Encoding: 9507 9507 175
Width: 1008
Flags: HW
LayerCount: 2
Fore
SplineSet
378 1344 m 1
 630 1344 l 1
 630 654 l 1
 1008 654 l 1
 1008 402 l 1
 630 402 l 1
 630 -336 l 1
 378 -336 l 1
 378 1344 l 1
EndSplineSet
EndChar

StartChar: SF090000
Encoding: 9508 9508 176
Width: 1008
Flags: HW
LayerCount: 2
Fore
SplineSet
546 1344 m 1
 462 1344 l 1
 462 570 l 1
 0 570 l 1
 0 486 l 1
 462 486 l 1
 462 -336 l 1
 546 -336 l 1
 546 1344 l 1
EndSplineSet
EndChar

StartChar: uni2525
Encoding: 9509 9509 177
Width: 1008
Flags: HW
LayerCount: 2
Fore
SplineSet
546 1344 m 1
 462 1344 l 1
 462 654 l 1
 0 654 l 1
 0 402 l 1
 462 402 l 1
 462 -336 l 1
 546 -336 l 1
 546 1344 l 1
EndSplineSet
EndChar

StartChar: uni2526
Encoding: 9510 9510 178
Width: 1008
Flags: HW
LayerCount: 2
Fore
SplineSet
630 1344 m 1
 378 1344 l 1
 378 570 l 1
 0 570 l 1
 0 486 l 1
 462 486 l 1
 462 -336 l 1
 546 -336 l 1
 546 486 l 1
 630 486 l 1
 630 1344 l 1
EndSplineSet
EndChar

StartChar: uni2527
Encoding: 9511 9511 179
Width: 1008
Flags: HW
LayerCount: 2
Fore
SplineSet
546 1344 m 1
 462 1344 l 1
 462 570 l 1
 0 570 l 1
 0 486 l 1
 378 486 l 1
 378 -336 l 1
 630 -336 l 1
 630 570 l 1
 546 570 l 1
 546 1344 l 1
EndSplineSet
EndChar

StartChar: uni2528
Encoding: 9512 9512 180
Width: 1008
Flags: HW
LayerCount: 2
Fore
SplineSet
630 1344 m 1
 378 1344 l 1
 378 570 l 1
 0 570 l 1
 0 486 l 1
 378 486 l 1
 378 -336 l 1
 630 -336 l 1
 630 1344 l 1
EndSplineSet
EndChar

StartChar: uni2529
Encoding: 9513 9513 181
Width: 1008
Flags: HW
LayerCount: 2
Fore
SplineSet
630 1344 m 1
 378 1344 l 1
 378 654 l 1
 0 654 l 1
 0 402 l 1
 462 402 l 1
 462 -336 l 1
 546 -336 l 1
 546 402 l 1
 630 402 l 1
 630 1344 l 1
EndSplineSet
EndChar

StartChar: uni252A
Encoding: 9514 9514 182
Width: 1008
Flags: HW
LayerCount: 2
Fore
SplineSet
546 1344 m 1
 462 1344 l 1
 462 654 l 1
 0 654 l 1
 0 402 l 1
 378 402 l 1
 378 -336 l 1
 630 -336 l 1
 630 654 l 1
 546 654 l 1
 546 1344 l 1
EndSplineSet
EndChar

StartChar: uni252B
Encoding: 9515 9515 183
Width: 1008
Flags: HW
LayerCount: 2
Fore
SplineSet
630 1344 m 1
 378 1344 l 1
 378 654 l 1
 0 654 l 1
 0 402 l 1
 378 402 l 1
 378 -336 l 1
 630 -336 l 1
 630 1344 l 1
EndSplineSet
EndChar

StartChar: SF060000
Encoding: 9516 9516 184
Width: 1008
Flags: HW
LayerCount: 2
Fore
SplineSet
0 570 m 1
 1008 570 l 1
 1008 486 l 1
 546 486 l 1
 546 -336 l 1
 462 -336 l 1
 462 486 l 1
 0 486 l 1
 0 570 l 1
EndSplineSet
EndChar

StartChar: uni252D
Encoding: 9517 9517 185
Width: 1008
Flags: HW
LayerCount: 2
Fore
SplineSet
0 654 m 1
 546 654 l 1
 546 570 l 1
 1008 570 l 1
 1008 486 l 1
 546 486 l 1
 546 -336 l 1
 462 -336 l 1
 462 402 l 1
 0 402 l 1
 0 654 l 1
EndSplineSet
EndChar

StartChar: uni252E
Encoding: 9518 9518 186
Width: 1008
Flags: HW
LayerCount: 2
Fore
SplineSet
0 570 m 1
 462 570 l 1
 462 654 l 1
 1008 654 l 1
 1008 402 l 1
 546 402 l 1
 546 -336 l 1
 462 -336 l 1
 462 486 l 1
 0 486 l 1
 0 570 l 1
EndSplineSet
EndChar

StartChar: uni252F
Encoding: 9519 9519 187
Width: 1008
Flags: HW
LayerCount: 2
Fore
SplineSet
0 654 m 1
 1008 654 l 1
 1008 402 l 1
 546 402 l 1
 546 -336 l 1
 462 -336 l 1
 462 402 l 1
 0 402 l 1
 0 654 l 1
EndSplineSet
EndChar

StartChar: uni2530
Encoding: 9520 9520 188
Width: 1008
Flags: HW
LayerCount: 2
Fore
SplineSet
0 570 m 1
 1008 570 l 1
 1008 486 l 1
 630 486 l 1
 630 -336 l 1
 378 -336 l 1
 378 486 l 1
 0 486 l 1
 0 570 l 1
EndSplineSet
EndChar

StartChar: uni2531
Encoding: 9521 9521 189
Width: 1008
Flags: HW
LayerCount: 2
Fore
SplineSet
0 654 m 1
 630 654 l 1
 630 570 l 1
 1008 570 l 1
 1008 486 l 1
 630 486 l 1
 630 -336 l 1
 378 -336 l 1
 378 402 l 1
 0 402 l 1
 0 654 l 1
EndSplineSet
EndChar

StartChar: uni2532
Encoding: 9522 9522 190
Width: 1008
Flags: HW
LayerCount: 2
Fore
SplineSet
0 570 m 1
 378 570 l 1
 378 654 l 1
 1008 654 l 1
 1008 402 l 1
 630 402 l 1
 630 -336 l 1
 378 -336 l 1
 378 486 l 1
 0 486 l 1
 0 570 l 1
EndSplineSet
EndChar

StartChar: uni2533
Encoding: 9523 9523 191
Width: 1008
Flags: HW
LayerCount: 2
Fore
SplineSet
0 654 m 1
 1008 654 l 1
 1008 402 l 1
 630 402 l 1
 630 -336 l 1
 378 -336 l 1
 378 402 l 1
 0 402 l 1
 0 654 l 1
EndSplineSet
EndChar

StartChar: SF070000
Encoding: 9524 9524 192
Width: 1008
Flags: HW
LayerCount: 2
Fore
SplineSet
0 486 m 1
 1008 486 l 1
 1008 570 l 1
 546 570 l 1
 546 1344 l 1
 462 1344 l 1
 462 570 l 1
 0 570 l 1
 0 486 l 1
EndSplineSet
EndChar

StartChar: uni2535
Encoding: 9525 9525 193
Width: 1008
Flags: HW
LayerCount: 2
Fore
SplineSet
0 402 m 1
 546 402 l 1
 546 486 l 1
 1008 486 l 1
 1008 570 l 1
 546 570 l 1
 546 1344 l 1
 462 1344 l 1
 462 654 l 1
 0 654 l 1
 0 402 l 1
EndSplineSet
EndChar

StartChar: uni2536
Encoding: 9526 9526 194
Width: 1008
Flags: HW
LayerCount: 2
Fore
SplineSet
0 486 m 1
 462 486 l 1
 462 402 l 1
 1008 402 l 1
 1008 654 l 1
 546 654 l 1
 546 1344 l 1
 462 1344 l 1
 462 570 l 1
 0 570 l 1
 0 486 l 1
EndSplineSet
EndChar

StartChar: uni2537
Encoding: 9527 9527 195
Width: 1008
Flags: HW
LayerCount: 2
Fore
SplineSet
0 402 m 1
 1008 402 l 1
 1008 654 l 1
 546 654 l 1
 546 1344 l 1
 462 1344 l 1
 462 654 l 1
 0 654 l 1
 0 402 l 1
EndSplineSet
EndChar

StartChar: uni2538
Encoding: 9528 9528 196
Width: 1008
Flags: HW
LayerCount: 2
Fore
SplineSet
0 486 m 1
 1008 486 l 1
 1008 570 l 1
 630 570 l 1
 630 1344 l 1
 378 1344 l 1
 378 570 l 1
 0 570 l 1
 0 486 l 1
EndSplineSet
EndChar

StartChar: uni2539
Encoding: 9529 9529 197
Width: 1008
Flags: HW
LayerCount: 2
Fore
SplineSet
0 402 m 1
 630 402 l 1
 630 486 l 1
 1008 486 l 1
 1008 570 l 1
 630 570 l 1
 630 1344 l 1
 378 1344 l 1
 378 654 l 1
 0 654 l 1
 0 402 l 1
EndSplineSet
EndChar

StartChar: uni253A
Encoding: 9530 9530 198
Width: 1008
Flags: HW
LayerCount: 2
Fore
SplineSet
0 486 m 1
 378 486 l 1
 378 402 l 1
 1008 402 l 1
 1008 654 l 1
 630 654 l 1
 630 1344 l 1
 378 1344 l 1
 378 570 l 1
 0 570 l 1
 0 486 l 1
EndSplineSet
EndChar

StartChar: uni253B
Encoding: 9531 9531 199
Width: 1008
Flags: HW
LayerCount: 2
Fore
SplineSet
0 402 m 1
 1008 402 l 1
 1008 654 l 1
 630 654 l 1
 630 1344 l 1
 378 1344 l 1
 378 654 l 1
 0 654 l 1
 0 402 l 1
EndSplineSet
EndChar

StartChar: SF050000
Encoding: 9532 9532 200
Width: 1008
Flags: HW
LayerCount: 2
Fore
SplineSet
462 1344 m 1
 546 1344 l 1
 546 570 l 1
 1008 570 l 1
 1008 486 l 1
 546 486 l 1
 546 -336 l 1
 462 -336 l 1
 462 486 l 1
 0 486 l 1
 0 570 l 1
 462 570 l 1
 462 1344 l 1
EndSplineSet
EndChar

StartChar: uni253D
Encoding: 9533 9533 201
Width: 1008
Flags: HW
LayerCount: 2
Fore
SplineSet
462 1344 m 1
 546 1344 l 1
 546 570 l 1
 1008 570 l 1
 1008 486 l 1
 546 486 l 1
 546 -336 l 1
 462 -336 l 1
 462 402 l 1
 0 402 l 1
 0 654 l 1
 462 654 l 1
 462 1344 l 1
EndSplineSet
EndChar

StartChar: uni253E
Encoding: 9534 9534 202
Width: 1008
Flags: HW
LayerCount: 2
Fore
SplineSet
462 1344 m 1
 546 1344 l 1
 546 654 l 1
 1008 654 l 1
 1008 402 l 1
 546 402 l 1
 546 -336 l 1
 462 -336 l 1
 462 486 l 1
 0 486 l 1
 0 570 l 1
 462 570 l 1
 462 1344 l 1
EndSplineSet
EndChar

StartChar: uni253F
Encoding: 9535 9535 203
Width: 1008
Flags: HW
LayerCount: 2
Fore
SplineSet
462 1344 m 1
 546 1344 l 1
 546 654 l 1
 1008 654 l 1
 1008 402 l 1
 546 402 l 1
 546 -336 l 1
 462 -336 l 1
 462 402 l 1
 0 402 l 1
 0 654 l 1
 462 654 l 1
 462 1344 l 1
EndSplineSet
EndChar

StartChar: uni2540
Encoding: 9536 9536 204
Width: 1008
Flags: HW
LayerCount: 2
Fore
SplineSet
378 1344 m 1
 630 1344 l 1
 630 570 l 1
 1008 570 l 1
 1008 486 l 1
 546 486 l 1
 546 -336 l 1
 462 -336 l 1
 462 486 l 1
 0 486 l 1
 0 570 l 1
 378 570 l 1
 378 1344 l 1
EndSplineSet
EndChar

StartChar: uni2541
Encoding: 9537 9537 205
Width: 1008
Flags: HW
LayerCount: 2
Fore
SplineSet
462 1344 m 1
 546 1344 l 1
 546 570 l 1
 1008 570 l 1
 1008 486 l 1
 630 486 l 1
 630 -336 l 1
 378 -336 l 1
 378 486 l 1
 0 486 l 1
 0 570 l 1
 462 570 l 1
 462 1344 l 1
EndSplineSet
EndChar

StartChar: uni2542
Encoding: 9538 9538 206
Width: 1008
Flags: HW
LayerCount: 2
Fore
SplineSet
378 1344 m 1
 630 1344 l 1
 630 570 l 1
 1008 570 l 1
 1008 486 l 1
 630 486 l 1
 630 -336 l 1
 378 -336 l 1
 378 486 l 1
 0 486 l 1
 0 570 l 1
 378 570 l 1
 378 1344 l 1
EndSplineSet
EndChar

StartChar: uni2543
Encoding: 9539 9539 207
Width: 1008
Flags: HW
LayerCount: 2
Fore
SplineSet
378 1344 m 1
 630 1344 l 1
 630 570 l 1
 1008 570 l 1
 1008 486 l 1
 546 486 l 1
 546 -336 l 1
 462 -336 l 1
 462 402 l 1
 0 402 l 1
 0 654 l 1
 378 654 l 1
 378 1344 l 1
EndSplineSet
EndChar

StartChar: uni2544
Encoding: 9540 9540 208
Width: 1008
Flags: HW
LayerCount: 2
Fore
SplineSet
378 1344 m 1
 630 1344 l 1
 630 654 l 1
 1008 654 l 1
 1008 402 l 1
 546 402 l 1
 546 -336 l 1
 462 -336 l 1
 462 486 l 1
 0 486 l 1
 0 570 l 1
 378 570 l 1
 378 1344 l 1
EndSplineSet
EndChar

StartChar: uni2545
Encoding: 9541 9541 209
Width: 1008
Flags: HW
LayerCount: 2
Fore
SplineSet
462 1344 m 1
 546 1344 l 1
 546 570 l 1
 1008 570 l 1
 1008 486 l 1
 630 486 l 1
 630 -336 l 1
 378 -336 l 1
 378 402 l 1
 0 402 l 1
 0 654 l 1
 462 654 l 1
 462 1344 l 1
EndSplineSet
EndChar

StartChar: uni2546
Encoding: 9542 9542 210
Width: 1008
Flags: HW
LayerCount: 2
Fore
SplineSet
462 1344 m 1
 546 1344 l 1
 546 654 l 1
 1008 654 l 1
 1008 402 l 1
 630 402 l 1
 630 -336 l 1
 378 -336 l 1
 378 486 l 1
 0 486 l 1
 0 570 l 1
 462 570 l 1
 462 1344 l 1
EndSplineSet
EndChar

StartChar: uni2547
Encoding: 9543 9543 211
Width: 1008
Flags: HW
LayerCount: 2
Fore
SplineSet
378 1344 m 1
 630 1344 l 1
 630 654 l 1
 1008 654 l 1
 1008 402 l 1
 546 402 l 1
 546 -336 l 1
 462 -336 l 1
 462 402 l 1
 0 402 l 1
 0 654 l 1
 378 654 l 1
 378 1344 l 1
EndSplineSet
EndChar

StartChar: uni2548
Encoding: 9544 9544 212
Width: 1008
Flags: HW
LayerCount: 2
Fore
SplineSet
462 1344 m 1
 546 1344 l 1
 546 654 l 1
 1008 654 l 1
 1008 402 l 1
 630 402 l 1
 630 -336 l 1
 378 -336 l 1
 378 402 l 1
 0 402 l 1
 0 654 l 1
 462 654 l 1
 462 1344 l 1
EndSplineSet
EndChar

StartChar: uni2549
Encoding: 9545 9545 213
Width: 1008
Flags: HW
LayerCount: 2
Fore
SplineSet
378 1344 m 1
 630 1344 l 1
 630 570 l 1
 1008 570 l 1
 1008 486 l 1
 630 486 l 1
 630 -336 l 1
 378 -336 l 1
 378 402 l 1
 0 402 l 1
 0 654 l 1
 378 654 l 1
 378 1344 l 1
EndSplineSet
EndChar

StartChar: uni254A
Encoding: 9546 9546 214
Width: 1008
Flags: HW
LayerCount: 2
Fore
SplineSet
378 1344 m 1
 630 1344 l 1
 630 654 l 1
 1008 654 l 1
 1008 402 l 1
 630 402 l 1
 630 -336 l 1
 378 -336 l 1
 378 486 l 1
 0 486 l 1
 0 570 l 1
 378 570 l 1
 378 1344 l 1
EndSplineSet
EndChar

StartChar: uni254B
Encoding: 9547 9547 215
Width: 1008
Flags: HW
LayerCount: 2
Fore
SplineSet
378 1344 m 1
 630 1344 l 1
 630 654 l 1
 1008 654 l 1
 1008 402 l 1
 630 402 l 1
 630 -336 l 1
 378 -336 l 1
 378 402 l 1
 0 402 l 1
 0 654 l 1
 378 654 l 1
 378 1344 l 1
EndSplineSet
EndChar

StartChar: uni254C
Encoding: 9548 9548 216
Width: 1008
Flags: HW
LayerCount: 2
Fore
SplineSet
126 486 m 1
 126 570 l 1
 378 570 l 1
 378 486 l 1
 126 486 l 1
630 486 m 1
 630 570 l 1
 882 570 l 1
 882 486 l 1
 630 486 l 1
EndSplineSet
EndChar

StartChar: uni254D
Encoding: 9549 9549 217
Width: 1008
Flags: HW
LayerCount: 2
Fore
SplineSet
126 402 m 1
 126 654 l 1
 378 654 l 1
 378 402 l 1
 126 402 l 1
630 402 m 1
 630 654 l 1
 882 654 l 1
 882 402 l 1
 630 402 l 1
EndSplineSet
EndChar

StartChar: uni254E
Encoding: 9550 9550 218
Width: 1008
Flags: HW
LayerCount: 2
Fore
SplineSet
462 -126 m 1
 462 294 l 1
 546 294 l 1
 546 -126 l 1
 462 -126 l 1
462 714 m 1
 462 1134 l 1
 546 1134 l 1
 546 714 l 1
 462 714 l 1
EndSplineSet
EndChar

StartChar: uni254F
Encoding: 9551 9551 219
Width: 1008
Flags: HW
LayerCount: 2
Fore
SplineSet
378 -126 m 1
 378 294 l 1
 630 294 l 1
 630 -126 l 1
 378 -126 l 1
378 714 m 1
 378 1134 l 1
 630 1134 l 1
 630 714 l 1
 378 714 l 1
EndSplineSet
EndChar

StartChar: SF430000
Encoding: 9552 9552 220
Width: 1008
Flags: HW
LayerCount: 2
Fore
SplineSet
1008 360 m 1
 0 360 l 1
 0 444 l 1
 1008 444 l 1
 1008 360 l 1
1008 612 m 1
 0 612 l 1
 0 696 l 1
 1008 696 l 1
 1008 612 l 1
EndSplineSet
EndChar

StartChar: SF240000
Encoding: 9553 9553 221
Width: 1008
Flags: HW
LayerCount: 2
Fore
SplineSet
420 1344 m 1
 420 -336 l 1
 336 -336 l 1
 336 1344 l 1
 420 1344 l 1
672 1344 m 1
 672 -336 l 1
 588 -336 l 1
 588 1344 l 1
 672 1344 l 1
EndSplineSet
EndChar

StartChar: SF510000
Encoding: 9554 9554 222
Width: 1008
Flags: HW
LayerCount: 2
Fore
SplineSet
1008 570 m 1
 1008 486 l 2
 672 486 l 1
 672 -336 l 1
 588 -336 l 1
 588 486 l 1
 420 486 l 1
 420 -336 l 1
 336 -336 l 1
 336 528 l 2
 336 551.18043 354.81957 570 378 570 c 0
 1008 570 1008 570 1008 570 c 1
EndSplineSet
EndChar

StartChar: SF520000
Encoding: 9555 9555 223
Width: 1008
Flags: HW
LayerCount: 2
Fore
SplineSet
1008 612 m 1
 546 612 l 1
 546 444 l 1
 1008 444 l 1
 1008 360 l 1
 546 360 l 1
 546 -336 l 1
 462 -336 l 1
 462 654 l 2
 462 677.18043 480.81957 696 504 696 c 2
 1008 696 l 1
 1008 612 l 1
EndSplineSet
EndChar

StartChar: SF390000
Encoding: 9556 9556 224
Width: 1008
Flags: HW
LayerCount: 2
Fore
SplineSet
588 -336 m 1
 588 402 l 2
 588 425.18043 606.81957 444 630 444 c 2
 1008 444 l 1
 1008 360 l 1
 672 360 l 1
 672 -336 l 1
 588 -336 l 1
336 -336 m 1
 336 654 l 2
 336 677.18043 354.81957 696 378 696 c 2
 1008 696 l 1
 1008 612 l 1
 420 612 l 1
 420 -336 l 1
 336 -336 l 1
EndSplineSet
EndChar

StartChar: SF220000
Encoding: 9557 9557 225
Width: 1008
Flags: HW
LayerCount: 2
Fore
SplineSet
0 486 m 1
 0 570 l 1
 630 570 l 2
 653.18043 570 672 551.18043 672 528 c 2
 672 -336 l 1
 588 -336 l 1
 588 486 l 1
 420 486 l 1
 420 -336 l 1
 336 -336 l 1
 336 486 l 1
 0 486 l 1
EndSplineSet
EndChar

StartChar: SF210000
Encoding: 9558 9558 226
Width: 1008
Flags: HW
LayerCount: 2
Fore
SplineSet
462 -336 m 1
 462 360 l 1
 0 360 l 1
 0 444 l 1
 462 444 l 1
 462 612 l 1
 0 612 l 1
 0 696 l 1
 504 696 l 2
 527.18043 696 546 677.18043 546 654 c 0
 546 -336 546 -336 546 -336 c 1
 462 -336 l 1
EndSplineSet
EndChar

StartChar: SF250000
Encoding: 9559 9559 227
Width: 1008
Flags: HW
LayerCount: 2
Fore
SplineSet
336 -336 m 1
 336 360 l 1
 0 360 l 1
 0 444 l 1
 378 444 l 2
 401.18043 444 420 425.18043 420 402 c 2
 420 -336 l 1
 336 -336 l 1
588 -336 m 1
 588 612 l 1
 0 612 l 1
 0 696 l 1
 630 696 l 2
 653.18043 696 672 677.18043 672 654 c 2
 672 -336 l 1
 588 -336 l 1
EndSplineSet
EndChar

StartChar: SF500000
Encoding: 9560 9560 228
Width: 1008
Flags: HW
LayerCount: 2
Fore
SplineSet
1008 570 m 1
 1008 486 l 2
 378 486 l 2
 354.81957 486 336 504.81957 336 528 c 2
 336 1344 l 1
 420 1344 l 1
 420 570 l 1
 588 570 l 1
 588 1344 l 1
 672 1344 l 1
 672 570 l 1
 1008 570 l 1
EndSplineSet
EndChar

StartChar: SF490000
Encoding: 9561 9561 229
Width: 1008
Flags: HW
LayerCount: 2
Fore
SplineSet
546 1344 m 1
 546 696 l 1
 1008 696 l 1
 1008 612 l 1
 546 612 l 1
 546 444 l 1
 1008 444 l 1
 1008 360 l 1
 504 360 l 2
 480.81957 360 462 378.81957 462 402 c 0
 462 1344 462 1344 462 1344 c 1
 546 1344 l 1
EndSplineSet
EndChar

StartChar: SF380000
Encoding: 9562 9562 230
Width: 1008
Flags: HW
LayerCount: 2
Fore
SplineSet
672 1344 m 1
 672 696 l 1
 1008 696 l 1
 1008 612 l 1
 630 612 l 2
 606.81957 612 588 630.81957 588 654 c 2
 588 1344 l 1
 672 1344 l 1
420 1344 m 1
 420 444 l 1
 1008 444 l 1
 1008 360 l 1
 378 360 l 2
 354.81957 360 336 378.81957 336 402 c 2
 336 1344 l 1
 420 1344 l 1
EndSplineSet
EndChar

StartChar: SF280000
Encoding: 9563 9563 231
Width: 1008
Flags: HW
LayerCount: 2
Fore
SplineSet
0 486 m 1
 0 570 l 1
 336 570 l 1
 336 1344 l 1
 420 1344 l 1
 420 570 l 1
 588 570 l 1
 588 1344 l 1
 672 1344 l 1
 672 528 l 2
 672 504.81957 653.18043 486 630 486 c 0
 0 486 0 486 0 486 c 1
EndSplineSet
EndChar

StartChar: SF270000
Encoding: 9564 9564 232
Width: 1008
Flags: HW
LayerCount: 2
Fore
SplineSet
0 444 m 1
 462 444 l 1
 462 612 l 1
 0 612 l 1
 0 696 l 1
 462 696 l 1
 462 1344 l 1
 546 1344 l 1
 546 402 l 2
 546 378.81957 527.18043 360 504 360 c 2
 0 360 l 1
 0 444 l 1
EndSplineSet
EndChar

StartChar: SF260000
Encoding: 9565 9565 233
Width: 1008
Flags: HW
LayerCount: 2
Fore
SplineSet
420 1344 m 1
 420 654 l 2
 420 630.81957 401.18043 612 378 612 c 2
 0 612 l 1
 0 696 l 1
 336 696 l 1
 336 1344 l 1
 420 1344 l 1
672 1344 m 1
 672 402 l 2
 672 378.81957 653.18043 360 630 360 c 2
 0 360 l 1
 0 444 l 1
 588 444 l 1
 588 1344 l 1
 672 1344 l 1
EndSplineSet
EndChar

StartChar: SF360000
Encoding: 9566 9566 234
Width: 1008
Flags: HW
LayerCount: 2
Fore
SplineSet
1008 360 m 1
 546 360 l 1
 546 -336 l 1
 462 -336 l 1
 462 1344 l 1
 546 1344 l 1
 546 696 l 1
 1008 696 l 1
 1008 612 l 1
 546 612 l 1
 546 444 l 1
 1008 444 l 1
 1008 360 l 1
EndSplineSet
EndChar

StartChar: SF370000
Encoding: 9567 9567 235
Width: 1008
Flags: HW
LayerCount: 2
Fore
SplineSet
336 -336 m 1
 336 1344 l 1
 420 1344 l 1
 420 -336 l 1
 336 -336 l 1
588 -336 m 1
 588 1344 l 1
 672 1344 l 1
 672 570 l 1
 1008 570 l 1
 1008 486 l 2
 672 486 l 1
 672 -336 l 1
 588 -336 l 1
EndSplineSet
EndChar

StartChar: SF420000
Encoding: 9568 9568 236
Width: 1008
Flags: HW
LayerCount: 2
Fore
SplineSet
420 1344 m 1
 420 -336 l 1
 336 -336 l 1
 336 1344 l 1
 420 1344 l 1
672 1344 m 1
 672 696 l 1
 1008 696 l 1
 1008 612 l 1
 630 612 l 2
 606.81957 612 588 630.81957 588 654 c 2
 588 1344 l 1
 672 1344 l 1
1008 360 m 1
 672 360 l 1
 672 -336 l 1
 588 -336 l 1
 588 402 l 2
 588 425.18043 606.81957 444 630 444 c 2
 1008 444 l 1
 1008 360 l 1
EndSplineSet
EndChar

StartChar: SF190000
Encoding: 9569 9569 237
Width: 1008
Flags: HW
LayerCount: 2
Fore
SplineSet
546 1344 m 1
 546 -336 l 1
 462 -336 l 1
 462 360 l 1
 0 360 l 1
 0 444 l 1
 462 444 l 1
 462 612 l 1
 0 612 l 1
 0 696 l 1
 462 696 l 1
 462 1344 l 1
 546 1344 l 1
EndSplineSet
EndChar

StartChar: SF200000
Encoding: 9570 9570 238
Width: 1008
Flags: HW
LayerCount: 2
Fore
SplineSet
0 570 m 1
 336 570 l 1
 336 1344 l 1
 420 1344 l 1
 420 -336 420 -336 420 -336 c 1
 336 -336 l 1
 336 486 l 1
 0 486 l 1
 0 570 l 1
588 -336 m 1
 588 1344 l 1
 672 1344 l 1
 672 -336 l 1
 588 -336 l 1
EndSplineSet
EndChar

StartChar: SF230000
Encoding: 9571 9571 239
Width: 1008
Flags: HW
LayerCount: 2
Fore
SplineSet
420 1344 m 1
 420 654 l 2
 420 630.81957 401.18043 612 378 612 c 2
 0 612 l 1
 0 696 l 1
 336 696 l 1
 336 1344 l 1
 420 1344 l 1
336 -336 m 1
 336 360 l 1
 0 360 l 1
 0 444 l 1
 378 444 l 2
 401.18043 444 420 425.18043 420 402 c 2
 420 -336 l 1
 336 -336 l 1
672 1344 m 1
 672 -336 l 1
 588 -336 l 1
 588 1344 l 1
 672 1344 l 1
EndSplineSet
EndChar

StartChar: SF470000
Encoding: 9572 9572 240
Width: 1008
Flags: HW
LayerCount: 2
Fore
SplineSet
1008 612 m 1
 0 612 l 1
 0 696 l 1
 1008 696 l 1
 1008 612 l 1
462 -336 m 1
 462 360 l 1
 0 360 l 1
 0 444 l 1
 1008 444 1008 444 1008 444 c 1
 1008 360 l 1
 546 360 l 1
 546 -336 l 1
 462 -336 l 1
EndSplineSet
EndChar

StartChar: SF480000
Encoding: 9573 9573 241
Width: 1008
Flags: HW
LayerCount: 2
Fore
SplineSet
336 -336 m 1
 336 486 l 1
 0 486 l 1
 0 570 l 1
 1008 570 l 1
 1008 486 l 2
 672 486 l 1
 672 -336 l 1
 588 -336 l 1
 588 486 l 1
 420 486 l 1
 420 -336 l 1
 336 -336 l 1
EndSplineSet
EndChar

StartChar: SF410000
Encoding: 9574 9574 242
Width: 1008
Flags: HW
LayerCount: 2
Fore
SplineSet
1008 612 m 1
 0 612 l 1
 0 696 l 1
 1008 696 l 1
 1008 612 l 1
336 -336 m 1
 336 360 l 1
 0 360 l 1
 0 444 l 1
 378 444 l 2
 401.18043 444 420 425.18043 420 402 c 2
 420 -336 l 1
 336 -336 l 1
1008 360 m 1
 672 360 l 1
 672 -336 l 1
 588 -336 l 1
 588 402 l 2
 588 425.18043 606.81957 444 630 444 c 2
 1008 444 l 1
 1008 360 l 1
EndSplineSet
EndChar

StartChar: SF450000
Encoding: 9575 9575 243
Width: 1008
Flags: HW
LayerCount: 2
Fore
SplineSet
1008 612 m 1
 0 612 0 612 0 612 c 1
 0 696 l 1
 462 696 l 1
 462 1344 l 1
 546 1344 l 1
 546 696 l 1
 1008 696 l 1
 1008 612 l 1
1008 360 m 1
 0 360 l 1
 0 444 l 1
 1008 444 l 1
 1008 360 l 1
EndSplineSet
EndChar

StartChar: SF460000
Encoding: 9576 9576 244
Width: 1008
Flags: HW
LayerCount: 2
Fore
SplineSet
1008 486 m 1
 0 486 l 1
 0 570 l 1
 336 570 l 1
 336 1344 l 1
 420 1344 l 1
 420 570 l 1
 588 570 l 1
 588 1344 l 1
 672 1344 l 1
 672 570 l 1
 1008 570 l 1
 1008 486 l 1
EndSplineSet
EndChar

StartChar: SF400000
Encoding: 9577 9577 245
Width: 1008
Flags: HW
LayerCount: 2
Fore
SplineSet
420 1344 m 1
 420 654 l 2
 420 630.81957 401.18043 612 378 612 c 2
 0 612 l 1
 0 696 l 1
 336 696 l 1
 336 1344 l 1
 420 1344 l 1
1008 360 m 1
 0 360 l 1
 0 444 l 1
 1008 444 l 1
 1008 360 l 1
672 1344 m 1
 672 696 l 1
 1008 696 l 1
 1008 612 l 1
 630 612 l 2
 606.81957 612 588 630.81957 588 654 c 2
 588 1344 l 1
 672 1344 l 1
EndSplineSet
EndChar

StartChar: SF540000
Encoding: 9578 9578 246
Width: 1008
Flags: HW
LayerCount: 2
Fore
SplineSet
1008 360 m 1
 546 360 l 1
 546 -336 l 1
 462 -336 l 1
 462 360 l 1
 0 360 l 1
 0 444 l 1
 462 444 l 1
 462 612 l 1
 0 612 l 1
 0 696 l 1
 462 696 l 1
 462 1344 l 1
 546 1344 l 1
 546 696 l 1
 1008 696 l 1
 1008 612 l 1
 546 612 l 1
 546 444 l 1
 1008 444 l 1
 1008 360 l 1
EndSplineSet
EndChar

StartChar: SF530000
Encoding: 9579 9579 247
Width: 1008
Flags: HW
LayerCount: 2
Fore
SplineSet
336 -336 m 1
 336 486 l 1
 0 486 l 1
 0 570 l 1
 336 570 l 1
 336 1344 l 1
 420 1344 l 1
 420 570 l 1
 588 570 l 1
 588 1344 l 1
 672 1344 l 1
 672 570 l 1
 1008 570 l 1
 1008 486 l 2
 672 486 l 1
 672 -336 l 1
 588 -336 l 1
 588 486 l 1
 420 486 l 1
 420 -336 l 1
 336 -336 l 1
EndSplineSet
EndChar

StartChar: SF440000
Encoding: 9580 9580 248
Width: 1008
Flags: HW
LayerCount: 2
Fore
SplineSet
420 1344 m 1
 420 654 l 2
 420 630.81957 401.18043 612 378 612 c 2
 0 612 l 1
 0 696 l 1
 336 696 l 1
 336 1344 l 1
 420 1344 l 1
336 -336 m 1
 336 360 l 1
 0 360 l 1
 0 444 l 1
 378 444 l 2
 401.18043 444 420 425.18043 420 402 c 2
 420 -336 l 1
 336 -336 l 1
672 1344 m 1
 672 696 l 1
 1008 696 l 1
 1008 612 l 1
 630 612 l 2
 606.81957 612 588 630.81957 588 654 c 2
 588 1344 l 1
 672 1344 l 1
1008 360 m 1
 672 360 l 1
 672 -336 l 1
 588 -336 l 1
 588 402 l 2
 588 425.18043 606.81957 444 630 444 c 2
 1008 444 l 1
 1008 360 l 1
EndSplineSet
EndChar

StartChar: uni256D
Encoding: 9581 9581 249
Width: 1008
Flags: HW
LayerCount: 2
Fore
SplineSet
705.6 486 m 2
 638.88835178 486 546 393.384557384 546 326.4 c 2
 546 -336 l 1
 462 -336 l 1
 462 326.4 l 2
 462 440.322022949 592.038095202 570 705.6 570 c 2
 1008 570 l 1
 1008 486 l 2
 705.6 486 l 2
EndSplineSet
EndChar

StartChar: uni256E
Encoding: 9582 9582 250
Width: 1008
Flags: HW
LayerCount: 2
Fore
SplineSet
302.4 570 m 2
 416.322022949 570 546 439.961904798 546 326.4 c 2
 546 -336 l 1
 462 -336 l 1
 462 326.4 l 2
 462 393.11164822 369.384557384 486 302.4 486 c 2
 0 486 l 2
 0 570 l 1
 302.4 570 l 2
EndSplineSet
EndChar

StartChar: uni256F
Encoding: 9583 9583 251
Width: 1008
Flags: HW
LayerCount: 2
Fore
SplineSet
302.4 570 m 2
 369.11164822 570 462 662.615442616 462 729.6 c 2
 462 1344 l 1
 546 1344 l 1
 546 729.6 l 2
 546 616.032824172 416.316756925 486 302.4 486 c 2
 0 486 l 2
 0 570 l 1
 302.4 570 l 2
EndSplineSet
EndChar

StartChar: uni2570
Encoding: 9584 9584 252
Width: 1008
Flags: HW
LayerCount: 2
Fore
SplineSet
705.6 486 m 2
 592.032824172 486 462 615.683243075 462 729.6 c 2
 462 1344 l 1
 546 1344 l 1
 546 729.6 l 2
 546 662.88835178 638.615442616 570 705.6 570 c 2
 1008 570 l 1
 1008 486 l 2
 705.6 486 l 2
EndSplineSet
EndChar

StartChar: uni2571
Encoding: 9585 9585 253
Width: 1008
Flags: HW
LayerCount: 2
Fore
SplineSet
959.020297406 -336 m 1
 0 1262.36716234 l 1
 0 1344 l 1
 48.9797025936 1344 l 1
 1008 -254.367162344 l 1
 1008 -336 l 1
 959.020297406 -336 l 1
EndSplineSet
EndChar

StartChar: uni2572
Encoding: 9586 9586 254
Width: 1008
Flags: HW
LayerCount: 2
Fore
SplineSet
959.020297463 1344 m 1
 1008 1344 l 1
 1008 1262.36716234 l 1
 48.9797025936 -336 l 1
 0 -336 l 1
 0 -254.367162347 l 1
 959.020297463 1344 l 1
EndSplineSet
EndChar

StartChar: uni2573
Encoding: 9587 9587 255
Width: 1008
Flags: HW
LayerCount: 2
Fore
SplineSet
0 1262.36716234 m 1
 0 1344 l 1
 48.9797025936 1344 l 1
 504 585.632837656 l 1
 959.020297462 1344 l 1
 1008 1344 l 1
 1008 1262.36716234 l 1
 552.979702594 504 l 1
 1008 -254.367162344 l 1
 1008 -336 l 1
 959.020297406 -336 l 1
 504 422.367162344 l 1
 48.9797025936 -336 l 1
 0 -336 l 1
 -3.5527136788e-15 -254.367162344 l 1
 455.020297406 504 l 1
 0 1262.36716234 l 1
EndSplineSet
EndChar

StartChar: uni2574
Encoding: 9588 9588 256
Width: 1008
Flags: HW
LayerCount: 2
Fore
SplineSet
0 486 m 1
 0 570 l 1
 504 570 l 1
 504 486 l 1
 0 486 l 1
EndSplineSet
EndChar

StartChar: uni2575
Encoding: 9589 9589 257
Width: 1008
Flags: HW
LayerCount: 2
Fore
SplineSet
462 528 m 1
 462 1344 l 1
 546 1344 l 1
 546 528 l 1
 462 528 l 1
EndSplineSet
EndChar

StartChar: uni2576
Encoding: 9590 9590 258
Width: 1008
Flags: HW
LayerCount: 2
Fore
SplineSet
504 486 m 1
 504 570 l 1
 1008 570 l 1
 1008 486 l 1
 504 486 l 1
EndSplineSet
EndChar

StartChar: uni2577
Encoding: 9591 9591 259
Width: 1008
Flags: HW
LayerCount: 2
Fore
SplineSet
462 -336 m 1
 462 528 l 1
 546 528 l 1
 546 -336 l 1
 462 -336 l 1
EndSplineSet
EndChar

StartChar: uni2578
Encoding: 9592 9592 260
Width: 1008
Flags: HW
LayerCount: 2
Fore
SplineSet
0 402 m 1
 0 654 l 1
 504 654 l 1
 504 402 l 1
 0 402 l 1
EndSplineSet
EndChar

StartChar: uni2579
Encoding: 9593 9593 261
Width: 1008
Flags: HW
LayerCount: 2
Fore
SplineSet
378 528 m 1
 378 1344 l 1
 630 1344 l 1
 630 528 l 1
 378 528 l 1
EndSplineSet
EndChar

StartChar: uni257A
Encoding: 9594 9594 262
Width: 1008
Flags: HW
LayerCount: 2
Fore
SplineSet
504 402 m 1
 504 654 l 1
 1008 654 l 1
 1008 402 l 1
 504 402 l 1
EndSplineSet
EndChar

StartChar: uni257B
Encoding: 9595 9595 263
Width: 1008
Flags: HW
LayerCount: 2
Fore
SplineSet
378 -336 m 1
 378 528 l 1
 630 528 l 1
 630 -336 l 1
 378 -336 l 1
EndSplineSet
EndChar

StartChar: uni257C
Encoding: 9596 9596 264
Width: 1008
Flags: HW
LayerCount: 2
Fore
SplineSet
0 486 m 1
 0 570 l 1
 504 570 l 1
 504 654 l 1
 1008 654 l 1
 1008 402 l 1
 504 402 l 1
 504 486 l 1
 0 486 l 1
EndSplineSet
EndChar

StartChar: uni257D
Encoding: 9597 9597 265
Width: 1008
Flags: HW
LayerCount: 2
Fore
SplineSet
378 -336 m 1
 378 528 l 1
 462 528 l 1
 462 1344 l 1
 546 1344 l 1
 546 528 l 1
 630 528 l 1
 630 -336 l 1
 378 -336 l 1
EndSplineSet
EndChar

StartChar: uni257E
Encoding: 9598 9598 266
Width: 1008
Flags: HW
LayerCount: 2
Fore
SplineSet
0 402 m 1
 0 654 l 1
 504 654 l 1
 504 570 l 1
 1008 570 l 1
 1008 486 l 1
 504 486 l 1
 504 402 l 1
 0 402 l 1
EndSplineSet
EndChar

StartChar: uni257F
Encoding: 9599 9599 267
Width: 1008
Flags: HW
LayerCount: 2
Fore
SplineSet
378 528 m 1
 378 1344 l 1
 630 1344 l 1
 630 528 l 1
 546 528 l 1
 546 -336 l 1
 462 -336 l 1
 462 528 l 1
 378 528 l 1
EndSplineSet
EndChar

StartChar: upblock
Encoding: 9600 9600 268
Width: 1008
Flags: HW
LayerCount: 2
Fore
SplineSet
0 1344 m 1
 0 504 l 1
 1008 504 l 1
 1008 1344 l 1
 0 1344 l 1
EndSplineSet
EndChar

StartChar: uni2581
Encoding: 9601 9601 269
Width: 1008
Flags: HW
LayerCount: 2
Fore
SplineSet
0 -336 m 1
 0 -126 l 1
 1008 -126 l 1
 1008 -336 l 1
 0 -336 l 1
EndSplineSet
EndChar

StartChar: uni2582
Encoding: 9602 9602 270
Width: 1008
Flags: HW
LayerCount: 2
Fore
SplineSet
0 -336 m 1
 0 84 l 1
 1008 84 l 1
 1008 -336 l 1
 0 -336 l 1
EndSplineSet
EndChar

StartChar: uni2583
Encoding: 9603 9603 271
Width: 1008
Flags: HW
LayerCount: 2
Fore
SplineSet
0 -336 m 1
 0 294 l 1
 1008 294 l 1
 1008 -336 l 1
 0 -336 l 1
EndSplineSet
EndChar

StartChar: dnblock
Encoding: 9604 9604 272
Width: 1008
Flags: HW
LayerCount: 2
Fore
SplineSet
0 -336 m 1
 0 504 l 1
 1008 504 l 1
 1008 -336 l 1
 0 -336 l 1
EndSplineSet
EndChar

StartChar: uni2585
Encoding: 9605 9605 273
Width: 1008
Flags: HW
LayerCount: 2
Fore
SplineSet
0 -336 m 1
 0 714 l 1
 1008 714 l 1
 1008 -336 l 1
 0 -336 l 1
EndSplineSet
EndChar

StartChar: uni2586
Encoding: 9606 9606 274
Width: 1008
Flags: HW
LayerCount: 2
Fore
SplineSet
0 -336 m 1
 0 924 l 1
 1008 924 l 1
 1008 -336 l 1
 0 -336 l 1
EndSplineSet
EndChar

StartChar: uni2587
Encoding: 9607 9607 275
Width: 1008
Flags: HW
LayerCount: 2
Fore
SplineSet
0 -336 m 1
 0 1134 l 1
 1008 1134 l 1
 1008 -336 l 1
 0 -336 l 1
EndSplineSet
EndChar

StartChar: block
Encoding: 9608 9608 276
Width: 1008
Flags: HW
LayerCount: 2
Fore
SplineSet
0 -336 m 1
 0 1344 l 1
 1008 1344 l 1
 1008 -336 l 1
 0 -336 l 1
EndSplineSet
EndChar

StartChar: uni2589
Encoding: 9609 9609 277
Width: 1008
Flags: HW
LayerCount: 2
Fore
SplineSet
0 -336 m 1
 0 1344 l 1
 882 1344 l 1
 882 -336 l 1
 0 -336 l 1
EndSplineSet
EndChar

StartChar: uni258A
Encoding: 9610 9610 278
Width: 1008
Flags: HW
LayerCount: 2
Fore
SplineSet
0 -336 m 1
 0 1344 l 1
 756 1344 l 1
 756 -336 l 1
 0 -336 l 1
EndSplineSet
EndChar

StartChar: uni258B
Encoding: 9611 9611 279
Width: 1008
Flags: HW
LayerCount: 2
Fore
SplineSet
0 -336 m 1
 0 1344 l 1
 630 1344 l 1
 630 -336 l 1
 0 -336 l 1
EndSplineSet
EndChar

StartChar: lfblock
Encoding: 9612 9612 280
Width: 1008
Flags: HW
LayerCount: 2
Fore
SplineSet
0 -336 m 1
 0 1344 l 1
 504 1344 l 1
 504 -336 l 1
 0 -336 l 1
EndSplineSet
EndChar

StartChar: uni258D
Encoding: 9613 9613 281
Width: 1008
Flags: HW
LayerCount: 2
Fore
SplineSet
0 -336 m 1
 0 1344 l 1
 378 1344 l 1
 378 -336 l 1
 0 -336 l 1
EndSplineSet
EndChar

StartChar: uni258E
Encoding: 9614 9614 282
Width: 1008
Flags: HW
LayerCount: 2
Fore
SplineSet
0 -336 m 1
 0 1344 l 1
 252 1344 l 1
 252 -336 l 1
 0 -336 l 1
EndSplineSet
EndChar

StartChar: uni258F
Encoding: 9615 9615 283
Width: 1008
Flags: HW
LayerCount: 2
Fore
SplineSet
0 -336 m 1
 0 1344 l 1
 126 1344 l 1
 126 -336 l 1
 0 -336 l 1
EndSplineSet
EndChar

StartChar: rtblock
Encoding: 9616 9616 284
Width: 1008
Flags: HW
LayerCount: 2
Fore
SplineSet
0 -336 m 1
 0 1344 l 1
 504 1344 l 1
 504 -336 l 1
 0 -336 l 1
EndSplineSet
EndChar

